<svg xmlns="http://www.w3.org/2000/svg" xmlns:xlink="http://www.w3.org/1999/xlink" version="1.1" x="0px" y="0px" viewBox="0 0 24 24" fill="white" enable-background="new 0 0 24 24" xml:space="preserve"><g><path d="M10.778,18.612l0.541-0.541l1.888-1.888c0,0,0,0,0,0l0.794-0.794c0.595-0.596,0.597-1.561,0.012-2.164l0.927-0.927   l0.487,0.472c0.077,0.075,0.178,0.113,0.278,0.113c0.104,0,0.209-0.041,0.287-0.122c0.154-0.159,0.15-0.412-0.009-0.565   l-0.478-0.464l0.52-0.52c0.019-0.019,0.039-0.039,0.058-0.058l0.493,0.455c0.077,0.071,0.174,0.106,0.271,0.106   c0.107,0,0.215-0.043,0.294-0.128c0.149-0.162,0.14-0.416-0.022-0.565l-0.47-0.434c0.187-0.187,0.374-0.375,0.562-0.562l0.486,0.48   c0.078,0.077,0.18,0.115,0.281,0.115c0.104,0,0.206-0.04,0.284-0.119c0.155-0.157,0.154-0.411-0.003-0.566L17.777,9.46   c0.189-0.189,0.378-0.378,0.567-0.568l0.519,0.498c0.078,0.074,0.178,0.111,0.277,0.111c0.105,0,0.21-0.041,0.288-0.123   c0.153-0.159,0.148-0.412-0.011-0.565l-0.508-0.488c0.181-0.182,0.363-0.363,0.544-0.545l0.508,0.47   c0.077,0.071,0.174,0.106,0.271,0.106c0.107,0,0.215-0.043,0.294-0.128c0.149-0.162,0.14-0.415-0.022-0.565l-0.485-0.449   c0.186-0.187,0.373-0.373,0.56-0.56L21.1,7.119c0.076,0.068,0.172,0.102,0.267,0.102c0.11,0,0.22-0.045,0.299-0.134   c0.146-0.165,0.133-0.417-0.032-0.564l-0.52-0.464c0.191-0.231,0.346-0.471,0.467-0.722l0.781,0.172   c0.028,0.006,0.058,0.009,0.086,0.009c0.184,0,0.35-0.127,0.391-0.313c0.048-0.216-0.089-0.429-0.305-0.477l-0.701-0.155   c0.056-0.297,0.066-0.603,0.032-0.916l0.722-0.265c0.207-0.076,0.313-0.306,0.238-0.513c-0.076-0.208-0.309-0.312-0.514-0.238   l-0.615,0.226c-0.091-0.238-0.202-0.464-0.352-0.663l0.492-0.466c0.16-0.152,0.167-0.405,0.015-0.565   c-0.151-0.161-0.405-0.167-0.565-0.015L20.76,1.656c-0.076-0.054-0.147-0.116-0.23-0.163c-0.093-0.052-0.196-0.084-0.294-0.126   l0.243-0.769c0.066-0.21-0.051-0.436-0.262-0.502c-0.211-0.068-0.435,0.05-0.502,0.261l-0.253,0.799   c-0.288-0.035-0.582-0.024-0.877,0.024l-0.184-0.598c-0.066-0.212-0.291-0.332-0.5-0.265c-0.212,0.065-0.33,0.289-0.266,0.5   l0.184,0.6c-0.283,0.121-0.549,0.28-0.799,0.475l-0.4-0.414c-0.153-0.159-0.405-0.163-0.565-0.009   c-0.158,0.154-0.163,0.407-0.009,0.565l0.372,0.385l-0.583,0.584l-0.439-0.47c-0.149-0.162-0.403-0.169-0.565-0.02   c-0.161,0.151-0.17,0.404-0.019,0.565l0.458,0.49l-0.56,0.56l-0.428-0.445c-0.152-0.159-0.406-0.163-0.565-0.011   c-0.159,0.153-0.164,0.406-0.011,0.565l0.439,0.456L13.62,5.221L13.171,4.79c-0.161-0.154-0.414-0.147-0.565,0.011   c-0.153,0.16-0.148,0.413,0.011,0.566l0.438,0.42l-0.605,0.605l-0.454-0.458c-0.154-0.157-0.407-0.158-0.565-0.003   c-0.157,0.155-0.158,0.409-0.003,0.565l0.457,0.461l-0.551,0.551l-0.37-0.366c-0.159-0.156-0.411-0.154-0.565,0.003   c-0.155,0.157-0.154,0.41,0.003,0.565l0.367,0.364L9.711,9.133C9.06,8.72,8.321,8.419,7.652,8.419   c-0.337,0-0.639,0.084-0.899,0.235L6.187,8.088c-0.727-0.727-1.995-0.727-2.722,0c-0.362,0.363-0.563,0.846-0.563,1.36   s0.2,0.998,0.563,1.361c0,0,0.001,0.001,0.001,0.001l0.524,0.524l-1.334,1.334c-0.831,0.831-1.07,2.022-0.746,3.075   c-0.006,0.025-0.012,0.05-0.013,0.061L1.17,20.901c-0.086,0.594,0.117,1.202,0.541,1.625l0.943,0.943   c0.291,0.292,0.68,0.453,1.093,0.453c0.001,0,0.001,0,0.001,0c0.414,0,0.803-0.161,1.095-0.453l2.424-2.425   c0.084,0.011,0.167,0.025,0.254,0.025c0.516,0,0.999-0.2,1.363-0.564l1.89-1.89c0.001-0.001,0.002-0.001,0.002-0.002   C10.776,18.615,10.777,18.613,10.778,18.612z M9.321,18.937L7.845,17.46l3.036-3.036l1.477,1.476l-0.606,0.606l-0.731-0.731   c-0.156-0.156-0.41-0.156-0.566,0c-0.156,0.156-0.156,0.409,0,0.565l0.731,0.732l-0.693,0.693l-0.731-0.731   c-0.156-0.156-0.41-0.156-0.566,0s-0.156,0.409,0,0.565l0.732,0.732l-0.182,0.182L9.321,18.937z M12.729,7.245L12.729,7.245   c0.001-0.001,0.001-0.001,0.001-0.001l1.182-1.183c0.001-0.001,0.001-0.001,0.002-0.001c0,0,0.001-0.001,0.001-0.002l1.067-1.068   c0.001-0.001,0.002,0,0.002-0.001c0.001-0.001,0.002-0.003,0.003-0.004l1.111-1.112c0.001-0.001,0.002,0,0.003-0.001   c0.002-0.002,0.002-0.004,0.004-0.006l1.117-1.118c0.342-0.342,0.716-0.573,1.145-0.708c0.616-0.192,1.259-0.138,1.77,0.15   c0.454,0.257,0.773,0.681,0.897,1.195c0.217,0.896-0.025,1.705-0.722,2.404c-0.016,0.016-0.032,0.032-0.049,0.049l0,0c0,0,0,0,0,0   c-1.493,1.499-2.989,2.995-4.485,4.49l0,0l0,0c-0.106,0.106-0.212,0.213-0.318,0.319l-0.81,0.81   c-0.001,0.001-0.002,0.001-0.003,0.002c-0.001,0.001-0.001,0.002-0.001,0.002l-1.196,1.195l-0.509-0.509   c3.752-3.586,6.177-5.923,7.001-6.748c0.504-0.503,0.649-1.173,0.391-1.794c-0.209-0.497-0.645-0.855-1.165-0.958   c-0.529-0.106-1.079,0.066-1.472,0.458c-0.803,0.8-2.057,2.063-3.336,3.352c-1.316,1.326-2.642,2.662-3.547,3.563l-0.046-0.046   c-0.122-0.122-0.26-0.243-0.404-0.362L12.729,7.245z M11.38,10.586c0.905-0.902,2.232-2.239,3.549-3.566   c1.277-1.287,2.53-2.549,3.332-3.349c0.208-0.207,0.482-0.292,0.752-0.239c0.264,0.052,0.476,0.228,0.582,0.482   c0.134,0.319,0.057,0.646-0.218,0.919c-0.575,0.576-2.264,2.222-7.001,6.748L11.38,10.586z M4.032,10.244   c0,0-0.001-0.001-0.001-0.001c-0.213-0.212-0.33-0.494-0.33-0.795s0.116-0.583,0.329-0.795c0.424-0.424,1.164-0.424,1.59,0   l0.525,0.525l-1.59,1.59L4.032,10.244z M4.276,22.905c-0.141,0.141-0.328,0.218-0.528,0.218s-0.388-0.078-0.527-0.218l-0.944-0.944   c-0.247-0.247-0.364-0.6-0.315-0.946l0.59-4.137c0.037,0.042,0.065,0.089,0.105,0.129l3.501,3.5   c0.088,0.088,0.183,0.165,0.284,0.233L4.276,22.905z M6.723,19.941l-3.5-3.5c-0.884-0.884-0.884-2.322,0-3.207l3.769-3.769   c0.001-0.001,0.003-0.002,0.004-0.003C6.997,9.462,6.997,9.461,6.997,9.46C7.16,9.299,7.374,9.22,7.652,9.22   c0.807,0,1.893,0.664,2.549,1.32l3.233,3.233c0.29,0.29,0.29,0.761,0,1.051l-0.511,0.511l-1.76-1.759   c-0.156-0.156-0.41-0.156-0.566,0l-3.602,3.602c-0.156,0.156-0.156,0.409,0,0.565l1.759,1.76l-0.438,0.438   C7.894,20.366,7.149,20.366,6.723,19.941z"></path><path d="M8.919,12.193c-0.156-0.156-0.41-0.156-0.566,0l-2.739,2.74c-0.156,0.156-0.156,0.409,0,0.565   c0.078,0.078,0.181,0.117,0.283,0.117s0.205-0.039,0.283-0.117l2.739-2.74C9.075,12.602,9.075,12.349,8.919,12.193z"></path></g></svg>