<svg xmlns="http://www.w3.org/2000/svg" 
    xmlns:xlink="http://www.w3.org/1999/xlink" version="1.1" x="0px" y="0px" viewBox="0 0 118.449 242.74" style="enable-background:new 0 0 118.449 242.74;" xml:space="preserve" fill="white">
    <g>
        <path d="M41.699,187.224l-1.439,1.388l-1.388-1.439l-4.998-5.18l-1.083,10.593c1.049,1.497,2.297,3.149,3.764,4.874   c4.413,5.188,10.733,10.955,19.083,14.806l1.245-12.186l-13.745-14.247L41.699,187.224z"></path>
        <path d="M32.337,197.032l-2.782,27.228c-0.694,6.795,4.252,12.862,11.043,13.556c6.793,0.694,12.863-4.247,13.558-11.042   l1.162-11.372C44.642,210.724,37.093,203.16,32.337,197.032z"></path>
        <path d="M90.585,235.013l-12.08-12.52l0.438,4.28c0.537,5.256,4.296,9.391,9.113,10.678l1.09-1.051L90.585,235.013z"></path>
        <path d="M87.179,155.628c1.943-0.003,4.092-0.274,6.479-0.897c0.946-0.249,1.853-0.422,2.727-0.535l-0.993-9.713   c-0.416,0.516-0.861,1.071-1.35,1.694C92.122,148.626,89.705,151.866,87.179,155.628z"></path>
        <path d="M82.047,158.036c-4.786-1.146-8.333-3.822-10.808-6.646l2.329,22.794C75.966,168.427,78.999,162.923,82.047,158.036z"></path>
        <path d="M87.144,158.628c-0.643,0.001-1.264-0.032-1.874-0.081c-0.109,0.172-0.219,0.337-0.328,0.511   c-3.605,5.691-7.174,12.289-9.683,19.024l9.915,10.276l1.439-1.388l1.439-1.388l1.388,1.439l3.24,3.357l1.388,1.439l-1.439,1.388   l-1.439,1.39l10.427,10.807l-4.928-48.223c-0.713,0.096-1.468,0.244-2.271,0.454C91.794,158.32,89.373,158.63,87.144,158.628z"></path>
        <path d="M66.549,121.37H44.334l-4.6-6.418c-0.503,0.362-1.014,0.715-1.525,1.06l3.611,5.358h-2.317v5.45   c0,0.02,0.003,0.038,0.003,0.058l-1.341,13.119l1.696,1.758l1.621-1.563l1.439-1.388l1.388,1.439l2.776,2.876l2.517-2.43   l1.441-1.39l1.389,1.441l9.507,9.855l1.64-16.047h5.939l1.098,10.743c0.541,0.973,1.196,2.02,2.011,3.072   c2.4,3.069,5.912,6.047,11.147,6.969c4.771-7.275,9.286-12.797,11.188-15.04l-1.371-13.415c0-0.02,0.003-0.038,0.003-0.058v-5.45   H66.549z"></path>
        <path d="M1.4,137.174l0.001-0.001l6.249,6.477l-1.081,1.042l15.97,16.552l-3.059,2.951l20.83,21.59l2.878-2.777l24.302,25.188   l-2.879,2.777l3.24,3.358l2.879-2.777l22.681,23.509l-2.878,2.777l3.239,3.358l2.879-2.777l4.166,4.318l3.599-3.472l-4.166-4.318   l3.418-3.298l4.166,4.318l3.599-3.472l-4.166-4.318l3.418-3.298l4.166,4.318l3.599-3.471l-4.166-4.318l2.879-2.777l-3.24-3.358   l-2.879,2.777l-22.681-23.509l2.878-2.777l-3.239-3.358l-2.879,2.777L60.82,165.997l2.879-2.777l-3.124-3.238l3.958-3.819   l-13.539-14.034l-3.958,3.819l-4.166-4.318l-3.059,2.951l-4.773-4.947c-0.572,4.703-4.438,8.487-9.332,8.777   c-0.209,0.01-0.4,0.017-0.594,0.017c-5.283,0-9.664-4.137-9.976-9.414c-0.049-0.83-0.086-1.642-0.129-2.463l-4.479,4.322   l-6.248-6.477c-0.382-0.398-0.37-1.029,0.025-1.414l7.915-7.637c0.4-0.383,1.03-0.371,1.413,0.025l0.989,1.025   c-0.038-1.707-0.063-3.387-0.072-5.036c-1.723-0.596-3.705-0.246-5.108,1.105l-7.913,7.639   C-0.459,132.021-0.516,135.185,1.4,137.174z M74.328,208.083l3.419-3.298l22.682,23.509l-3.419,3.298L74.328,208.083z    M107.445,221.524l-3.419,3.298l-22.682-23.509l3.419-3.298L107.445,221.524z M57.223,169.469l24.301,25.188l-3.418,3.298   l-24.302-25.188L57.223,169.469z M50.206,176.238l24.301,25.188l-3.418,3.298l-24.302-25.189L50.206,176.238z"></path>
        <path d="M66.549,71.456c5.129,0,9.349-5.019,12.394-10.377l8.798,3.694c0.18-0.428,0.348-0.834,0.511-1.232   c-0.567,11.026-0.007,25.849,5.344,36.718V74.863c0.592,1.216,1.189,2.61,1.779,4.236c2.817,7.812,5.188,20.631,5.18,40.636   c0,5.518-0.177,11.574-0.563,18.226c-0.259,4.411,3.11,8.194,7.521,8.453c0.157,0.009,0.314,0.014,0.47,0.014   c4.207,0.001,7.736-3.283,7.983-7.536c0.402-6.932,0.589-13.299,0.591-19.156c-0.042-30.182-4.862-46.886-11.436-56.931   c-3.284-4.986-7.126-8.183-10.678-9.953c-1.823-0.921-3.529-1.459-5.001-1.766c-0.189,1.331-0.416,3.097-0.632,5.202l-6.503-2.199   c0.531-1.296,0.965-2.457,1.295-3.39H49.497C51.568,56.553,57.709,71.456,66.549,71.456z M88.606,58.46   c-0.117,1.345-0.224,2.787-0.311,4.311l-8.418-3.417c0.623-1.2,1.188-2.39,1.687-3.522L88.606,58.46z"></path>
        <path d="M17.134,138.895c0.25,4.251,3.774,7.53,7.979,7.531c0.157,0,0.315-0.004,0.476-0.014c4.41-0.261,7.775-4.047,7.517-8.457   c-0.391-6.649-0.569-12.705-0.567-18.219c-0.005-3.079,0.052-5.976,0.155-8.72c0.709-18.844,3.782-30.007,6.81-36.204v25.447   c7.944-16.137,5.315-40.997,4.154-49.174c-1.473,0.308-3.18,0.844-5.006,1.765c-5.38,2.665-11.179,8.501-15.236,18.841   c-3.643,9.205-6.22,22.063-6.766,40.658c-0.069,2.372-0.11,4.824-0.112,7.388C16.537,125.593,16.725,131.96,17.134,138.895z"></path>
        <path d="M77.747,85.07l-8.688-4.952c-0.318,0.557-0.642,1.118-0.973,1.682l8.629,5.053C77.065,86.256,77.41,85.661,77.747,85.07z"></path>
        <path d="M67.628,100.679l-8.036-5.952c-0.381,0.515-0.767,1.027-1.156,1.538l7.942,6.074   C66.802,101.787,67.219,101.234,67.628,100.679z"></path>
        <path d="M80.715,79.652l-8.85-4.655h-0.002c-0.296,0.568-0.604,1.14-0.915,1.718l8.798,4.755   C80.077,80.857,80.398,80.251,80.715,79.652z"></path>
        <polygon points="76.97,64.477 76.972,64.478 76.972,64.477  "></polygon>
        <polygon points="39.733,114.95 39.734,114.951 39.736,114.95  "></polygon>
        <path d="M71.22,95.598l-8.288-5.596c-0.359,0.532-0.724,1.063-1.093,1.593l8.21,5.712C70.444,96.738,70.834,96.168,71.22,95.598z"></path>
        <path d="M83.497,74.146l-8.994-4.368v0.002c-0.28,0.574-0.566,1.156-0.862,1.747l8.95,4.463   C82.902,75.365,83.205,74.751,83.497,74.146z"></path>
        <path d="M85.256,70.426c0.294-0.642,0.575-1.267,0.847-1.875l-9.131-4.074c-0.258,0.576-0.525,1.166-0.805,1.774L85.256,70.426z"></path>
        <path d="M74.587,90.39l-8.503-5.265c-0.337,0.546-0.681,1.093-1.029,1.641l8.434,5.372C73.86,91.553,74.225,90.971,74.587,90.39z"></path>
        <polygon points="52.314,103.61 52.315,103.612 52.316,103.61  "></polygon>
        <path d="M44.162,111.502c-0.48,0.402-0.963,0.801-1.45,1.19l6.252,7.805c0.555-0.443,1.101-0.894,1.646-1.351l-6.447-7.646V111.502   z"></path>
        <path d="M46.981,109.003l6.801,7.332c0.52-0.481,1.029-0.966,1.533-1.455l-6.961-7.178C47.9,108.141,47.443,108.575,46.981,109.003   z"></path>
        <path d="M51.021,105.004l7.256,6.881c0.481-0.508,0.958-1.019,1.428-1.535l-7.389-6.738   C51.889,104.079,51.456,104.545,51.021,105.004z"></path>
        <path d="M56.055,99.277c-0.402,0.493-0.811,0.982-1.222,1.468l7.629,6.464c0.451-0.532,0.896-1.066,1.334-1.601l-7.741-6.329   V99.277z"></path>
        <path d="M33.329,19.388c-0.451,2.258-0.825,4.907-1.28,8.04c-3.188,2.425-7.084,4.075-11.866,4.079   c-4.093,0-8.939-1.211-14.669-4.404l-1.947,3.494c6.185,3.45,11.719,4.912,16.616,4.912c4.25-0.001,7.929-1.1,11.072-2.812   c-0.161,1.008-0.333,2.056-0.522,3.146c-1.594,9.038-6.395,13.309-10.929,15.638c-2.267,1.145-4.467,1.743-6.083,2.05   c-0.806,0.152-1.467,0.234-1.914,0.274c-0.448,0.042-0.641,0.04-0.641,0.044l0.076,3.999c0.205-0.011,4.993-0.101,10.363-2.796   c5.384-2.672,11.329-8.235,13.069-18.531c0.436-2.544,0.792-4.866,1.104-6.969c2.228-1.912,4.075-4.089,5.569-6.225   c1.261-1.794,2.293-3.573,3.127-5.191c-0.277,1.412-0.427,2.87-0.427,4.363c0,12.427,10.074,22.5,22.5,22.5   c12.428,0,22.5-10.073,22.5-22.5c0-3.593-0.847-6.986-2.344-10c-5.735,1.379-12.655,2.179-20.158,2.183   c-11.255-0.043-21.162-1.726-27.759-4.667c-0.255,0.129-0.504,0.269-0.746,0.422C35.207,12.292,34.132,15.405,33.329,19.388z    M40.205,13.804c0.524-0.342,1.243-0.615,2.239-0.78c-1.027,2.478-2.873,6.256-5.647,9.712c0.388-2.408,0.769-4.312,1.266-5.729   C38.676,15.255,39.318,14.381,40.205,13.804z"></path>
        <path d="M66.55,0c-7.322,0-13.826,3.5-17.935,8.917c5.117,1.107,11.294,1.769,17.933,1.766c6.623,0.027,12.81-0.663,17.93-1.776   C80.369,3.496,73.869,0,66.55,0z"></path>
    </g>
</svg>