<svg xmlns="http://www.w3.org/2000/svg" 
    xmlns:xlink="http://www.w3.org/1999/xlink" version="1.1" x="0px" y="0px" viewBox="0 0 100 100" enable-background="new 0 0 100 100" xml:space="preserve">
    <g stroke="white" stroke-width="2">
        <path d="M31.314,59.826c0,0-0.329,0.486-0.131,1.104c0.264,0.815,0.042,1.705-1.724,3.601l-6.063,7.15   c-6.315,6.869-3.052,10.727-3.052,10.727c4.087,5.318,8.686,0.13,8.686,0.13c0.551-0.554,0.188-0.799,0.188-0.799l-0.344-0.273   c-2.616-1.613-1.791-3.942-1.791-3.942c0.752-3.16,7.753-10.115,7.753-10.115l6.267-6.21l-6.154-5.78L31.314,59.826z M26.447,73.97   c-0.287,0.421-0.861,0.535-1.284,0.249c-0.425-0.288-0.532-0.861-0.249-1.281c0.287-0.426,0.86-0.537,1.283-0.249   C26.621,72.972,26.731,73.545,26.447,73.97z M35.847,61.36c-0.287,0.42-0.857,0.531-1.283,0.244   c-0.423-0.283-0.534-0.856-0.247-1.281c0.283-0.423,0.859-0.534,1.282-0.249C36.023,60.359,36.132,60.935,35.847,61.36z    M45.568,57.644l-3.699,2.943l-6.305-5.926c0,0,7.544-9.487,17.405-18.359c0,0,2.879-2.525,5.759-2.875c0,0,1.097-0.144,1.007-1.32   l-0.213-0.731c0,0-0.348-0.706,0.644-1.215l3.349-2.264c0,0,4.08-2.131,1.691-5.387c0,0-1.705-2.526-4.403-2.969   c0,0-0.896-0.214-0.808-1.247c0,0,0.215-1.974,2.763-2.785c0,0,7.005-3.504,16.923,12.821l1.218,2.29   c1.101,1.684,0.299,2.087,0.299,2.087c-1.275,1.195-2.602,1.593-2.602,1.593c-2.262-0.551-12.537,7.035-12.537,7.035L47.167,55.334   C45.866,56.305,45.568,57.644,45.568,57.644"></path>
    </g>
</svg>