<svg xmlns="http://www.w3.org/2000/svg" xmlns:xlink="http://www.w3.org/1999/xlink" version="1.1" x="0px" y="0px" viewBox="0 0 100 100" fill="white" enable-background="new 0 0 100 100" xml:space="preserve"><path d="M10,92.5c0,1.4,1.1,2.5,2.5,2.5H25c1.4,0,2.5-1.1,2.5-2.5v-5h5c0.7,0,1.3-0.3,1.8-0.7l5-5c0.7-0.7,0.9-1.7,0.6-2.6l-2-6  l18.9-18.9l30-30c1-1,1-2.6,0-3.5l-3.2-3.2l3.2-3.2c1-1,1-2.6,0-3.5l-5-5c-1-1-2.6-1-3.5,0L75,9l-3.2-3.2c-1-1-2.6-1-3.5,0  c-1,1-1,2.6,0,3.5l3.2,3.2L19.6,64.4c-0.7,0.7-1.4,1.5-2,2.3c-1.5-1.1-3.2-1.6-5-1.6c-1.4,0-2.5,1.1-2.5,2.5s1.1,2.5,2.5,2.5  c0.8,0,1.5,0.3,2.1,0.7c-3,5-4.6,10.8-4.6,16.8V92.5z M31.5,82.5h-2.9l5.4-5.4l0.7,2.2L31.5,82.5z M55,49l-1.5-1.5L80,21l1.5,1.5  L55,49z M80,11l1.5,1.5L50,44l-1.5-1.5L80,11z M15,87.5c0-7.4,2.9-14.3,8.1-19.6l5.6-5.6l2,2c0.5,0.5,1.1,0.7,1.8,0.7  s1.3-0.2,1.8-0.7l7.5-7.5c1-1,1-2.6,0-3.5l-2-2L45,46l3.2,3.2l3.2,3.2L25,79c-1.6,1.6-2.5,3.8-2.5,6v5H15V87.5z"></path></svg>