<svg xmlns="http://www.w3.org/2000/svg" xmlns:xlink="http://www.w3.org/1999/xlink" version="1.1" x="0px" y="0px" viewBox="0 0 512 512" fill="white" enable-background="new 0 0 512 512" xml:space="preserve"><path d="M493.264,18.705c-12.5-12.5-28.875-18.75-45.251-18.75c-16.391,0-32.766,6.25-45.266,18.75  c-0.203,0.203-3.922,4.32-10.484,11.609c-1.813-1.844-3.859-3.727-6.125-5.57c-10.563-8.625-22.156-13.195-34.141-13.57v-0.469  c0-5.891-4.766-10.664-10.672-10.664c-5.875,0-10.656,4.773-10.656,10.664v21.336c0,5.891,4.781,10.664,10.656,10.664  c5.719,0,10.375-4.5,10.656-10.141c11.438,0.641,20.359,7.594,26.016,13.609c-10.391,11.563-23.656,26.313-38.922,43.313  c-1.969-2.5-5-4.109-8.406-4.109c-5.891,0-10.672,4.773-10.672,10.664c0,3.828,2.016,7.172,5.047,9.055  c-10.703,11.914-22.172,24.672-34.156,38.023c-1.313-16.688-6.25-26.602-12-32.461c3.891-4.18,3.813-10.727-0.25-14.797  c-4.172-4.172-10.938-4.172-15.094,0l0,0l0,0l-15.094,15.086l0,0l0,0c-4.156,4.164-4.156,10.914,0,15.086  c4.172,4.164,10.938,4.164,15.094,0v-0.008l0.281-0.281c6.25,6.453,7.125,27.18,5.141,41.774  C174.294,272.909,57.355,403.175,17.309,447.784c-4.188-3.344-10.313-3.078-14.188,0.797c-4.141,4.141-4.172,10.86-0.047,15.048l0,0  l0.031,0.031h0.016c0.016,0,0.016,0.016,0.016,0.016l45.203,45.203l0,0c0.016,0.016,0.016,0.031,0.047,0.031  c4.156,4.172,10.906,4.188,15.078,0c3.906-3.906,4.141-10.094,0.734-14.281L311.2,272.753c1.938,2.781,5.156,4.625,8.797,4.625  c5.891,0,10.672-4.781,10.672-10.664c0-3.242-1.453-6.141-3.734-8.094l40.484-36.368c1.688,1.125,3.719,1.79,5.906,1.79  c5.906,0,10.672-4.774,10.672-10.665c0-1.781-0.438-3.453-1.203-4.93l36.813-33.07c4.469,6.656,9.125,16.625,6.953,27.336  c-5.844,0.063-10.563,4.805-10.563,10.664c0,5.891,4.781,10.665,10.672,10.665h21.328c5.891,0,10.673-4.774,10.673-10.665  c0-5.836-4.688-10.563-10.501-10.656c1.125-9.977-0.875-20.359-6-30.742c-2.094-4.211-4.438-7.898-6.625-10.93l38.657-34.727  c1.672,1.086,3.656,1.719,5.797,1.719c5.891,0,10.672-4.773,10.672-10.664c0-1.734-0.422-3.359-1.156-4.805l3.75-3.359  C518.248,84.221,518.248,43.697,493.264,18.705z M149.325,332.659c7.094-7.875,14.219-15.813,21.344-23.75v61.406l-21.344,19.156  V332.659z M127.997,408.644l-21.328,19.172V380.19c7.031-7.844,14.156-15.766,21.328-23.766V408.644z M85.324,403.94v43.031  l-36.203,32.532l-16.672-16.672C48.824,444.597,66.637,424.753,85.324,403.94z M478.545,93.76L191.997,351.159v-66  C303.825,160.635,411.575,40.658,418.106,33.525c8.016-7.898,18.625-12.234,29.906-12.234c11.376,0,22.095,4.438,30.157,12.492  C494.686,50.299,494.811,77.096,478.545,93.76z"></path></svg>