<svg xmlns="http://www.w3.org/2000/svg" xmlns:xlink="http://www.w3.org/1999/xlink" version="1.1" x="0px" y="0px" viewBox="0 0 80 80" enable-background="new 0 0 80 80" xml:space="preserve"><g><path fill="#000000" d="M72.5,52.883c0-9.573-7.76-17.333-17.333-17.333c-0.012,0-0.022,0.001-0.034,0.001   c1.399-2.5,2.201-5.381,2.201-8.451c0-9.339-7.388-16.949-16.637-17.315c7.155,0.363,12.845,6.279,12.845,13.524   c0,2.995-0.974,5.76-2.619,8.002c0,0-0.001,0-0.001-0.001c-1.094,1.489-2.484,2.748-4.085,3.685   c0.001,0.001,0.002,0.002,0.003,0.002c-1.832,1.075-3.938,1.731-6.19,1.837v3.32c2.084,0.314,3.683,2.107,3.683,4.279   c0,0.563-0.11,1.097-0.305,1.59l2.845,1.643c1.253-1.751,2.914-3.188,4.842-4.179c0,0.001,0,0.002,0,0.003   c0.592-0.304,1.208-0.565,1.846-0.781c0.013-0.005,0.026-0.01,0.039-0.014c0.186-0.063,0.374-0.119,0.563-0.174   c0.05-0.014,0.1-0.028,0.149-0.042c0.175-0.048,0.352-0.093,0.53-0.134c0.063-0.015,0.128-0.028,0.191-0.042   c0.175-0.037,0.35-0.073,0.526-0.104c0.059-0.011,0.118-0.019,0.178-0.028c0.411-0.066,0.829-0.116,1.253-0.144   c0-0.001,0-0.001,0-0.002c0.297-0.02,0.596-0.03,0.897-0.03c7.479,0,13.542,6.063,13.542,13.541c0,3.24-1.139,6.212-3.036,8.543   C70.954,61.059,72.5,57.152,72.5,52.883z"></path><path fill="#000000" d="M21.963,41.832c0.274,0,0.547,0.01,0.818,0.025c0.08,0.005,0.158,0.015,0.237,0.021   c0.181,0.014,0.361,0.029,0.54,0.051c0.106,0.012,0.212,0.027,0.317,0.043c0.148,0.021,0.296,0.044,0.442,0.069   c0.116,0.021,0.231,0.042,0.346,0.065c0.132,0.026,0.263,0.057,0.394,0.087c0.122,0.028,0.243,0.057,0.363,0.089   c0.117,0.03,0.232,0.065,0.348,0.099c0.505,0.148,0.999,0.324,1.478,0.528c0.069,0.03,0.14,0.058,0.208,0.088   c0.148,0.066,0.295,0.137,0.441,0.209c2.083,1.019,3.869,2.552,5.185,4.439l2.877-1.662c-0.185-0.481-0.291-1.004-0.291-1.551   c0-2.172,1.599-3.965,3.683-4.279v-3.32c-2.315-0.11-4.477-0.803-6.345-1.932c0.001,0,0.002-0.001,0.002-0.002   c-1.587-0.959-2.961-2.233-4.035-3.738c-0.001,0-0.002,0.001-0.003,0.002c-1.581-2.215-2.512-4.926-2.512-7.855   c0-7.245,5.689-13.161,12.845-13.524C30.054,10.15,22.667,17.76,22.667,27.1c0,3.069,0.801,5.95,2.2,8.451   c-0.011,0-0.022-0.001-0.034-0.001c-9.573,0-17.333,7.76-17.333,17.333c0,3.944,1.32,7.579,3.54,10.492   c-1.645-2.242-2.619-5.008-2.619-8.001C8.421,47.896,14.484,41.832,21.963,41.832z"></path><path fill="#000000" d="M45.514,61.033L45.514,61.033c-0.273-0.614-0.502-1.252-0.683-1.909v-0.001   c-0.06-0.218-0.114-0.438-0.163-0.66c-0.001-0.002-0.001-0.004-0.001-0.006c-0.049-0.221-0.093-0.443-0.13-0.668   c-0.001-0.003-0.001-0.006-0.002-0.009c-0.037-0.225-0.069-0.451-0.096-0.679c0-0.004-0.001-0.007-0.001-0.01   c-0.026-0.229-0.047-0.459-0.061-0.69c-0.001-0.003-0.001-0.006-0.001-0.008c-0.015-0.234-0.023-0.47-0.026-0.707l0,0   c0-0.05-0.004-0.1-0.004-0.15c0-2.47,0.665-4.783,1.82-6.777l-2.791-1.611c-0.795,0.986-2.011,1.619-3.376,1.619   c-1.38,0-2.606-0.647-3.4-1.652l-2.829,1.633c1.102,1.96,1.733,4.219,1.733,6.627c0,0.122-0.006,0.243-0.009,0.365l0,0   c-0.019,0.71-0.092,1.406-0.216,2.084c0,0.001,0,0.002,0,0.003c-0.041,0.224-0.087,0.446-0.139,0.666   c-0.001,0.003-0.001,0.006-0.002,0.009c-0.051,0.219-0.108,0.435-0.17,0.648c-0.001,0.005-0.003,0.009-0.004,0.014   c-0.062,0.213-0.129,0.423-0.201,0.632c-0.002,0.005-0.003,0.01-0.005,0.015c-0.072,0.209-0.149,0.415-0.231,0.619   c-0.002,0.004-0.003,0.008-0.005,0.012c-0.083,0.206-0.171,0.409-0.264,0.609c-2.147,4.643-6.843,7.866-12.294,7.866   c-3.69,0-7.035-1.479-9.478-3.873c3.144,3.192,7.514,5.173,12.348,5.173c6.235,0,11.693-3.298,14.747-8.239l0,0   c0.143-0.232,0.287-0.464,0.419-0.702c0.131,0.236,0.274,0.465,0.416,0.694l0,0c3.053,4.945,8.513,8.247,14.751,8.247   c4.506,0,8.609-1.721,11.692-4.539c-2.389,2.115-5.529,3.401-8.971,3.401C52.367,69.078,47.621,65.772,45.514,61.033z"></path><path fill="#000000" d="M35.257,33.654c1.415-0.593,2.968-0.921,4.599-0.921c1.686,0,3.289,0.352,4.743,0.984   c1.835-0.809,3.409-2.085,4.578-3.678c-2.692-1.721-5.889-2.723-9.321-2.723c-3.349,0-6.474,0.952-9.124,2.597   C31.878,31.522,33.436,32.82,35.257,33.654z"></path><path fill="#000000" d="M27.99,45.736c-1.626-1.018-3.499-1.62-5.452-1.72c-0.008,0.211-0.016,0.421-0.016,0.633   c0,6.844,3.967,12.759,9.727,15.577c0.697-1.473,1.089-3.117,1.089-4.853c0-0.257-0.01-0.513-0.027-0.768   C30.36,52.664,28.326,49.445,27.99,45.736z"></path><path fill="#000000" d="M57.188,44.649c0-0.155-0.007-0.31-0.012-0.465c-1.969,0.125-3.855,0.766-5.484,1.824   c-0.4,3.525-2.337,6.582-5.125,8.487c-0.031,0.345-0.054,0.692-0.054,1.04c0,1.661,0.36,3.238,1.003,4.662   C53.246,57.37,57.188,51.471,57.188,44.649z"></path></g></svg>