<svg xmlns="http://www.w3.org/2000/svg" xmlns:xlink="http://www.w3.org/1999/xlink" version="1.1" x="0px" y="0px" viewBox="0 0 100 100" fill="white" enable-background="new 0 0 100 100" xml:space="preserve"><g transform="translate(0.000000,973.000000) scale(0.100000,-0.100000)"><path d="M216,9262.8c-13.2-2.2-23.4-10-29.4-22.6c-3.8-8.1-5.2-13.8-5.4-22.8l-0.2-7.9l-5.7-2.9c-4.5-2.2-6.8-3.8-10.5-7.3   c-7.3-6.9-10.7-13.5-12-23.5c-1.2-9.2,1.4-22.1,6.2-30.4c2.9-4.9,9.9-11.9,14.2-14.2c10.9-5.7,23.2-6.6,35.1-2.5   c6.1,2.1,10.3,4.6,15.1,9.2c3.4,3.2,7.9,8.9,8.6,11c0.2,0.5,6.8-1.6,19.4-6.1c10.5-3.7,20.2-7.1,21.4-7.5l2.3-0.8l0.1-7.3   c0-9.9,1.9-17.2,6.2-24.5c1.4-2.2,1.8-3.5,1.4-3.7c-0.3-0.2-2.9-0.6-5.6-0.8c-8.3-0.7-27.2-3.2-39.4-5.2   c-44.5-7.4-79.5-19.1-101.1-33.7c-5.4-3.6-13.1-11-15.9-15.2c-6.8-10.1-6.3-21.4,1.2-31.3c1.1-1.5,1.9-2.9,1.8-3.2   c-0.2-0.2-3.1-0.6-6.5-0.9c-14.6-0.9-34.4-4.1-49.7-7.9c-47.9-12-73.5-33.1-66.7-55c7.5-24.2,52.9-43.5,116.3-49.3   c12.7-1.1,50.9-1,63.6,0.3c33.7,3.4,60.5,10,81.3,19.9c12.9,6.1,22.3,13.3,27.6,20.7c4,5.7,5.3,10.1,5,16.4l-0.2,4.9l5.8-0.4   c23.2-1.6,53.6-1.8,81.9-0.4c75.1,3.6,142.6,19.9,173.3,41.8l4.5,3.2l13.3-4.4c35.4-11.8,53.3-21.3,56.6-30.1   c3.5-9.2,8.5-16.6,17.8-26.2c7.4-7.6,15.9-15,25.8-22.3c30.3-22.5,80-49.1,115.7-62c15.7-5.7,64.7-24.2,71-26.8   c14.3-6,20.9-7.4,27.4-6.2c6.9,1.3,11.1,4.1,15,9.9c2.8,4.2,4.6,9.8,4.6,14.1c0,2.6,0.2,3.1,0.9,2.8c3.9-1.5,8.7-2.3,13.8-2.3   c5-0.1,6.1,0.1,8.9,1.4c4.2,1.9,6.6,4.1,9.2,8.1c3.2,4.9,4.7,10,4.8,15.8c0.1,4.5,0.1,4.8,1.2,4.5c3.8-1.1,9.1-1.6,13.2-1.4   c3.9,0.2,5.4,0.6,8.5,2.1c11.2,5.6,17.2,21.5,12.9,34.4l-1.4,4l2.1,0.3c5.6,0.9,13.2,6.7,16,12.3c1.8,3.6,3,9.9,2.5,13.4   c-0.6,4.5-3.3,11.5-6.2,15.9c-7.4,11.1-23.4,24.4-38.8,32.1c-13.6,6.9-40.1,17.5-104.8,42.2l-5.7,2.2l5.7,1.6   c16,4.5,30.5,12,39.8,20.8c7.4,7,11.7,14,14.7,23.5c1.3,4.4,1.5,6.1,1.5,13.1c0,11.5-1.7,17.1-6.9,22.7c-6.3,6.8-16.4,7.1-29.4,1   c-6.6-3.2-11.5-6.2-25-15.8c-6.5-4.6-13.1-8.9-15-9.6c-6.2-2.5-12.8-3.3-24.7-3c-11.6,0.3-15.3,0.8-41.5,5   c-9.7,1.5-21.4,3.2-25.8,3.7c-10.8,1.3-25.3,1.3-32.7,0l-5.8-1l-27.2,7c-134.4,34.4-245.6,66.9-297.3,86.7   c-13.4,5.2-16.1,5.7-24.6,5.7c-12.5-0.1-26-4.3-37.8-11.8l-3.2-2l-9.5,3.3c-25.2,8.8-44.5,15.6-44.6,15.8c-0.1,0.1,0.5,2.1,1.4,4.4   c2.2,6,2.6,15.2,0.9,22.3c-4.4,18.4-14.3,29.4-29,32.3C223.4,9263.4,220.6,9263.5,216,9262.8z M230,9246.8c6.4-3,11.1-10,13.2-19.8   c1.9-8.4,0-16.5-4.9-21.3c-1.3-1.3-2.3-2.9-2.6-4c-0.5-2.4,0.6-5.7,2.3-7c0.7-0.6,14-5.6,29.6-11c15.5-5.4,28.4-10,28.5-10.1   c0.1-0.1-1.1-1.7-2.8-3.5c-3.8-4.3-9.7-13.1-12-18l-1.8-3.8l-9.6,3.4c-5.3,1.8-16.7,5.8-25.3,8.9c-16.5,5.8-17.8,6-20.9,4   c-0.8-0.5-1.8-2.1-2.4-3.6c-3.4-9.7-8.9-15.4-17.7-18.5c-4.4-1.5-12.2-2.1-16.4-1.1c-12.8,3-20.5,14.6-19.9,30.4   c0.2,5.3,0.4,6.5,2,9.9c2.4,5,6.6,9.2,12.4,12.1l4.4,2.3l2.8-3.2c6.6-7.5,22.9-15.8,31.5-16.2c3.4-0.1,3.9,0.2,3.2,2.3   c-0.8,2.3-6.4,6.5-13.6,10.3c-5.8,3-6.5,3.6-8.4,6.5c-1.1,1.8-3,5.8-4,8.9c-1.7,4.9-1.9,6.4-1.9,11.6c0,6.9,1,11.3,4,17.5   c4.6,9.6,12.2,14.6,22.3,14.6C225.8,9248.5,227,9248.3,230,9246.8z M371.5,9180c55.1-20.9,180.6-57.2,311.9-90.3l16.2-4.1l5.3,1.1   c4.2,0.9,7.4,1.1,16.4,1c12.3-0.1,15.8-0.4,43.3-4.8c24.8-4,31.7-4.7,43.5-4.8c11.2-0.1,16.7,0.7,24.3,3.3   c5.5,1.8,7.6,3.1,19.4,11.6c17.2,12.4,26.2,17.2,33.2,17.8c3.2,0.2,3.7,0.1,5-1.2c3.2-3.2,4.4-14.8,2.3-22.8   c-3.8-14.6-17.4-26.4-39.2-34c-13.6-4.8-24.3-6.6-46.7-8.4c-8.5-0.6-15.5-1.3-15.6-1.3c-0.1-0.1,9.2-3.6,20.6-7.8   c61.5-22.6,116.4-44.2,134.3-52.7c17.6-8.4,33.6-21.8,39.1-32.8c2.2-4.4,2.3-5.1,2.2-8.2c-0.3-4.5-2.3-7.7-6-9.5   c-2.2-1-3.3-1.2-8.1-1c-7.5,0.3-14.2,2.6-31.5,10.9c-25.9,12.4-106.1,48.5-107.9,48.5c-0.9,0-1,0.9-1.4,7.5   c-0.2,4.1-0.6,8.7-0.7,10c-0.4,2.5-0.5,2.3-3.1-6.3c-5.3-17.4-11.6-33.5-19.7-50.2c-9.4-19.4-17.2-32-29.7-48.1   c-4-5.2-7.2-9.5-7.1-9.5c0.1-0.1,4.4,3,9.6,6.8l9.5,7l26.1-12.5c14.3-6.9,37.3-18,51-24.9l25-12.4l0.9-2.9c1.6-5,0.9-9.9-2.3-14   c-2.3-3-4.4-3.8-9.3-3.5c-3.3,0.2-5.6,0.8-9.5,2.4c-7.4,3-47,18-66.5,25.2c-28,10.4-33.9,12.8-55.3,23.5   c-49.6,24.8-85.8,50.1-101.8,71.2c-2.3,3-6,10.1-8.5,16.2c-1.4,3.3-7.3,9.3-12.7,12.8c-10.2,6.7-25.7,13.3-50.5,21.5   c-24.9,8.3-42.3,13.2-107.7,30.4c-74.9,19.8-106.7,29.3-133.4,39.8c-26.9,10.7-39.4,19.1-44.7,30.1c-1.3,2.6-2.6,6.2-2.9,7.8   c-1,4.7-0.7,12.4,0.5,17.6c4.5,18.8,22.2,37.7,42.5,45.4c6.8,2.6,12.8,3.6,20.1,3.4l6.6-0.2L371.5,9180z M859.9,8965.3   c39.8-17.8,62.4-28.1,76.2-34.8c7.1-3.4,15.5-7.1,18.6-8.2c7.7-2.8,8.3-3.1,10.7-6.4c4.5-5.9,5-12,1.7-18.8c-3-6.1-7.1-7.7-15.4-6   c-5.3,1.1-15.8,5.3-17.1,6.7c-0.6,0.6-1.9,1.3-3,1.5c-1.1,0.2-11.1,4.8-22.2,10.1c-18.7,9.1-56.5,26.9-77.1,36.4l-8.9,4.1l2.2,5.8   c1.9,5.4,4.5,15,5.4,20l0.3,2.2l1.8-0.8C834.2,8976.9,846.2,8971.5,859.9,8965.3z M843.4,8926.6c28.7-13.4,58.6-27.7,74.3-35.5   l11.2-5.5l1.6-3.1c3.8-7.6,0.3-18.7-6.4-20.2c-3-0.6-8,0.3-15.1,2.9c-2.8,1-15.6,7.1-28.6,13.6c-21.8,10.8-64.2,31.4-74.4,36.1   c-2.3,1.1-4.4,2.1-4.5,2.2c-0.2,0.1,0.7,1.3,2.1,2.7c3.5,3.7,7.5,8.8,10.9,14c1.7,2.6,3.4,4.6,3.8,4.5   C818.6,8938.2,830,8932.9,843.4,8926.6z"></path><path d="M788.3,9032.2c-8.1-5-18.6-10.1-25.3-12.1c-8.7-2.8-15.1-3.7-25.2-3.7c-13.2,0-18.4,0.9-50.4,8.5   c-11.1,2.7-20.3,4.8-20.5,4.6c-0.2-0.2,15.2-9.5,22.2-13.5c8-4.5,25.3-10.9,31.7-11.9c1.5-0.2,2.7-0.6,2.7-0.8   c0-0.8-11.5-14.1-26.2-30.3c-8.5-9.3-16.4-18.2-17.7-19.6l-2.2-2.5l2,1.4c9,6.2,24.5,17.4,29.3,21.3c7,5.6,20.2,18.7,24.5,24.5   l3.2,4.1h3.4c15.6,0.1,32.5,7,43.5,18c3.3,3.2,8.8,10.5,11.4,15.1C795.5,9036.4,794.5,9035.9,788.3,9032.2z"></path><path d="M345.7,8919.6c-9.7-1.3-18.5-4.5-22.8-8.5c-7.9-7.3-1.9-15.5,14.8-19.9c5.4-1.4,6.5-1.5,18-1.5c11.5,0,12.7,0.1,17.9,1.5   c10.1,2.7,15.7,6.1,17.7,10.5c1.5,3.4,0.7,6.1-2.8,9.3C381,8918,362.6,8921.7,345.7,8919.6z"></path></g></svg>