<svg xmlns="http://www.w3.org/2000/svg" xmlns:xlink="http://www.w3.org/1999/xlink" version="1.1" enable-background="new 0 0 100 100" xml:space="preserve" width="84" height="78"><rect id="backgroundrect" width="100%" height="100%" x="0" y="0" fill="none" stroke="none" class="" style=""/><g class="currentLayer" style=""><title>Layer 1</title><g id="svg_1" class=""><path d="M55.731001342773425,70.59499829864502 c0,-1.098 -0.4240000000000001,-2.14 -1.183,-2.947 c0.3210000000000001,-0.18600000000000005 0.6140000000000002,-0.3830000000000001 0.8930000000000002,-0.5840000000000002 c-0.08700000000000004,-0.138 -0.17600000000000005,-0.275 -0.24300000000000005,-0.4260000000000001 l-0.21000000000000005,-0.4740000000000001 c-0.4400000000000001,0.3300000000000001 -0.9490000000000002,0.6430000000000002 -1.522,0.935 l-0.7050000000000002,0.3580000000000001 l0.6260000000000002,0.4820000000000001 c0.8540000000000002,0.6590000000000003 1.3450000000000002,1.6270000000000002 1.3450000000000002,2.6550000000000002 c0,0.4700000000000001 -0.10300000000000002,0.931 -0.3050000000000001,1.372 l-0.18600000000000005,0.405 l0.3820000000000001,0.23 c0.3540000000000001,0.21400000000000005 0.513,0.6520000000000002 0.3790000000000001,1.043 c-0.12300000000000003,0.3570000000000001 -0.459,0.5980000000000002 -0.8370000000000002,0.5980000000000002 c-0.09700000000000006,0 -0.19400000000000006,-0.017000000000000008 -0.2880000000000001,-0.049000000000000016 c-0.23900000000000005,-0.08300000000000003 -0.3820000000000001,-0.25 -0.459,-0.3750000000000001 l-0.23700000000000004,-0.3870000000000001 l-0.4080000000000001,0.19900000000000007 c-1.307,0.6400000000000002 -2.769,0.451 -3.855,-0.4200000000000001 l-0.271,-0.21600000000000005 l-0.2970000000000001,0.17700000000000005 c-0.3540000000000001,0.21000000000000005 -0.7290000000000002,0.3810000000000001 -1.116,0.507 l-0.3580000000000001,0.11800000000000004 l0.014000000000000004,0.3770000000000001 c0.008000000000000004,0.18500000000000005 -0.017000000000000008,0.3570000000000001 -0.07800000000000003,0.527 l-0.21900000000000006,0.5820000000000002 l0.6150000000000002,0.08900000000000004 c0.05800000000000002,0.008000000000000004 0.11600000000000003,0.021000000000000008 0.17,0.039000000000000014 c0.462,0.15900000000000006 0.7080000000000002,0.6630000000000003 0.549,1.125 c-0.15500000000000005,0.4470000000000001 -0.6630000000000003,0.7070000000000002 -1.124,0.548 c-0.3820000000000001,-0.132 -0.6240000000000002,-0.507 -0.5890000000000002,-0.913 l0.05400000000000002,-0.6190000000000002 l-0.6160000000000002,0.08000000000000003 c-0.21900000000000006,0.02900000000000001 -0.4440000000000001,0.010000000000000004 -0.6440000000000002,-0.05800000000000002 c-0.5820000000000002,-0.201 -0.9650000000000002,-0.7540000000000002 -0.9520000000000002,-1.3760000000000001 l0.008000000000000004,-0.3760000000000001 l-0.3590000000000001,-0.11100000000000003 c-2.171,-0.6740000000000004 -3.6900000000000004,-2.525 -3.87,-4.7170000000000005 l-0.031000000000000014,-0.3740000000000001 l-0.3680000000000001,-0.07500000000000002 c-0.509,-0.10300000000000002 -0.996,-0.22500000000000006 -1.467,-0.3580000000000001 l-0.535,0.8860000000000002 c0.465,0.138 0.9440000000000002,0.266 1.4460000000000002,0.3760000000000001 c0.3310000000000001,2.324 1.932,4.273 4.197,5.104 c0.12000000000000002,0.8990000000000002 0.7310000000000002,1.6640000000000001 1.606,1.9660000000000002 c0.18300000000000005,0.06200000000000002 0.3730000000000001,0.10300000000000002 0.5680000000000002,0.11800000000000004 c0.133,0.6370000000000002 0.5890000000000002,1.173 1.227,1.3920000000000001 c0.19800000000000006,0.06800000000000003 0.405,0.10400000000000002 0.6130000000000002,0.10400000000000002 c0.805,0 1.521,-0.512 1.7810000000000001,-1.271 c0.3180000000000001,-0.923 -0.126,-1.928 -0.998,-2.327 c0.0010000000000000005,-0.008000000000000004 0.0010000000000000005,-0.016000000000000007 0.002000000000000001,-0.023000000000000013 c0.23500000000000001,-0.09100000000000005 0.467,-0.19600000000000006 0.6910000000000004,-0.3140000000000001 c1.242,0.8580000000000002 2.831,1.065 4.274,0.4960000000000001 c0.19900000000000007,0.202 0.4400000000000001,0.3540000000000001 0.7110000000000002,0.4460000000000001 c0.19800000000000006,0.06800000000000003 0.405,0.10400000000000002 0.6130000000000002,0.10400000000000002 c0.804,0 1.521,-0.512 1.782,-1.272 c0.23800000000000004,-0.6920000000000004 0.04400000000000002,-1.455 -0.462,-1.955 C55.648001342773455,71.55499829864502 55.731001342773425,71.07999829864502 55.731001342773425,70.59499829864502 z" id="svg_2"/><path d="M31.57700134277343,63.16499829864502 c-0.3390000000000002,-0.05800000000000002 -0.6780000000000004,-0.11400000000000003 -1.016,-0.17900000000000005 c0.031000000000000014,1.036 0.4720000000000001,2.027 1.266,2.9210000000000003 l0.549,-0.909 C31.917001342773432,64.41499829864502 31.64300134277343,63.79699829864502 31.57700134277343,63.16499829864502 z" id="svg_3"/><path d="M56.67100134277342,28.500998298645023 c0.06100000000000002,-0.16400000000000006 0.10400000000000002,-0.3330000000000002 0.132,-0.505 l0.1,-0.6300000000000002 c-0.6710000000000004,-1.8840000000000003 -1.5470000000000002,-3.571 -2.644,-5.082 c-0.7680000000000002,-1.059 -1.233,-2.243 -1.4260000000000002,-3.452 l-1.284,8.062 l-1.7160000000000002,4.659 l0.6590000000000003,0.937 l-1.117,0.7340000000000002 l1.117,0.804 h-1.5710000000000002 l-0.9450000000000002,2.564 c-0.513,1.389 0.19900000000000007,2.931 1.589,3.442 c0.3060000000000001,0.11300000000000003 0.6180000000000002,0.16600000000000006 0.927,0.16600000000000006 c1.091,0 2.116,-0.6710000000000004 2.516,-1.7550000000000003 l2.624,-7.122 l-0.3580000000000001,-1.854 l0.784,0.6970000000000004 L56.67100134277342,28.500998298645023 z" id="svg_4"/><path d="M84.00300134277344,47.21799829864502 c-0.6270000000000002,-1.505 -2.36,-2.214 -3.856,-1.588 l-5.2940000000000005,2.208 l-0.264,-2.901 l-1.479,-0.18500000000000005 l1.334,-1.409 l-0.7140000000000002,-7.859 l-0.12200000000000003,-1.3410000000000002 c-0.023000000000000013,-0.254 -0.08800000000000004,-0.4920000000000001 -0.171,-0.7210000000000002 c0.07600000000000003,-0.5840000000000002 0.09000000000000004,-1.184 0.017000000000000008,-1.794 c-0.17200000000000001,-1.44 -0.4210000000000001,-2.831 -0.7120000000000002,-4.193 l-2.365,-0.3340000000000002 l1.366,-0.8490000000000002 l-1.073,-0.804 l1.326,-1 c-0.5930000000000002,-2.033 -1.335,-3.9610000000000003 -2.212,-5.791 l1.034,0.281 l3.122,0.8490000000000002 l0.6650000000000003,1.795 l0.6210000000000002,-0.3770000000000001 l-0.28,1.299 l2.925,7.898 c0.401,1.082 1.425,1.7510000000000003 2.515,1.7510000000000003 c0.3100000000000001,0 0.6240000000000002,-0.05400000000000002 0.932,-0.16800000000000007 c1.389,-0.514 2.097,-2.057 1.5830000000000002,-3.4450000000000003 l-2.4,-6.48 l-1.432,0.261 l0.7600000000000002,-2.076 l-1.339,-3.614 c-0.3010000000000001,-0.812 -0.976,-1.429 -1.812,-1.6560000000000001 l-2.689,-0.7310000000000002 l-0.131,0.6080000000000002 l-2.115,-1.21 l0.010000000000000004,-0.006000000000000004 l-4.904,-1.3330000000000002 l-1.624,-0.4420000000000001 c-0.533,-0.4170000000000001 -1.115,-0.7490000000000002 -1.727,-0.998 l-1.03,0.7580000000000002 l-0.203,-1.134 c-1.932,-0.4080000000000001 -4.022,-0.03600000000000001 -5.746,1.215 c-2.388,1.733 -3.401,4.652 -2.827,7.363 l1.581,0.3060000000000001 l-0.804,0.7150000000000002 l1.609,0.5860000000000002 l-1.287,0.9560000000000002 c0.041000000000000016,0.06100000000000002 0.07600000000000003,0.12400000000000003 0.12000000000000002,0.18400000000000005 c1.984,2.7350000000000003 3.277,6.004 3.938,9.95 l2.681,0.7030000000000002 l-2.576,0.022000000000000013 c0.042000000000000016,0.2880000000000001 0.09000000000000004,0.5690000000000002 0.125,0.8640000000000002 c0.003000000000000002,0.021000000000000008 0.008000000000000004,0.041000000000000016 0.010000000000000004,0.06200000000000002 c-0.06900000000000003,0.19200000000000006 -0.12100000000000002,0.3940000000000002 -0.15000000000000005,0.6040000000000002 l-0.18100000000000005,1.3410000000000002 l-1.496,11.089 l1.719,0.7190000000000002 l-1.228,0.3570000000000001 v1.162 l-0.7420000000000002,-0.3780000000000001 l-0.4320000000000001,3.198 c0.4450000000000001,0.6860000000000004 0.782,1.456 0.977,2.293 c0.049000000000000016,0.20900000000000005 0.08500000000000003,0.4190000000000001 0.11500000000000003,0.6290000000000002 c0.521,0.405 1.153,0.6290000000000002 1.802,0.6290000000000002 c0.256,0 0.513,-0.033000000000000015 0.7650000000000002,-0.101 l2.382,-0.6400000000000002 l0.4950000000000001,-1.162 l1.213,0.7030000000000002 l1.899,-0.51 c1.573,-0.4230000000000001 2.5060000000000002,-2.041 2.084,-3.613 c-0.4220000000000001,-1.573 -2.043,-2.504 -3.613,-2.084 l-1.7080000000000002,0.459 l0.6630000000000003,-4.917 l-1.185,-1.209 l1.419,-0.521 l0.16700000000000007,-1.237 l0.10900000000000003,-0.811 c0.6670000000000003,0.203 1.37,0.3160000000000001 2.094,0.3160000000000001 c0.2870000000000001,0 0.5770000000000002,-0.017000000000000008 0.8700000000000002,-0.05200000000000002 c0.3580000000000001,-0.04300000000000002 0.7030000000000002,-0.12000000000000002 1.042,-0.21100000000000005 l0.07400000000000002,0.8130000000000002 l0.509,5.595 l1.179,1.292 h-1.062 l0.4730000000000001,5.208 c0.08500000000000003,0.936 0.6100000000000002,1.774 1.415,2.259 c0.15000000000000005,0.09100000000000005 0.3150000000000001,0.14300000000000004 0.4760000000000001,0.20500000000000004 l0.06000000000000002,-0.030000000000000013 c0.8570000000000002,-0.4320000000000001 1.808,-0.4760000000000001 2.654,-0.2 l4.027,-1.6790000000000005 v-1.727 l1.095,0.523 v-1.4300000000000002 l1.8970000000000002,1.3860000000000001 l1.451,-0.6050000000000002 C83.92000134277345,50.44899829864502 84.62900134277345,48.72099829864502 84.00300134277344,47.21799829864502 z" id="svg_5"/><path d="M29.908001342773446,62.844998298645024 c-0.6420000000000002,-0.132 -1.286,-0.256 -1.9220000000000002,-0.4140000000000001 c-1.6870000000000005,-0.4180000000000001 -3.088,-1.4020000000000001 -4.05,-2.7 l-4.5600000000000005,2.142 H2.681001342773442 c-1.481,0 -2.681,1.201 -2.681,2.6820000000000004 s1.2,2.6820000000000004 2.681,2.6820000000000004 h17.294 c0.3940000000000002,0 0.783,-0.08700000000000004 1.1400000000000001,-0.255 l8.75,-4.111 C29.88100134277343,62.863998298645015 29.89300134277343,62.85299829864502 29.908001342773446,62.844998298645024 z" id="svg_6"/><circle cx="16.623001098632812" cy="55.77499866485596" r="5.809000015258789" id="svg_7"/><polygon points="60.84199523925781,60.081997871398926 59.49699401855469,59.13499927520752 60.08599853515625,60.46299457550049 " id="svg_8"/><path d="M79.33100134277345,61.62699829864502 l-7.946,0.9440000000000002 l-10.049,5.071 l1.584,1.114 c0.4990000000000001,0.3520000000000001 1.093,0.537 1.697,0.537 c0.11500000000000003,0 0.231,-0.007000000000000004 0.3480000000000002,-0.021000000000000008 L80.02600134277344,67.48399829864502 c1.617,-0.19200000000000006 2.773,-1.6590000000000005 2.581,-3.276 C82.41500134277345,62.58899829864502 80.94300134277344,61.43499829864501 79.33100134277345,61.62699829864502 z" id="svg_9"/><path d="M39.606001342773425,61.05299829864502 l-8.573,-10.771 c0.5810000000000002,0.18800000000000006 1.115,0.54 1.524,1.054 l7.468,9.383000000000001 c0.6050000000000002,0.7610000000000002 0.8160000000000002,1.734 0.6280000000000002,2.6510000000000002 c0.3790000000000001,-0.005000000000000002 0.7590000000000002,-0.020000000000000007 1.139,-0.034000000000000016 c-0.031000000000000014,-0.3170000000000001 -0.05900000000000002,-0.7550000000000002 -0.05300000000000002,-1.2730000000000001 c0.010000000000000004,-0.268 -0.05400000000000002,-0.3530000000000001 -0.14800000000000005,-0.6000000000000002 c-0.101,-0.22400000000000006 -0.263,-0.511 -0.3930000000000001,-0.8450000000000002 c-0.134,-0.3350000000000002 -0.25,-0.6950000000000004 -0.3200000000000001,-1.09 c-0.040000000000000015,-0.22400000000000006 -0.06200000000000002,-0.3530000000000001 -0.08200000000000003,-0.5730000000000002 c-0.012000000000000004,-0.22000000000000006 -0.019000000000000006,-0.4440000000000001 0.010000000000000004,-0.6820000000000004 c0.055000000000000014,-0.4690000000000001 0.264,-0.982 0.5720000000000002,-1.332 c0.2960000000000001,-0.3590000000000001 0.6220000000000002,-0.5850000000000002 0.8470000000000002,-0.7590000000000002 c0.12300000000000003,-0.08900000000000004 0.202,-0.16600000000000006 0.2860000000000001,-0.232 c0.030000000000000013,-0.034000000000000016 0.042000000000000016,-0.013000000000000006 0.08500000000000003,-0.07100000000000002 l0.06300000000000003,-0.09800000000000006 c0,0 0.042000000000000016,-0.07900000000000003 0.009000000000000006,-0.002000000000000001 l0.012000000000000004,-0.022000000000000013 c0.07400000000000002,-0.11300000000000003 0.12000000000000002,-0.3320000000000002 0.11400000000000003,-0.554 c-0.015000000000000006,-0.451 -0.126,-0.8890000000000002 -0.201,-1.188 c-0.012000000000000004,-0.04400000000000002 -0.022000000000000013,-0.07900000000000003 -0.032000000000000015,-0.11800000000000004 c-0.3250000000000001,0.11800000000000004 -0.6720000000000004,0.19000000000000006 -1.038,0.19000000000000006 c-1.522,0 -2.781,-1.117 -3.009,-2.575 c-0.05800000000000002,0.005000000000000002 -0.11500000000000003,0.018000000000000006 -0.17400000000000004,0.018000000000000006 c-0.253,0 -0.4940000000000001,-0.047000000000000014 -0.7160000000000002,-0.133 c-0.555,-0.21500000000000005 -0.987,-0.6730000000000004 -1.173,-1.243 c-0.03700000000000001,-0.11400000000000003 -0.06400000000000003,-0.233 -0.08100000000000003,-0.3550000000000001 c-1.702,-0.16900000000000007 -3.386,-0.456 -5.045,-0.8670000000000002 c-0.25,-0.06200000000000002 -0.501,-0.10600000000000002 -0.7510000000000002,-0.138 c-0.08000000000000003,-0.010000000000000004 -0.16000000000000006,-0.014000000000000004 -0.24100000000000005,-0.022000000000000013 c-0.171,-0.016000000000000007 -0.3410000000000002,-0.028000000000000008 -0.51,-0.031000000000000014 c-0.03800000000000001,-0.0010000000000000005 -0.07700000000000003,-0.007000000000000004 -0.11500000000000003,-0.007000000000000004 c-0.03600000000000001,0 -0.07,0.008000000000000004 -0.10600000000000002,0.009000000000000006 c-0.3310000000000001,0.005000000000000002 -0.6600000000000003,0.02900000000000001 -0.982,0.08300000000000003 c-0.031000000000000014,0.005000000000000002 -0.06000000000000002,0.013000000000000006 -0.09100000000000005,0.019000000000000006 c-0.3110000000000001,0.056000000000000015 -0.6150000000000002,0.135 -0.912,0.234 c-0.042000000000000016,0.014000000000000004 -0.08600000000000003,0.02500000000000001 -0.128,0.040000000000000015 c-0.3010000000000001,0.10600000000000002 -0.5930000000000002,0.23700000000000004 -0.8750000000000002,0.3850000000000001 c-0.055000000000000014,0.02900000000000001 -0.11000000000000003,0.05900000000000002 -0.16500000000000006,0.08900000000000004 c-0.278,0.15500000000000005 -0.546,0.3270000000000001 -0.799,0.52 c-0.03700000000000001,0.028000000000000008 -0.07100000000000002,0.05900000000000002 -0.10700000000000003,0.08800000000000004 c-0.24500000000000005,0.19500000000000006 -0.4780000000000001,0.405 -0.6940000000000004,0.6330000000000002 c-0.020000000000000007,0.021000000000000008 -0.041000000000000016,0.039000000000000014 -0.06000000000000002,0.06000000000000002 c-0.22100000000000006,0.23800000000000004 -0.4200000000000001,0.4980000000000001 -0.6050000000000002,0.7690000000000002 c-0.035,0.05100000000000002 -0.07,0.10200000000000002 -0.10400000000000002,0.15400000000000005 c-0.17500000000000004,0.272 -0.3320000000000002,0.557 -0.467,0.8570000000000002 c-0.024000000000000007,0.05300000000000002 -0.04400000000000002,0.10800000000000003 -0.06700000000000003,0.16100000000000006 c-0.134,0.3190000000000001 -0.253,0.6470000000000002 -0.3380000000000002,0.994 c-0.8900000000000002,3.5940000000000003 1.302,7.228 4.896,8.118 c1.811,0.4480000000000001 3.641,0.782 5.484,1.021 l-6.068,-7.623 c-0.4090000000000001,-0.514 -0.6330000000000002,-1.115 -0.6860000000000004,-1.723 l7.412,9.313 l-4.622,7.654 c-0.7650000000000002,1.268 -0.3580000000000001,2.916 0.91,3.681 c0.4330000000000001,0.262 0.911,0.3870000000000001 1.383,0.3870000000000001 c0.908,0 1.794,-0.462 2.298,-1.296 l5.586,-9.251 C40.38300134277344,63.148998298645026 40.30400134277343,61.92999829864502 39.606001342773425,61.05299829864502 zM37.94500134277342,56.723998298645014 c-0.136,0 -0.24600000000000005,-0.11000000000000003 -0.24600000000000005,-0.24600000000000005 c0,-0.136 0.11000000000000003,-0.24600000000000005 0.24600000000000005,-0.24600000000000005 c0.136,0 0.24600000000000005,0.11000000000000003 0.24600000000000005,0.24600000000000005 C38.19100134277343,56.613998298645015 38.08100134277345,56.723998298645014 37.94500134277342,56.723998298645014 zM38.594001342773424,53.83299829864502 c0.19200000000000006,0 0.3480000000000002,0.21700000000000005 0.3480000000000002,0.4850000000000001 c0,0.268 -0.15600000000000006,0.4850000000000001 -0.3480000000000002,0.4850000000000001 c-0.004000000000000002,0 -0.008000000000000004,-0.003000000000000002 -0.013000000000000006,-0.004000000000000002 c0.005000000000000002,0.03600000000000001 0.013000000000000006,0.07 0.013000000000000006,0.10900000000000003 c0,0.256 -0.11900000000000004,0.464 -0.267,0.464 c-0.14700000000000005,0 -0.267,-0.20800000000000005 -0.267,-0.464 c0,-0.21900000000000006 0.08900000000000004,-0.3950000000000002 0.20700000000000005,-0.4430000000000001 c-0.011000000000000006,-0.047000000000000014 -0.021000000000000008,-0.09500000000000006 -0.021000000000000008,-0.14700000000000005 C38.24600134277344,54.04999829864502 38.402001342773445,53.83299829864502 38.594001342773424,53.83299829864502 zM37.94500134277342,52.05499829864502 c0.275,0 0.4990000000000001,0.22300000000000006 0.4990000000000001,0.4990000000000001 c0,0.275 -0.22300000000000006,0.4990000000000001 -0.4990000000000001,0.4990000000000001 c-0.275,0 -0.4990000000000001,-0.22300000000000006 -0.4990000000000001,-0.4990000000000001 C37.44600134277343,52.27799829864502 37.670001342773446,52.05499829864502 37.94500134277342,52.05499829864502 z" id="svg_10"/><path d="M75.49600134277344,56.589998298645014 c-0.7340000000000002,-1.455 -2.507,-2.037 -3.962,-1.304 l-11.71,5.909 l-4.709,-10.626 c-0.5680000000000002,-1.283 -1.94,-1.955 -3.2640000000000002,-1.6940000000000004 c-0.06000000000000002,-0.012000000000000004 -0.11500000000000003,-0.035 -0.17500000000000004,-0.04500000000000002 c-0.002000000000000001,0 -0.004000000000000002,0 -0.006000000000000004,-0.0010000000000000005 c-0.3320000000000002,-0.057000000000000016 -0.6720000000000004,-0.08100000000000003 -1.015,-0.08600000000000003 c-0.03600000000000001,-0.0010000000000000005 -0.07,-0.009000000000000006 -0.10500000000000002,-0.009000000000000006 c-0.028000000000000008,0 -0.056000000000000015,0.004000000000000002 -0.08400000000000003,0.005000000000000002 c-0.16200000000000006,0.002000000000000001 -0.3250000000000001,0.014000000000000004 -0.4880000000000001,0.028000000000000008 c-0.07800000000000003,0.007000000000000004 -0.15600000000000006,0.009000000000000006 -0.234,0.018000000000000006 c-0.24200000000000005,0.02900000000000001 -0.4850000000000001,0.07 -0.7270000000000002,0.127 c-0.3880000000000001,0.09100000000000005 -0.775,0.17500000000000004 -1.162,0.254 c0.048000000000000015,0.136 0.08800000000000004,0.276 0.11600000000000003,0.4200000000000001 s0.04300000000000002,0.2930000000000001 0.04300000000000002,0.4450000000000001 v0 c0,0.17900000000000005 -0.018000000000000006,0.3530000000000001 -0.05300000000000002,0.522 c-0.034000000000000016,0.16900000000000007 -0.08500000000000003,0.3310000000000001 -0.15100000000000005,0.4860000000000001 c-0.131,0.3100000000000001 -0.3210000000000001,0.5890000000000002 -0.555,0.8230000000000002 c-0.16700000000000007,0.16700000000000007 -0.3630000000000001,0.3010000000000001 -0.5700000000000002,0.4180000000000001 c0.002000000000000001,0.002000000000000001 0.009000000000000006,0.008000000000000004 0.009000000000000006,0.008000000000000004 c1.48,1.475 0.3630000000000001,3.6870000000000003 -0.10600000000000002,4.19 s0.6370000000000002,1.9100000000000001 0.8710000000000002,2.447 s0.034000000000000016,1.441 -1.207,0 c-1.24,-1.441 -1.8770000000000002,-3.3850000000000002 -1.5870000000000002,-3.653 c0.2900000000000001,-0.268 1.084,-0.6700000000000004 1.02,-1.274 c-0.06400000000000003,-0.6030000000000002 -1.142,-0.972 -1.008,-1.274 c0.028000000000000008,-0.06200000000000002 0.07700000000000003,-0.12300000000000003 0.13,-0.18400000000000005 c-0.18400000000000005,-0.048000000000000015 -0.3600000000000001,-0.11300000000000003 -0.527,-0.19600000000000006 c-0.3050000000000001,0.6400000000000002 -0.8250000000000002,1.158 -1.467,1.458 c0.019000000000000006,0.017000000000000008 0.03600000000000001,0.030000000000000013 0.056000000000000015,0.049000000000000016 c0.23500000000000001,0.22700000000000006 0.5740000000000002,0.561 0.8220000000000002,1.134 c0.11700000000000003,0.2860000000000001 0.23600000000000004,0.6550000000000002 0.136,1.125 l-0.018000000000000006,0.08700000000000004 l-0.035,0.10300000000000002 l-0.035,0.11100000000000003 c-0.027000000000000014,0.07900000000000003 -0.10700000000000003,0.22900000000000006 -0.16500000000000006,0.3270000000000001 c-0.11100000000000003,0.18400000000000005 -0.25,0.3470000000000002 -0.3710000000000001,0.4800000000000001 c-0.254,0.276 -0.461,0.4820000000000001 -0.5880000000000002,0.6740000000000004 c-0.127,0.19000000000000006 -0.18600000000000005,0.3550000000000001 -0.21200000000000005,0.5830000000000002 c-0.017000000000000008,0.11200000000000003 -0.017000000000000008,0.23900000000000005 -0.015000000000000006,0.3690000000000001 l0.03600000000000001,0.465 c0.032000000000000015,0.2900000000000001 0.07600000000000003,0.5930000000000002 0.138,0.8870000000000002 c0.06200000000000002,0.2960000000000001 0.136,0.6020000000000002 0.19200000000000006,0.9620000000000002 c0.07300000000000002,0.3330000000000002 0.024000000000000007,0.8390000000000002 -0.10600000000000002,1.08 c-0.17200000000000001,0.4440000000000001 -0.3440000000000002,0.811 -0.4850000000000001,1.088 c1.275,-0.055000000000000014 2.553,-0.14 3.8360000000000003,-0.2910000000000001 c0.04400000000000002,-0.005000000000000002 0.08800000000000004,-0.014000000000000004 0.131,-0.019000000000000006 c-0.032000000000000015,-0.042000000000000016 -0.06000000000000002,-0.08800000000000004 -0.06000000000000002,-0.14500000000000005 c0,-0.136 0.11000000000000003,-0.24600000000000005 0.24600000000000005,-0.24600000000000005 c0.136,0 0.24600000000000005,0.11000000000000003 0.24600000000000005,0.24600000000000005 c0,0.034000000000000016 -0.023000000000000013,0.057000000000000016 -0.03600000000000001,0.08700000000000004 c1.842,-0.23600000000000004 3.6900000000000004,-0.557 5.543,-0.991 c0.3220000000000001,-0.07500000000000002 0.6280000000000002,-0.18000000000000005 0.927,-0.2970000000000001 l-3.1630000000000003,-7.135 c-0.2880000000000001,-0.6500000000000002 -0.3590000000000001,-1.3410000000000002 -0.24800000000000005,-1.9929999999999999 c0.039000000000000014,0.14100000000000001 0.07700000000000003,0.2820000000000001 0.138,0.4200000000000001 l5.966,13.461 c0.3270000000000001,0.7380000000000002 0.9430000000000002,1.311 1.7040000000000002,1.582 c0.3210000000000001,0.11500000000000003 0.6570000000000003,0.17200000000000001 0.992,0.17200000000000001 c0.457,0 0.912,-0.10600000000000002 1.3290000000000002,-0.3160000000000001 l14.479,-7.307 C75.64600134277345,59.81899829864501 76.23000134277345,58.04499829864503 75.49600134277344,56.589998298645014 zM45.82400134277344,60.04199829864503 c-0.136,0 -0.24600000000000005,-0.11000000000000003 -0.24600000000000005,-0.24600000000000005 c0,-0.136 0.11000000000000003,-0.24600000000000005 0.24600000000000005,-0.24600000000000005 c0.136,0 0.24600000000000005,0.11000000000000003 0.24600000000000005,0.24600000000000005 C46.07000134277342,59.93199829864501 45.96000134277344,60.04199829864503 45.82400134277344,60.04199829864503 zM47.24800134277342,61.94599829864502 c-0.2,0 -0.3620000000000001,-0.16200000000000006 -0.3620000000000001,-0.3620000000000001 c0,-0.2 0.16200000000000006,-0.3620000000000001 0.3620000000000001,-0.3620000000000001 c0.2,0 0.3620000000000001,0.16200000000000006 0.3620000000000001,0.3620000000000001 C47.610001342773444,61.78399829864502 47.44800134277344,61.94599829864502 47.24800134277342,61.94599829864502 z" id="svg_11"/><path d="M50.491001342773444,13.78599829864502 c-0.5870000000000002,0 -1.064,0.4770000000000001 -1.064,1.064 s0.4770000000000001,1.064 1.064,1.064 s1.064,-0.4770000000000001 1.064,-1.064 S51.07800134277343,13.78599829864502 50.491001342773444,13.78599829864502 zM50.491001342773444,15.41399829864502 c-0.3120000000000001,0 -0.5640000000000002,-0.253 -0.5640000000000002,-0.5640000000000002 s0.253,-0.5640000000000002 0.5640000000000002,-0.5640000000000002 s0.5640000000000002,0.253 0.5640000000000002,0.5640000000000002 S50.80200134277345,15.41399829864502 50.491001342773444,15.41399829864502 z" id="svg_12"/><path d="M50.01200134277343,22.945998298645023 c-0.4750000000000001,0 -0.8620000000000002,0.3870000000000001 -0.8620000000000002,0.8620000000000002 c0,0.4750000000000001 0.3870000000000001,0.8620000000000002 0.8620000000000002,0.8620000000000002 c0.4750000000000001,0 0.8620000000000002,-0.3870000000000001 0.8620000000000002,-0.8620000000000002 C50.874001342773454,23.332998298645016 50.48800134277343,22.945998298645023 50.01200134277343,22.945998298645023 zM50.01200134277343,24.170998298645017 c-0.2,0 -0.3620000000000001,-0.16200000000000006 -0.3620000000000001,-0.3620000000000001 c0,-0.05000000000000002 0.010000000000000004,-0.09800000000000006 0.028000000000000008,-0.14100000000000001 c0.055000000000000014,-0.13 0.18400000000000005,-0.22100000000000006 0.3340000000000002,-0.22100000000000006 c0.15000000000000005,0 0.279,0.09100000000000005 0.3340000000000002,0.22100000000000006 c0.018000000000000006,0.04300000000000002 0.028000000000000008,0.09100000000000005 0.028000000000000008,0.14100000000000001 C50.374001342773454,24.008998298645018 50.21200134277345,24.170998298645017 50.01200134277343,24.170998298645017 z" id="svg_13"/><path d="M51.82400134277344,17.73799829864502 c0.4110000000000001,0 0.7460000000000002,-0.3350000000000002 0.7460000000000002,-0.7460000000000002 c0,-0.4110000000000001 -0.3350000000000002,-0.7460000000000002 -0.7460000000000002,-0.7460000000000002 c-0.4110000000000001,0 -0.7460000000000002,0.3350000000000002 -0.7460000000000002,0.7460000000000002 C51.07800134277343,17.40399829864502 51.41300134277344,17.73799829864502 51.82400134277344,17.73799829864502 zM51.650001342773436,16.81899829864502 c0.04400000000000002,-0.04400000000000002 0.10600000000000002,-0.07200000000000002 0.17400000000000004,-0.07200000000000002 c0.136,0 0.24600000000000005,0.11000000000000003 0.24600000000000005,0.24600000000000005 c0,0.136 -0.11000000000000003,0.24600000000000005 -0.24600000000000005,0.24600000000000005 c-0.06800000000000003,0 -0.129,-0.028000000000000008 -0.17400000000000004,-0.07200000000000002 s-0.07200000000000002,-0.10600000000000002 -0.07200000000000002,-0.17400000000000004 C51.57800134277343,16.92399829864502 51.606001342773425,16.86299829864502 51.650001342773436,16.81899829864502 z" id="svg_14"/><path d="M49.759001342773445,22.073998298645023 c0.6170000000000002,0 1.064,-0.6850000000000004 1.064,-1.6280000000000001 c0,-0.14700000000000005 -0.014000000000000004,-0.2930000000000001 -0.042000000000000016,-0.4430000000000001 c0.136,-0.278 0.20900000000000005,-0.6170000000000002 0.20900000000000005,-0.979 c0,-0.9440000000000002 -0.4480000000000001,-1.6280000000000001 -1.064,-1.6280000000000001 s-1.064,0.6850000000000004 -1.064,1.6280000000000001 c0,0.14700000000000005 0.014000000000000004,0.2930000000000001 0.042000000000000016,0.4430000000000001 c-0.136,0.278 -0.20900000000000005,0.6170000000000002 -0.20900000000000005,0.979 C48.69500134277342,21.38899829864502 49.14300134277343,22.073998298645023 49.759001342773445,22.073998298645023 zM49.43500134277343,19.546998298645022 c-0.042000000000000016,-0.15800000000000006 -0.07300000000000002,-0.3310000000000001 -0.07300000000000002,-0.523 c0,-0.6230000000000002 0.253,-1.1280000000000001 0.5640000000000002,-1.1280000000000001 s0.5640000000000002,0.505 0.5640000000000002,1.1280000000000001 c0,0.3770000000000001 -0.09800000000000006,0.6940000000000004 -0.24000000000000005,0.8990000000000002 c0.042000000000000016,0.15800000000000006 0.07300000000000002,0.3310000000000001 0.07300000000000002,0.523 c0,0.6230000000000002 -0.253,1.1280000000000001 -0.5640000000000002,1.1280000000000001 s-0.5640000000000002,-0.505 -0.5640000000000002,-1.1280000000000001 C49.19500134277342,20.06899829864502 49.29300134277344,19.75199829864502 49.43500134277343,19.546998298645022 z" id="svg_15"/><path d="M47.77400134277343,22.612998298645017 c0.4110000000000001,0 0.7460000000000002,-0.3350000000000002 0.7460000000000002,-0.7460000000000002 c0,-0.4110000000000001 -0.3350000000000002,-0.7460000000000002 -0.7460000000000002,-0.7460000000000002 c-0.4110000000000001,0 -0.7460000000000002,0.3350000000000002 -0.7460000000000002,0.7460000000000002 C47.02800134277345,22.27899829864502 47.36300134277343,22.612998298645017 47.77400134277343,22.612998298645017 zM47.60000134277345,21.69399829864502 c0.04400000000000002,-0.04400000000000002 0.10600000000000002,-0.07200000000000002 0.17400000000000004,-0.07200000000000002 c0.136,0 0.24600000000000005,0.11000000000000003 0.24600000000000005,0.24600000000000005 c0,0.136 -0.11000000000000003,0.24600000000000005 -0.24600000000000005,0.24600000000000005 c-0.06800000000000003,0 -0.129,-0.028000000000000008 -0.17400000000000004,-0.07200000000000002 s-0.07200000000000002,-0.10600000000000002 -0.07200000000000002,-0.17400000000000004 C47.52800134277345,21.798998298645017 47.55600134277344,21.737998298645017 47.60000134277345,21.69399829864502 z" id="svg_16"/><path d="M49.44100134277343,8.868998298645021 l0.3400000000000002,1.6520000000000001 c0.262,0.18900000000000006 0.54,0.3550000000000001 0.8330000000000002,0.4990000000000001 c-0.02500000000000001,0.17800000000000005 -0.042000000000000016,0.3700000000000001 -0.042000000000000016,0.5990000000000002 c0,1.29 0.791,1.867 1.5750000000000002,1.867 c0.2900000000000001,0 0.5670000000000002,-0.08100000000000003 0.782,-0.22800000000000006 c0.3130000000000001,-0.21500000000000005 0.527,-0.5980000000000002 0.5880000000000002,-1.051 c0.028000000000000008,-0.20600000000000004 0.014000000000000004,-0.4090000000000001 -0.021000000000000008,-0.6050000000000002 c2.824,-0.15600000000000006 5.108,-2.323 5.44,-5.096 l-0.6460000000000002,-0.253 l0.3350000000000002,-0.3160000000000001 l-0.3350000000000002,-0.6220000000000002 l0.5660000000000002,-0.7050000000000002 c-0.4930000000000001,-2.349 -2.406,-4.1690000000000005 -4.799,-4.536 l-0.8850000000000002,0.549 v-0.6230000000000002 c-3.208,0 -5.809,2.601 -5.809,5.809 c0,1.3800000000000001 0.4840000000000001,2.6470000000000002 1.288,3.644 L49.44100134277343,8.868998298645021 zM52.18900134277345,9.628998298645019 c0.5810000000000002,-0.536 0.52,-0.8610000000000002 0.982,-1.073 c0,0 0.021000000000000008,-0.011000000000000006 0.05300000000000002,-0.027000000000000014 c0.010000000000000004,-0.005000000000000002 0.024000000000000007,-0.012000000000000004 0.03600000000000001,-0.018000000000000006 c0.03600000000000001,-0.018000000000000006 0.08100000000000003,-0.039000000000000014 0.136,-0.06400000000000003 c0.018000000000000006,-0.008000000000000004 0.033000000000000015,-0.015000000000000006 0.05200000000000002,-0.024000000000000007 c0.07300000000000002,-0.033000000000000015 0.15600000000000006,-0.06700000000000003 0.24900000000000005,-0.10300000000000002 c0.020000000000000007,-0.008000000000000004 0.041000000000000016,-0.015000000000000006 0.06100000000000002,-0.022000000000000013 c0.07600000000000003,-0.028000000000000008 0.15600000000000006,-0.055000000000000014 0.23900000000000005,-0.08000000000000003 c0.030000000000000013,-0.009000000000000006 0.06000000000000002,-0.018000000000000006 0.09000000000000004,-0.026000000000000013 c0.10700000000000003,-0.02900000000000001 0.21600000000000005,-0.056000000000000015 0.3230000000000001,-0.07100000000000002 c0.08500000000000003,-0.012000000000000004 0.16900000000000007,-0.020000000000000007 0.24900000000000005,-0.020000000000000007 c0.013000000000000006,0 0.023000000000000013,0.006000000000000004 0.03600000000000001,0.006000000000000004 c0.08000000000000003,0.002000000000000001 0.15100000000000005,0.020000000000000007 0.22200000000000006,0.039000000000000014 c0.03700000000000001,0.010000000000000004 0.07700000000000003,0.013000000000000006 0.11100000000000003,0.028000000000000008 c0.09800000000000006,0.04400000000000002 0.18300000000000005,0.10700000000000003 0.24400000000000005,0.20400000000000001 c0.4470000000000001,0.7150000000000002 -0.6270000000000002,1.073 -1.453,1.207 c-0.6200000000000002,0.101 -1.126,0.6650000000000003 -1.171,1.1400000000000001 c-0.015000000000000006,0.15800000000000006 0.021000000000000008,0.3070000000000001 0.12100000000000002,0.4240000000000001 c0.401,0.4720000000000001 0.3320000000000002,1.385 -0.125,1.6980000000000004 c-0.06100000000000002,0.042000000000000016 -0.134,0.07400000000000002 -0.21400000000000005,0.09800000000000006 c-0.026000000000000013,0.008000000000000004 -0.05400000000000002,0.009000000000000006 -0.08100000000000003,0.015000000000000006 c-0.057000000000000016,0.012000000000000004 -0.11400000000000003,0.022000000000000013 -0.17500000000000004,0.024000000000000007 c-0.010000000000000004,0 -0.019000000000000006,0.004000000000000002 -0.02900000000000001,0.004000000000000002 c-0.06400000000000003,0 -0.129,-0.007000000000000004 -0.19500000000000006,-0.019000000000000006 c-0.008000000000000004,-0.002000000000000001 -0.016000000000000007,-0.005000000000000002 -0.024000000000000007,-0.007000000000000004 c-0.07,-0.015000000000000006 -0.139,-0.039000000000000014 -0.20700000000000005,-0.07100000000000002 c-0.022000000000000013,-0.010000000000000004 -0.04300000000000002,-0.021000000000000008 -0.06400000000000003,-0.033000000000000015 c-0.06000000000000002,-0.033000000000000015 -0.11800000000000004,-0.07400000000000002 -0.17200000000000001,-0.12200000000000003 c-0.014000000000000004,-0.013000000000000006 -0.030000000000000013,-0.023000000000000013 -0.04400000000000002,-0.03600000000000001 c-0.06500000000000003,-0.06400000000000003 -0.12300000000000003,-0.14100000000000001 -0.17400000000000004,-0.23 c-0.012000000000000004,-0.021000000000000008 -0.021000000000000008,-0.04600000000000002 -0.032000000000000015,-0.06800000000000003 c-0.03700000000000001,-0.07600000000000003 -0.06800000000000003,-0.16000000000000006 -0.09300000000000005,-0.253 c-0.009000000000000006,-0.034000000000000016 -0.018000000000000006,-0.06700000000000003 -0.026000000000000013,-0.10300000000000002 c-0.026000000000000013,-0.128 -0.04400000000000002,-0.265 -0.04400000000000002,-0.4230000000000001 C51.07200134277343,10.209998298645019 51.608001342773434,10.16499829864502 52.18900134277345,9.628998298645019 z" id="svg_17"/></g></g></svg>