<svg xmlns="http://www.w3.org/2000/svg" xmlns:xlink="http://www.w3.org/1999/xlink" viewBox="0 0 250 250" version="1.1" xml:space="preserve" style="" x="0px" y="0px" fill-rule="evenodd" clip-rule="evenodd" fill="white" stroke-linejoin="round" stroke-miterlimit="1.41421"><g transform="matrix(1,0,0,1,-1200,-2685)"><g transform="matrix(1,0,0,1,0,2685)"><rect x="1200" y="0" width="250" height="250" style="" fill="none"></rect><g transform="matrix(0.998251,0,0,0.998251,2.32317,-2676.7)"><path d="M1219.85,2791.8L1242.84,2791.8L1242.84,2805.27C1242.84,2805.53 1242.85,2805.8 1242.88,2806.06C1242.94,2806.73 1243.09,2807.39 1243.32,2808.03C1243.85,2809.49 1244.79,2810.8 1246.02,2811.76C1246.76,2812.34 1247.6,2812.79 1248.5,2813.08C1249.14,2813.29 1249.81,2813.43 1250.48,2813.48C1250.68,2813.49 1250.87,2813.5 1251.07,2813.5C1254.49,2813.5 1257.9,2813.54 1261.32,2813.5C1261.66,2813.49 1261.99,2813.46 1262.33,2813.41C1262.93,2813.32 1263.52,2813.16 1264.09,2812.95C1265.09,2812.56 1266.02,2811.97 1266.8,2811.22C1267.78,2810.29 1268.53,2809.12 1268.95,2807.84C1269.14,2807.26 1269.27,2806.67 1269.33,2806.06C1269.35,2805.8 1269.36,2805.53 1269.37,2805.27L1269.37,2791.8L1380.63,2791.8L1380.63,2805.27C1380.64,2805.53 1380.65,2805.8 1380.67,2806.06C1380.73,2806.67 1380.86,2807.26 1381.05,2807.84C1381.48,2809.12 1382.22,2810.29 1383.2,2811.22C1384.03,2812.02 1385.02,2812.63 1386.11,2813.02C1386.74,2813.24 1387.4,2813.39 1388.07,2813.46C1388.33,2813.49 1388.6,2813.5 1388.87,2813.5C1392.28,2813.5 1395.7,2813.54 1399.11,2813.5C1399.45,2813.49 1399.79,2813.46 1400.13,2813.41C1400.73,2813.32 1401.32,2813.16 1401.88,2812.95C1403.33,2812.39 1404.62,2811.41 1405.54,2810.16C1406.06,2809.45 1406.47,2808.67 1406.75,2807.84C1406.94,2807.26 1407.06,2806.66 1407.12,2806.06C1407.15,2805.8 1407.16,2805.53 1407.16,2805.27L1407.16,2791.8L1430.14,2791.8C1430.22,2821.67 1430.17,2851.53 1430,2881.4C1429.99,2881.86 1429.96,2882.32 1429.9,2882.78C1429.79,2883.67 1429.58,2884.55 1429.27,2885.39C1428.47,2887.58 1427.02,2889.51 1425.16,2890.91C1424.14,2891.66 1423.01,2892.26 1421.81,2892.67C1420.96,2892.96 1420.07,2893.15 1419.18,2893.24C1418.82,2893.27 1418.46,2893.29 1418.1,2893.3C1356.03,2893.72 1293.97,2893.72 1231.9,2893.3C1231.54,2893.29 1231.18,2893.27 1230.82,2893.24C1229.93,2893.15 1229.04,2892.96 1228.19,2892.67C1226.86,2892.22 1225.6,2891.53 1224.5,2890.64C1222.8,2889.27 1221.48,2887.44 1220.73,2885.39C1220.42,2884.55 1220.21,2883.67 1220.1,2882.78C1220.04,2882.32 1220.01,2881.86 1220,2881.4C1219.81,2851.53 1219.76,2821.67 1219.85,2791.8ZM1335.85,2809.76L1314.15,2809.76C1313.75,2809.78 1313.64,2809.77 1313.24,2809.87C1312.35,2810.11 1311.58,2810.71 1311.12,2811.51C1310.97,2811.77 1310.85,2812.05 1310.77,2812.35C1310.73,2812.5 1310.71,2812.65 1310.68,2812.8L1310.65,2813.26L1310.65,2828.74L1295.16,2828.74C1294.76,2828.77 1294.65,2828.76 1294.26,2828.86C1293.67,2829.02 1293.12,2829.34 1292.69,2829.77C1292.36,2830.09 1292.1,2830.48 1291.93,2830.9C1291.81,2831.19 1291.73,2831.48 1291.69,2831.79C1291.67,2831.94 1291.67,2832.09 1291.66,2832.24L1291.66,2853.94C1291.69,2854.35 1291.68,2854.45 1291.78,2854.85C1292.02,2855.74 1292.61,2856.51 1293.41,2856.97C1293.68,2857.13 1293.96,2857.24 1294.26,2857.32C1294.4,2857.36 1294.56,2857.38 1294.71,2857.41L1295.16,2857.44L1310.65,2857.44L1310.65,2872.93C1310.66,2873.08 1310.66,2873.24 1310.68,2873.39C1310.72,2873.69 1310.8,2873.99 1310.92,2874.27C1311.15,2874.84 1311.53,2875.33 1312.02,2875.71C1312.38,2875.99 1312.8,2876.19 1313.24,2876.31C1313.64,2876.42 1313.75,2876.4 1314.15,2876.43L1335.85,2876.43C1336.26,2876.4 1336.36,2876.42 1336.76,2876.31C1337.65,2876.07 1338.42,2875.48 1338.88,2874.68C1339.03,2874.41 1339.15,2874.13 1339.23,2873.84C1339.27,2873.69 1339.29,2873.54 1339.32,2873.39L1339.35,2872.93L1339.35,2857.44L1354.84,2857.44C1355.24,2857.42 1355.35,2857.43 1355.74,2857.32C1356.33,2857.16 1356.88,2856.85 1357.31,2856.42C1357.64,2856.09 1357.9,2855.71 1358.07,2855.28C1358.19,2855 1358.27,2854.7 1358.31,2854.4C1358.33,2854.25 1358.33,2854.1 1358.34,2853.94L1358.34,2832.24C1358.31,2831.84 1358.32,2831.73 1358.22,2831.34C1357.98,2830.45 1357.39,2829.67 1356.59,2829.21C1356.32,2829.06 1356.04,2828.94 1355.74,2828.86C1355.6,2828.82 1355.44,2828.8 1355.29,2828.77L1354.84,2828.74L1339.35,2828.74L1339.35,2813.26C1339.32,2812.85 1339.34,2812.74 1339.23,2812.35C1338.99,2811.46 1338.4,2810.68 1337.6,2810.22C1337.34,2810.07 1337.05,2809.95 1336.76,2809.87C1336.61,2809.84 1336.46,2809.82 1336.31,2809.78L1335.85,2809.76ZM1332.35,2869.43L1317.65,2869.43L1317.65,2853.94C1317.64,2853.79 1317.64,2853.64 1317.62,2853.49C1317.58,2853.18 1317.5,2852.89 1317.38,2852.6C1317.15,2852.04 1316.77,2851.54 1316.28,2851.17C1315.92,2850.89 1315.5,2850.68 1315.06,2850.56C1314.66,2850.46 1314.56,2850.47 1314.15,2850.44L1298.66,2850.44L1298.66,2835.74L1314.15,2835.74C1314.56,2835.72 1314.66,2835.73 1315.06,2835.62C1315.95,2835.39 1316.72,2834.79 1317.18,2833.99C1317.33,2833.73 1317.45,2833.44 1317.53,2833.15C1317.57,2833 1317.59,2832.85 1317.62,2832.7L1317.65,2832.24L1317.65,2816.76L1332.35,2816.76L1332.35,2832.24C1332.38,2832.65 1332.36,2832.75 1332.47,2833.15C1332.63,2833.74 1332.94,2834.28 1333.38,2834.72C1333.7,2835.04 1334.09,2835.3 1334.51,2835.48C1334.79,2835.59 1335.09,2835.67 1335.39,2835.71C1335.54,2835.73 1335.7,2835.73 1335.85,2835.74L1351.34,2835.74L1351.34,2850.44L1335.85,2850.44C1335.44,2850.47 1335.34,2850.46 1334.94,2850.56C1334.5,2850.68 1334.08,2850.89 1333.72,2851.17C1333.23,2851.54 1332.85,2852.04 1332.62,2852.6C1332.5,2852.89 1332.42,2853.18 1332.38,2853.49C1332.36,2853.64 1332.36,2853.79 1332.35,2853.94L1332.35,2869.43ZM1397.16,2775.53C1397.95,2775.53 1398.72,2775.84 1399.28,2776.41C1399.85,2776.97 1400.16,2777.73 1400.16,2778.53C1400.16,2786.08 1400.16,2805.22 1400.16,2805.22C1400.16,2805.39 1400.14,2805.54 1400.08,2805.7C1399.95,2806.03 1399.69,2806.29 1399.36,2806.42C1399.23,2806.46 1399.1,2806.49 1398.97,2806.5C1395.59,2806.63 1392.2,2806.63 1388.82,2806.5C1388.71,2806.49 1388.6,2806.47 1388.5,2806.44C1388.19,2806.34 1387.93,2806.12 1387.78,2805.84C1387.72,2805.72 1387.68,2805.59 1387.65,2805.46C1387.64,2805.41 1387.64,2805.36 1387.63,2805.31C1387.3,2796.38 1387.57,2787.45 1387.62,2778.52C1387.63,2776.86 1388.97,2775.53 1390.63,2775.53C1392.6,2775.53 1395.18,2775.53 1397.16,2775.53ZM1259.36,2775.53C1260.16,2775.53 1260.92,2775.84 1261.49,2776.41C1262.05,2776.97 1262.37,2777.73 1262.37,2778.53C1262.37,2786.08 1262.37,2805.22 1262.37,2805.22C1262.37,2805.39 1262.34,2805.55 1262.28,2805.7C1262.16,2806.03 1261.89,2806.29 1261.56,2806.42C1261.44,2806.46 1261.31,2806.49 1261.18,2806.5C1257.8,2806.63 1254.41,2806.63 1251.03,2806.5C1250.92,2806.49 1250.81,2806.47 1250.7,2806.44C1250.39,2806.34 1250.14,2806.12 1249.99,2805.84C1249.92,2805.72 1249.88,2805.59 1249.86,2805.46C1249.85,2805.41 1249.84,2805.36 1249.84,2805.31C1249.5,2796.38 1249.77,2787.45 1249.83,2778.52C1249.84,2776.86 1251.18,2775.53 1252.83,2775.53C1254.81,2775.53 1257.38,2775.53 1259.36,2775.53ZM1284.58,2748.33C1284.58,2742.81 1284.58,2737.29 1284.61,2731.78C1284.62,2731.32 1284.65,2730.87 1284.7,2730.42C1284.82,2729.48 1285.05,2728.55 1285.38,2727.66C1285.93,2726.17 1286.79,2724.78 1287.87,2723.61C1289.17,2722.21 1290.79,2721.13 1292.58,2720.47C1293.51,2720.12 1294.49,2719.89 1295.48,2719.78C1295.88,2719.73 1296.28,2719.71 1296.68,2719.7C1315.56,2719.58 1334.44,2719.58 1353.32,2719.7C1353.72,2719.71 1354.12,2719.73 1354.52,2719.78C1355.51,2719.89 1356.49,2720.12 1357.42,2720.47C1359.16,2721.11 1360.74,2722.16 1362.02,2723.5C1363.19,2724.73 1364.1,2726.2 1364.67,2727.8C1364.96,2728.6 1365.16,2729.43 1365.28,2730.27C1365.34,2730.72 1365.37,2731.17 1365.39,2731.62L1365.39,2731.77L1365.39,2731.92L1365.39,2748.22C1382.96,2748.23 1400.53,2748.28 1418.1,2748.4C1418.51,2748.41 1418.92,2748.43 1419.33,2748.48C1420.22,2748.58 1421.1,2748.78 1421.95,2749.08C1423.1,2749.49 1424.18,2750.07 1425.15,2750.79C1427.02,2752.19 1428.47,2754.12 1429.27,2756.31C1429.58,2757.15 1429.79,2758.03 1429.9,2758.92C1429.96,2759.38 1429.99,2759.84 1430,2760.3C1430.05,2768.47 1430.09,2776.63 1430.11,2784.8L1407.16,2784.8L1407.16,2772.03C1407.14,2771.62 1407.15,2771.51 1407.04,2771.12C1406.81,2770.23 1406.21,2769.45 1405.41,2768.99C1405.15,2768.84 1404.86,2768.72 1404.57,2768.64C1404.42,2768.61 1404.27,2768.59 1404.12,2768.55L1403.66,2768.53L1384.13,2768.53C1383.73,2768.55 1383.62,2768.54 1383.23,2768.64C1382.78,2768.76 1382.37,2768.97 1382,2769.25C1381.52,2769.62 1381.13,2770.12 1380.9,2770.69C1380.78,2770.97 1380.7,2771.26 1380.66,2771.57C1380.64,2771.72 1380.64,2771.87 1380.63,2772.03L1380.63,2784.8L1269.37,2784.8L1269.37,2772.03C1269.36,2771.87 1269.36,2771.72 1269.34,2771.57C1269.3,2771.26 1269.22,2770.97 1269.1,2770.69C1268.75,2769.83 1268.06,2769.14 1267.21,2768.79C1266.83,2768.64 1266.72,2768.63 1266.32,2768.55L1265.87,2768.53L1246.34,2768.53C1245.93,2768.55 1245.83,2768.54 1245.43,2768.64C1244.99,2768.76 1244.57,2768.97 1244.21,2769.25C1243.72,2769.62 1243.34,2770.12 1243.1,2770.69C1242.99,2770.97 1242.91,2771.26 1242.87,2771.57C1242.85,2771.72 1242.85,2771.87 1242.84,2772.03L1242.84,2784.8L1219.88,2784.8C1219.91,2776.63 1219.95,2768.47 1220,2760.3C1220.01,2759.84 1220.04,2759.38 1220.1,2758.92C1220.21,2758.03 1220.42,2757.15 1220.73,2756.31C1221.41,2754.44 1222.57,2752.76 1224.06,2751.43C1225.19,2750.43 1226.5,2749.65 1227.91,2749.13C1228.85,2748.79 1229.83,2748.56 1230.82,2748.46C1231.24,2748.42 1231.65,2748.4 1232.07,2748.4C1249.58,2748.4 1267.08,2748.37 1284.58,2748.33ZM1358.45,2748.22C1358.48,2742.74 1358.49,2737.27 1358.39,2731.8C1358.37,2731.22 1358.26,2730.65 1358.06,2730.11C1357.87,2729.59 1357.59,2729.1 1357.25,2728.66C1356.67,2727.95 1355.91,2727.38 1355.05,2727.05C1354.49,2726.84 1353.89,2726.72 1353.29,2726.7C1334.48,2726.34 1315.66,2726.7 1296.85,2726.7C1296.31,2726.7 1295.77,2726.78 1295.26,2726.94C1294.71,2727.12 1294.19,2727.38 1293.73,2727.72C1292.9,2728.34 1292.26,2729.19 1291.92,2730.16C1291.71,2730.73 1291.61,2731.33 1291.61,2731.94L1291.61,2748.31C1313.89,2748.26 1336.17,2748.21 1358.45,2748.22Z"></path></g></g></g></svg>