<svg xmlns="http://www.w3.org/2000/svg" xmlns:xlink="http://www.w3.org/1999/xlink" version="1.1" x="0px" y="0px" viewBox="0 0 100 100" enable-background="new 0 0 100 100" xml:space="preserve"><g><circle fill="white" cx="19.9" cy="25.8" r="1.5"></circle><circle fill="white" cx="22.4" cy="33.5" r="1.5"></circle><circle fill="white" cx="79.5" cy="25.8" r="1.5"></circle><circle fill="white" cx="75.1" cy="33.5" r="1.5"></circle><circle fill="white" cx="22.7" cy="55.1" r="1.5"></circle><circle fill="white" cx="20.5" cy="63.6" r="1.5"></circle><circle fill="white" cx="77" cy="46.4" r="1.5"></circle><circle fill="white" cx="78.8" cy="54.5" r="1.5"></circle><circle fill="white" cx="25.9" cy="75.7" r="1.3"></circle><circle fill="white" cx="22.7" cy="82.4" r="1.3"></circle><circle fill="white" cx="72.6" cy="77.1" r="1.3"></circle><circle fill="white" cx="72.9" cy="84.1" r="1.3"></circle><path fill="white" d="M92.2,60.7L89,41.9h0.8V16.6H76.1c0.1-1.8-0.4-3.3-1.6-3.8c-2.4-0.9-3.2,1-3.2,1C71.1,14,71,14.2,71,14.3   c-0.1-0.1-0.3-0.2-0.4-0.2c-1.5-0.4-2.6,0.2-3.1,0.7c-0.2-0.3-0.4-0.5-0.7-0.6c-0.5-0.1-1-0.2-1.4-0.1c0.2-2.7-0.4-5-2.8-3.3   c-1.9,1.3-2.8,3.7-2.8,5.7H41.4c0.9-2.7,1-6.4-0.3-8.8c-2.2-3.7-4.1,2.1-4.6,6.6c-0.1-0.3-0.2-0.6-0.3-0.9c0,0-0.6-2.4-3.2-2.4   c-1,0-1.6,1.2-1.7,2.9c-0.5-0.4-1.2-0.7-2.1-0.7c-0.7,0-1.2,0.6-1.5,1.5c-0.1-0.2-0.1-0.5-0.2-0.7c0,0-0.8-1.9-3.2-1.1   c-1.1,0.4-1.8,1.7-1.8,3.4H9v25.2h5.3c0.2,1.7,0.5,4.2,0.9,6.1l-6.9,1.2L12.5,74l2-0.3L14,90.1l69.3,1.7l0.5-22L80,69.6l0.9-7.1   L92.2,60.7z M12.8,20.5h10.5c0.5,0.9,1.2,1.8,2.1,2.6c1.8,1.5,2.7,0.6,2.9-1.2c0.5,1,1.1,2,2,2.7c2.3,1.9,3.1-0.1,3-3   c0.3,0.3,0.5,0.6,0.9,0.9c2,1.7,2.9,0.3,3-1.9h23.4c-1,3-1,5.5,1.9,4.2c0.5-0.2,1-0.5,1.4-0.9c0.2,1,0.9,1.4,2.5,0.7   c1.5-0.7,2.7-1.9,3.5-3.3c0.2,1.9,1,2.9,2.9,1.4c0.8-0.6,1.4-1.4,2-2.2H86v15.7l-9.4,1.6L74.8,38H12.8V20.5z M84.9,40.2l0.3,1.6h0   l2.6,15.7L15.6,69.6l-2.9-17.3L84.9,40.2z M79.6,87.8L18,86.3l0.3-13.3l3.8-0.6l1.8-0.3l56,1.4L79.6,87.8z M60.7,66   c0,0,4.2,1.5,6.8,1C67.5,67,60.9,71,60.7,66z M68.8,66.8c2.6,0.2,6.6-1.9,6.6-1.9C75.9,69.8,68.8,66.8,68.8,66.8z"></path></g></svg>