<svg xmlns="http://www.w3.org/2000/svg" xmlns:xlink="http://www.w3.org/1999/xlink" xml:space="preserve" style="shape-rendering:geometricPrecision;text-rendering:geometricPrecision;image-rendering:optimizeQuality;" viewBox="0 0 0.333331 0.333331" x="0px" y="0px" fill-rule="evenodd" clip-rule="evenodd"><defs><style type="text/css">
   
    .fil0 {fill:white}
   
  </style></defs><g><path class="fil0" d="M0.147748 0.0331024c0.0021378,-0.000228346 0.0081063,0.00302362 0.000559055,0.00754724 -0.0169724,0.0104961 -0.0282598,0.0144252 -0.0380157,0.0315945 0.00687008,0.0108819 0.00544094,0.0169528 0.00384252,0.0242559l0.0647087 0.059374 0.0606496 -0.0592953c0.0164291,-0.0166024 -0.017248,-0.0377795 0.0270551,-0.0524528 0.0219606,-0.00084252 0.0208228,-0.00398425 -0.00835039,0.0255394l0.0053622 0.0180669 0.0181772 0.00494094c0.0324803,-0.0329921 0.0247677,-0.0282323 0.025315,-0.00895276 -0.0157126,0.0412874 -0.0355669,0.0114488 -0.0516339,0.0280394l-0.0570709 0.062 0.110524 0.101413c-0.00465354,0.0120394 -0.0125276,0.0208937 -0.0250669,0.025063l-0.103957 -0.106386 -0.0976024 0.106039c-0.0120512,-0.00466535 -0.0208937,-0.0125236 -0.0250709,-0.0250669l0.103205 -0.100894 -0.061378 -0.062811c-0.00717323,0.00269291 -0.0154252,0.00141732 -0.0213031,-0.0038622l-0.00343701 0.00333071c0.00777953,0.00777953 0.00309449,0.00861024 -0.0141496,0.0258504 -0.00592126,0.00592913 -0.0217244,-0.014748 -0.0339724,-0.0269961 -0.0059252,-0.0059252 0.00489764,-0.0128465 0.0160236,-0.0239685 0.00395276,-0.00395669 0.00829528,0.00131102 0.0104961,0.00351181 0.00425197,-0.00433858 0.00100394,-0.051874 0.0950906,-0.0558819zm0.137421 0.233398c-0.00627559,0 -0.0113622,0.00508661 -0.0113622,0.0113622 0,0.00627559 0.00508661,0.0113622 0.0113622,0.0113622 0.00627559,0 0.0113622,-0.00508661 0.0113622,-0.0113622 0,-0.00627559 -0.00508661,-0.0113622 -0.0113622,-0.0113622zm-0.206165 -0.000811024c-0.00627165,0 -0.0113622,0.00508661 -0.0113622,0.0113622 0,0.00627559 0.00509055,0.0113622 0.0113622,0.0113622 0.00627559,0 0.0113661,-0.00508661 0.0113661,-0.0113622 0,-0.00627559 -0.00509055,-0.0113622 -0.0113661,-0.0113622z"></path></g></svg>