<svg height='100px' width='100px'  fill="#000000" xmlns="http://www.w3.org/2000/svg" xmlns:xlink="http://www.w3.org/1999/xlink" version="1.1" x="0px" y="0px" viewBox="0 0 1195.352 242.19" style="enable-background:new 0 0 1195.352 242.19;" xml:space="preserve"><g><ellipse transform="matrix(0.0081 -1 1 0.0081 -14.3303 58.8441)" cx="22.496" cy="36.645" rx="22.493" ry="22.495"></ellipse><path d="M39.35,242.19c6.554,0.001,12.059-5.104,12.463-11.736l4.379-71.433l64.34,33.739c1.853,0.971,3.838,1.432,5.795,1.432   c4.5,0,8.846-2.436,11.08-6.697c3.207-6.114,0.849-13.67-5.265-16.876l-27.935-14.648l-10.87,3.719v-9.419l-36.284-19.026   c-1.044-3.269-1.867-6.677-2.508-10.155l-5.708,0.601v-6l-5.5-4.333l9.335-6.099c-0.381-5.678-0.514-11.201-0.615-16.234H36.734   c-5.515,0-10.001-4.486-10.001-10c0-5.515,4.486-10.002,10.001-10.002h11.942c-2.593-4.413-6.542-7.496-11.2-7.605   c-8.797-0.209-19.856,7.023-21.564,22.414c-2.225,21.174-0.777,34.307,6.607,55.416c2.514,5.742,5.692,9.168,9.158,11.097   l-2.32,37.851l8.981,1.996l-9.82,11.708l-1.656,27.027c-0.423,6.89,4.82,12.819,11.712,13.24   C38.833,242.182,39.094,242.19,39.35,242.19z"></path><path d="M28.732,79.023c0,4.419,3.582,8.001,8.001,8.001h41.836l4.769-7.834l6.5,3l8-3l3.226,7.834h11.94   c4.419,0,8.001-3.582,8.001-8.001c0-4.419-3.582-8.001-8.001-8.001h-76.27C32.314,71.022,28.732,74.604,28.732,79.023z"></path><path d="M135.789,237.757c2.473,2.926,6.002,4.432,9.554,4.433c2.851,0,5.715-0.969,8.063-2.953l10.541-8.909l-1.275-10.972   l6.667,1l4.333-4.667l7.104,0.418l8.131-6.872c1.997-1.686,3.391-3.91,4.04-6.443l4.634-18.07l16.028,9.675l-9.255,31.239   c-1.961,6.62,1.814,13.576,8.434,15.538c1.186,0.351,2.381,0.518,3.557,0.518c5.394,0,10.371-3.517,11.98-8.952l11.999-40.501   c1.62-5.464-0.643-11.307-5.523-14.253l-28.459-17.18c3.967-5.982,8.852-11.631,13.846-16.821l4.238,8.364   c1.084,2.142,3.055,3.672,5.398,4.194l15.771,3.507l2.745-6.861l5.244,8.637l6.019,1.338c0.584,0.13,1.168,0.192,1.744,0.192   c3.666,0.001,6.973-2.537,7.801-6.264c0.959-4.314-1.758-8.586-6.072-9.545l-26.088-5.802l-4.816-9.502   c1.431-1.354,2.804-2.652,4.097-3.893l-11.635-4.688c-2.475-0.997-4.416-2.903-5.463-5.361c-1.046-2.458-1.072-5.177-0.072-7.653   c1.533-3.805,5.174-6.264,9.276-6.264c1.281,0,2.539,0.244,3.736,0.728l13.079,5.271c-0.145-2.672-1.001-5.161-2.74-7.168   c-5.761-6.648-18.553-9.971-31.09-0.885c-10.027,7.354-17.179,13.795-23.518,21.796l3.497,4.897l-1.333,3.333l4,4l-10.334,5.333   l-5.351-3.462c-1.163,1.979-2.334,4.057-3.53,6.265c-4.408,9.857-2.412,16.559,1.625,21.466c0.014,0.156,0.027,0.312,0.047,0.467   l-6.742,26.292l-32.451,27.425C131.997,224.598,131.333,232.485,135.789,237.757z"></path><path d="M288.359,102.375c-2.107-2.357-4.601-4.159-7.298-5.409l-7.724,7.724l-3.491-9.725c-4.75,0.366-9.424,2.212-13.249,5.631   c-3.571,3.194-5.87,7.274-6.889,11.609l41.24,16.619C295.811,120.609,295.059,109.869,288.359,102.375z"></path><path d="M231.361,106.967c-4.097-1.651-8.759,0.332-10.409,4.43c-1.652,4.098,0.33,8.76,4.429,10.411l14.335,5.776l2.944-2.56   l1.068,4.178l44.609,17.976l3.988-4.487l2.261,7.005l3.094,1.247c0.98,0.396,1.991,0.582,2.987,0.582   c3.167,0.001,6.166-1.895,7.422-5.013c1.652-4.098-0.332-8.758-4.428-10.41L231.361,106.967z"></path><path d="M435.779,97.144c-0.538,1.019-1.142,1.988-1.803,2.905l27.171,2.927c0.291,0.031,0.58,0.046,0.866,0.046   c4.035,0,7.503-3.04,7.944-7.144c0.475-4.394-2.704-8.337-7.096-8.81l-24.27-2.614C438.823,88.818,437.874,93.179,435.779,97.144z"></path><ellipse transform="matrix(0.4671 -0.8842 0.8842 0.4671 144.9211 411.8515)" cx="414.12" cy="85.704" rx="22.494" ry="22.496"></ellipse><path d="M327.401,238.344c2.326,1.912,5.138,2.844,7.931,2.844c3.61,0.001,7.191-1.556,9.663-4.563l14.844-18.061l-2.501-5.377   l7.033-0.138l10.623-12.925c2.627-3.198,3.499-7.436,2.352-11.41l-2.364-8.179l8.889,6.945l12.408,45.495   c1.516,5.56,6.554,9.214,12.051,9.214c1.09,0,2.195-0.143,3.297-0.443c6.66-1.816,10.588-8.687,8.771-15.348l-13.502-49.501   c-0.702-2.577-2.258-4.917-4.363-6.561l-3.303-2.581l-6.892,6.432l-1-8l-6-2.333l0.996-6.174l-17.956-14.028   c1.03-3.79,2.322-7.564,3.756-11.263l-13.24-29.247c-1.101-2.432-1.189-5.148-0.247-7.648c0.941-2.499,2.802-4.482,5.233-5.584   c1.309-0.592,2.694-0.891,4.12-0.891c3.92,0,7.498,2.306,9.114,5.877l6.056,13.379c0.446-0.91,0.883-1.801,1.301-2.665   c1.925-3.228,3.061-6.925,3.373-10.53l3.841,0.414c-2.189-5.029-2.685-10.752-1.196-16.221l-14.294-1.54   c-0.893-0.096-1.768-0.034-2.598,0.151c-7.113-0.345-15.496,2.979-21.591,12.113c-5.22,7.923-9.054,14.765-11.983,21.873   l4.815,4.816l-8.481,5.831c-1.645,5.845-2.898,12.221-3.966,19.728c-0.809,12.383,4.862,17.917,11.522,20.838l7.588,26.251   L325.68,220.75C321.297,226.084,322.065,233.96,327.401,238.344z"></path><path d="M364.707,91.731c-4.025,1.821-5.813,6.563-3.991,10.587l14.333,31.668c0.37,0.819,1.796,0.984,3.623,0.713v-6.178l4,1.666   l4-2.333l1.946-2.695l-13.325-29.437C373.47,91.696,368.73,89.91,364.707,91.731z"></path><path d="M863.275,199.666l28.489-6.512c4.307-0.985,7.001-5.274,6.017-9.581c-0.987-4.307-5.274-7.001-9.583-6.016l-16.083,3.676   c-0.07,4.624-1.448,9.141-4.06,13.09C866.71,196.357,865.098,198.148,863.275,199.666z"></path><path d="M822.99,203.604c-2.81-3.412-7.852-3.898-11.261-1.088c-3.411,2.809-3.898,7.85-1.088,11.26l-0.003-0.002l21.001,25.5   c1.544,1.878,3.821,2.916,6.172,2.916c0.776,0,1.561-0.113,2.329-0.347l18.008-5.472l0.167-7.015l7.497,4.686l4.495-1.366   c4.227-1.283,6.612-5.75,5.329-9.979c-1.285-4.227-5.753-6.613-9.979-5.33l-25.06,7.615L822.99,203.604z"></path><path d="M759.207,218.116c2.229,8.72-0.216,20.156,12.635,15.726c1.023-0.44,2.028-0.85,3.022-1.236l0.452-7.916l6.861,5.449   c11.248-3.247,21.06-3.538,32.052-4.414c1.161,0.009,2.322-0.073,3.471-0.231l-8.604-10.447c-1.696-2.061-2.491-4.659-2.235-7.319   c0.259-2.657,1.535-5.059,3.598-6.756c1.785-1.471,4.041-2.283,6.352-2.283c3.003,0,5.818,1.33,7.723,3.645l9.662,11.73   c0.424-1.235,0.638-2.533,0.6-3.877c-0.035-1.24-0.25-2.543-0.622-3.868l7.601-1.737c-6.921-1.716-12.8-6.399-16.015-12.753   l-2.424,0.554c-3.329-2.063-7.29-3.452-11.769-3.692c-9.098-0.487-17.772-0.12-28.402,2.513l-2.848,9.153l-9-1l-3.666,6.668   l-6.117-7.103c-6.64,3.785-7.247,6.608-6.108,9.922c-3.83,1.768-7.689,3.735-11.236,5.865l5.167,8.563   C752.369,221.448,755.766,219.714,759.207,218.116z"></path><path d="M852.119,202.852c12.173-2.48,20.027-14.361,17.545-26.533c-2.482-12.174-14.363-20.031-26.534-17.551   c-4.013,0.819-7.552,2.664-10.411,5.199l2.597,12.723l-8.516-4.384c-1.63,3.98-2.141,8.469-1.216,12.999   C828.065,197.479,839.945,205.333,852.119,202.852z"></path><circle cx="636.934" cy="25.5" r="25.5"></circle><path d="M611.803,194.375l-3.5,10l-5.739-0.998l-5.43,22.32c-1.911,5.186,5.914,12.848,12.32,15.211   c6.404,2.362,17.332,1.617,19.244-3.566l27.88-40.444l15.932,18.686l10.293-8.709l-0.878,19.752l10.646,12.486   c3.081,4.588,13.875,2.738,19.544-1.068c5.668-3.805,11.469-13.096,8.389-17.684l-18.235-51.373l-10.965-1.613l7.483-8.196   l-4.849-13.659c3.281-5.748,4.615-12.539,4.615-19.544c0-0.784-0.051-1.584-0.124-2.392l-15.626-5.209l13.102-5.296   c-2.118-5.792-5.249-11.616-8.461-16.776h-36.807c-8.547,0-15.501-6.952-15.501-15.498c0-8.547,6.954-15.502,15.501-15.502h76.993   c0.344,0,0.68,0.03,1.018,0.052c2.665-2.679,4.1-6.521,3.533-10.552c-0.962-6.837-7.281-11.6-14.119-10.639l-11.715,1.646   l-3.544,7.731l-5.571-6.451l-54.439,7.649c-37.773,3.243-37.964,65.852-37.883,84.42c0.036,8.409,3.86,13.734,9.132,17.037   l-7.509,30.866l13.771,1.812L611.803,194.375z"></path><path d="M650.636,68.304c-6.904,0-12.5,5.597-12.5,12.5c0,6.903,5.596,12.501,12.5,12.501h45.774l-1.027-5.904l10.62,5.904h21.626   c6.903,0,12.501-5.598,12.501-12.501c0-6.903-5.598-12.5-12.501-12.5H650.636z"></path><path d="M562.694,126.964c3.561-0.464,6.068-3.726,5.605-7.286c-0.465-3.559-3.727-6.068-7.287-5.604l-2.609,0.34   c-0.309,5.359-2.528,10.211-5.984,13.891L562.694,126.964z"></path><path d="M500.469,190.768l-18.25,36.995c-2.442,4.954-0.409,10.95,4.545,13.393c1.422,0.702,2.932,1.034,4.416,1.034   c3.688,0.001,7.233-2.047,8.976-5.577l7.85-15.913l-6.485-7.179l7.667-1.334l-1-6.333l4.893,4.556l4.475-9.07l27.173,33.779   c1.976,2.457,4.875,3.733,7.799,3.733c2.199,0,4.414-0.722,6.262-2.208c4.301-3.462,4.985-9.757,1.523-14.061l-18.209-22.635   l-6.916,1.572l3.947-5.263l-13.76-17.105c-0.274-0.86-0.667-1.679-1.164-2.439c-0.182-3.762,0.022-7.639,0.473-11.505l-8.702-7.686   l9.821,0.317c0.879-4.81,1.977-9.451,2.986-13.651l-11.687-1.035c-2.261-0.199-4.31-1.27-5.768-3.009   c-1.457-1.742-2.15-3.946-1.947-6.209c0.393-4.418,4.025-7.75,8.451-7.75c0.162,0,0.329,0.013,0.494,0.023   c-1.358-1.855-2.434-3.927-3.167-6.154l-0.153,0.02c-0.549,0.072-1.069,0.217-1.561,0.412c-5.89,1.556-11.869,5.906-14.992,13.814   c-6.335,16.34-7.811,26.938-5.79,44.799C493.917,185.333,496.85,188.833,500.469,190.768z"></path><path d="M521.093,126.441l27.747,2.458c4.63-3.701,7.604-9.388,7.604-15.776c0-11.153-9.041-20.194-20.195-20.194   s-20.195,9.041-20.195,20.194C516.053,118.232,517.966,122.884,521.093,126.441z"></path><path d="M518.426,128.211c-3.573-0.318-6.729,2.325-7.047,5.901c-0.317,3.576,2.325,6.731,5.901,7.047l25.778,2.286l3.796-6.207   l1.813,6.704l16.405,1.454c0.195,0.018,0.39,0.026,0.583,0.026c3.33,0,6.166-2.545,6.467-5.925c0.314-3.576-2.325-6.732-5.901-7.05   L518.426,128.211z"></path><path d="M1053.079,97.817c-2.689,3.505-2.029,8.527,1.478,11.218c1.452,1.114,3.165,1.653,4.864,1.653   c2.402,0,4.778-1.077,6.354-3.131c7.614-9.933,18.084-15.532,28.27-18.67c2.507-0.773,4.983-1.387,7.366-1.874   c-0.001,0.002-0.002,0.004-0.003,0.007c-6.805,20.174-8.268,33.305-5.682,55.52c1.511,7.773,4.866,12.173,8.962,14.638   c0.062,0.994,0.102,2.081,0.101,3.258c-0.007,6.846-1.272,16.407-6.656,26.654c-5.418,10.242-14.929,21.476-32.89,31.734   c-5.999,3.414-8.096,11.046-4.682,17.048c2.305,4.047,6.529,6.319,10.876,6.319c2.097,0,4.22-0.528,6.172-1.639   c21.615-12.262,35.035-27.269,42.654-41.833c7.044-13.4,9.195-26.164,9.488-35.846l22.085,3.97l19.682,42.226   c2.917,6.258,10.353,8.965,16.61,6.05c6.259-2.917,8.965-10.355,6.051-16.61h-0.002l-22.421-48.102   c-1.714-3.675-5.128-6.307-9.119-7.022l-31.719-5.703c-0.186-7.163,0.565-14.579,1.665-21.682   c-1.467-0.689-2.733-1.435-3.782-2.137c-3.563-2.376-6.663-5.457-9.47-9.416c-2.721-3.87-4.991-8.35-6.399-12.624l-0.04-0.119   c-1.644-5.344,1.324-10.951,6.591-12.575c0.96-0.295,1.949-0.443,2.944-0.443c4.408,0,8.248,2.831,9.554,7.048l0.049,0.141   c0.073,0.209,0.188,0.529,0.354,0.94c0.315,0.79,0.845,2.012,1.6,3.385c0.791,1.474,1.729,2.86,2.715,4.048   c0.025-0.126,0.053-0.261,0.077-0.387c2.869-9.953-0.885-21.865-9.42-23.992c-1.237-0.308-2.556-0.47-3.92-0.484   c-0.01-0.001-0.018-0.003-0.028-0.004h-0.002c-0.183-0.013-1.867-0.145-4.652-0.145c-5.989,0.009-17.078,0.575-29.412,4.358   C1077.05,77.366,1063.311,84.493,1053.079,97.817z"></path><ellipse transform="matrix(0.2268 -0.9739 0.9739 0.2268 841.1186 1157.3179)" cx="1149.443" cy="48.919" rx="22.495" ry="22.495"></ellipse><path d="M1130.527,87.56c-0.182-0.45-0.307-0.8-0.382-1.017c-0.037-0.105-0.063-0.181-0.075-0.218v0.001   c-1.305-4.216-5.776-6.582-9.997-5.285c-4.222,1.301-6.592,5.776-5.291,10h-0.002c0.165,0.467,1.86,6.098,6.182,12.251   c2.176,3.066,5.048,6.307,8.954,8.911c3.859,2.587,8.876,4.456,14.521,4.456c0.029,0,0.06,0,0.089-0.001   c9.116-0.028,18.792-4.481,29.289-14.058c3.266-2.976,3.501-8.036,0.525-11.3c-2.976-3.265-8.036-3.501-11.301-0.525   c-8.845,8.056-14.951,9.912-18.514,9.883c-2.297-0.018-3.997-0.641-5.758-1.783c-2.606-1.687-5.009-4.863-6.537-7.71   C1131.457,89.755,1130.885,88.459,1130.527,87.56z"></path><rect x="958.635" y="61.503" width="109.998" height="5.334"></rect><rect x="971.967" y="75.503" width="51.334" height="5.334"></rect><rect x="1001.299" y="47.503" width="51.334" height="5.334"></rect></g></svg>