<svg height='100px' width='100px'  fill="#000000" xmlns="http://www.w3.org/2000/svg" xmlns:xlink="http://www.w3.org/1999/xlink" version="1.1" x="0px" y="0px" viewBox="0 0 500 500" style="enable-background:new 0 0 500 500;" xml:space="preserve"><g><path d="M242,299h16c2.8,0,5-2.2,5-5s-2.2-5-5-5h-16c-2.8,0-5,2.2-5,5S239.2,299,242,299z"></path><path d="M364.9,265.2v-5.2c23-1.8,41.2-21.1,41.2-44.6s-18.2-42.8-41.2-44.6v-27.1c0-62.9-51.2-114.1-114.1-114.1h-0.6   c-63.5,0-115.2,51.7-115.2,115.2v26c-23,1.8-41.2,21.1-41.2,44.6s18.2,42.8,41.2,44.6v5.2c0,19.9,8.8,38.7,24.1,51.5l26.6,22.1   l-36.7,24.7c-16.7,11.3-26.7,30-26.7,50.2v0.8c0,28.1,19.1,52.3,46.3,58.9c26.2,6.3,53.2,9.5,80.2,9.5c25.6,0,51.2-2.9,76.1-8.6   l5.5-1.3c27.7-6.3,47-30.6,47-59c0-20.4-10.2-39.3-27.3-50.6l-36.8-24.3l27.2-22.6C356.1,304,364.9,285.2,364.9,265.2z M364.9,191   c12,1.7,21.2,12,21.2,24.5s-9.3,22.8-21.2,24.5V191z M135.1,240c-12-1.7-21.2-12-21.2-24.5s9.3-22.8,21.2-24.5V240z M243.7,276.6   h12.6c10.5,0,18.8,7.4,17.6,15.8l-2.3,16.4c-1.2,8.9-10.5,15.5-21.6,15.5s-20.4-6.7-21.6-15.5l-2.3-16.4   C224.9,284,233.2,276.6,243.7,276.6z M202.9,62.3c9.9,13.8,27.2,23,47.1,23c20,0,37.5-9.3,47.3-23.3c18.5,10.6,33.1,27.2,41.1,47.3   c-1.8,8.3-4.5,15.8-8.4,22.4c-4.3,7.2-1.8,16.4,5.5,20.4c3.2,1.8,6.4,3.8,9.5,6.1v22.6v61.6c-8.9,2.4-16.7,7.9-21.9,15.7l-9.1,13.6   c-4.4,6.6-13.6,8.1-19.9,3.1l-11.4-9c-4.7-3.7-10.3-6.1-16.1-6.8c1.6-2.9,1.2-6.6-1.2-9c-2.9-2.9-7.7-2.9-10.6,0   c-1.3,1.3-2.9,1.9-4.7,1.9s-3.4-0.7-4.7-1.9c-2.9-2.9-7.7-2.9-10.6,0c-2.5,2.5-2.9,6.5-1,9.4c-5.4,1.1-10.5,3.5-14.8,7.1l-9.2,7.8   c-6.2,5.2-15.5,4-20.1-2.6l-9.8-14.1c-5.9-8.5-14.8-14.1-24.8-15.9v-60.8v-22.6c3.1-2.3,6.3-4.3,9.5-6.1c7.3-4,9.8-13.3,5.5-20.4   c-3.8-6.4-6.5-13.7-8.3-21.8C169.8,89.8,184.4,73,202.9,62.3z"></path><path d="M205.3,235.8c23.4,0,42.5-19.1,42.5-42.5s-19.1-42.5-42.5-42.5s-42.5,19.1-42.5,42.5S181.9,235.8,205.3,235.8z    M205.3,165.8c15.2,0,27.5,12.3,27.5,27.5s-12.3,27.5-27.5,27.5s-27.5-12.3-27.5-27.5S190.1,165.8,205.3,165.8z"></path><path d="M294.7,235.8c23.4,0,42.5-19.1,42.5-42.5s-19.1-42.5-42.5-42.5s-42.5,19.1-42.5,42.5S271.3,235.8,294.7,235.8z    M294.7,165.8c15.2,0,27.5,12.3,27.5,27.5s-12.3,27.5-27.5,27.5s-27.5-12.3-27.5-27.5S279.5,165.8,294.7,165.8z"></path><path d="M206.2,206.6c5.8,0,11.2-2.3,15.3-6.3c2.9-2.9,2.9-7.7,0-10.6c-2.9-2.9-7.7-2.9-10.6,0c-1.3,1.3-2.9,1.9-4.7,1.9   s-3.4-0.7-4.7-1.9c-2.9-2.9-7.7-2.9-10.6,0c-2.9,2.9-2.9,7.7,0,10.6C195,204.3,200.5,206.6,206.2,206.6z"></path><path d="M293.8,206.6c5.8,0,11.2-2.3,15.3-6.3c2.9-2.9,2.9-7.7,0-10.6c-2.9-2.9-7.7-2.9-10.6,0c-1.3,1.3-2.9,1.9-4.7,1.9   s-3.4-0.7-4.7-1.9c-2.9-2.9-7.7-2.9-10.6,0c-2.9,2.9-2.9,7.7,0,10.6C282.5,204.3,288,206.6,293.8,206.6z"></path></g></svg>