<svg height='100px' width='100px'  fill="#000000" xmlns="http://www.w3.org/2000/svg" xmlns:xlink="http://www.w3.org/1999/xlink" version="1.1" x="0px" y="0px" viewBox="0 0 500 500" style="enable-background:new 0 0 500 500;" xml:space="preserve"><g><path d="M305.3,145H263c-0.6,0-1.2,0.1-1.8,0.3l-2.4,0.9c-5.7,2.2-11.9,2.2-17.7,0.1l-3-1.1c-0.6-0.2-1.1-0.3-1.7-0.3h-41.7   c-2.8,0-5,2.2-5,5s2.2,5,5,5h40.8l2.2,0.8c3.9,1.4,8,2.1,12.1,2.1c4.3,0,8.6-0.8,12.6-2.3l1.6-0.6h41.4c2.8,0,5-2.2,5-5   S308.1,145,305.3,145z"></path><circle cx="208.8" cy="195.9" r="11.8"></circle><circle cx="291.2" cy="195.9" r="11.8"></circle><path d="M364.9,269.2v-5.2c23-1.8,41.2-21.1,41.2-44.6c0-14.7-7.1-27.7-18.1-35.9c2.1-3,3.2-6.7,3.2-10.6v-22.1   c0-20.8-14.3-38.2-33.6-42.9c-16.2-43.3-58-74.2-106.9-74.2h-0.6c-49.1,0-91.1,30.8-107.6,74.2c-19.5,4.6-34,22.1-34,43V173   c0,3.9,1.2,7.6,3.2,10.6c-11,8.2-18.1,21.2-18.1,35.9c0,23.5,18.2,42.8,41.2,44.6v5.2c0,19.9,8.8,38.7,24.1,51.5l23.9,19.9   l-34,22.9c-16.7,11.3-26.7,30-26.7,50.2v0.8c0,28.1,19.1,52.3,46.3,58.9c26.2,6.3,53.2,9.5,80.2,9.5c25.6,0,51.2-2.9,76.1-8.6   l5.5-1.3c27.7-6.3,47-30.6,47-59c0-20.4-10.2-39.3-27.3-50.6l0,0l-34.2-22.5l24.5-20.3C356.1,308,364.9,289.2,364.9,269.2z    M364.9,195c12,1.7,21.2,12,21.2,24.5c0,12.5-9.3,22.8-21.2,24.5V195z M135.1,244c-12-1.7-21.2-12-21.2-24.5   c0-12.5,9.3-22.8,21.2-24.5V244z M277,380.7c-5.4,10.2-15.5,16.3-27.1,16.3c0,0,0,0,0,0c-11.5,0-21.7-6.1-27.1-16.3l-11.7-22.1   c5.6,1.8,11.4,2.7,17.3,2.7h42.8c6,0,11.8-0.9,17.4-2.7L277,380.7z M327.9,305.4l-33,27.4c-6.6,5.5-15,8.5-23.6,8.5h-42.8   c-8.6,0-17-3-23.7-8.6L172,305.4c-10.8-9-16.9-22.1-16.9-36.1v-13.7c0.1-0.6,0.1-1.2,0.1-1.8c-0.1-1.5-0.1-2.8-0.1-4.1v-65v-35.9   c0-52.5,42.7-95.2,95.2-95.2h0.6c51.9,0,94.1,42.2,94.1,94.1v37v65c0,1.2,0,2.6-0.1,4.1c0,0.6,0,1.2,0.1,1.8v13.7   C344.9,283.3,338.7,296.4,327.9,305.4z"></path><path d="M265.3,250.6c2.9-2.9,2.9-7.7,0-10.6c-2.9-2.9-7.7-2.9-10.6,0c-1.3,1.3-2.9,1.9-4.7,1.9s-3.4-0.7-4.7-1.9   c-2.9-2.9-7.7-2.9-10.6,0c-2.9,2.9-2.9,7.7,0,10.6c4.1,4.1,9.5,6.3,15.3,6.3S261.2,254.6,265.3,250.6z"></path><path d="M273.2,270.3c-15.8,7.1-30.9,7.1-46.3,0c-3.8-1.7-8.2-0.1-10,3.7c-1.7,3.8-0.1,8.2,3.7,10c9.6,4.5,19.4,6.7,29.2,6.7   c9.8,0,19.7-2.2,29.5-6.7c3.8-1.7,5.5-6.1,3.8-9.9C281.4,270.3,276.9,268.6,273.2,270.3z"></path></g></svg>