<svg height='100px' width='100px'  fill="#000000" xmlns="http://www.w3.org/2000/svg" xmlns:xlink="http://www.w3.org/1999/xlink" version="1.1" x="0px" y="0px" viewBox="0 0 100 100" enable-background="new 0 0 100 100" xml:space="preserve"><path fill="#000000" d="M45.772,61.539c0-1.577-0.434-3.057-1.186-4.323c1.111-1.323,1.782-3.032,1.782-4.897  c0-4.212-3.414-7.627-7.626-7.626c-8.475,0.003-8.011,3.097-9.577,8.158c-0.9,2.909-0.733,4.637,0.171,5.658  c-0.361,0.942-0.561,1.965-0.561,3.031c0,4.688,3.812,8.498,8.498,8.498S45.772,66.227,45.772,61.539z M31.752,61.539  c0-1.256,0.422-2.414,1.131-3.344c0.05-0.107,0.112-0.211,0.189-0.309c0.775-0.961,1.203-2.251,1.207-3.633  c0.002-0.824,0.005-1.078,0.006-1.245c0.002-0.198,0.003-0.271-0.001-1.092c-0.003-0.822,0.661-1.491,1.482-1.494  c0.002,0,0.004,0,0.006,0c0.819,0,1.485,0.662,1.488,1.481c0.003,0.853,0.002,0.929,0,1.137c-0.001,0.163-0.004,0.411-0.006,1.221  c-0.002,0.598-0.061,1.188-0.17,1.76c0.062-0.002,0.125-0.004,0.188-0.004c0.209,0,0.415,0.013,0.618,0.034  c-0.11-0.669-0.167-1.362-0.167-2.067v-4.238c0-0.822,0.667-1.488,1.489-1.488c0.821,0,1.488,0.666,1.488,1.488v4.238  c0,1.703,0.438,3.328,1.201,4.459c0.087,0.13,0.151,0.27,0.193,0.41c0.444,0.795,0.699,1.711,0.699,2.686  c0,3.044-2.477,5.521-5.521,5.521C34.229,67.061,31.752,64.583,31.752,61.539z M37.523,65.938c-1.424,0-2.579-1.154-2.579-2.58  c0-1.424,1.154-2.577,2.579-2.577c1.425,0,2.579,1.153,2.579,2.577C40.102,64.783,38.948,65.938,37.523,65.938z M48.433,65.844  c-0.279-0.29-0.432-0.679-0.42-1.08c0.082-2.91,1.004-4.582,2.534-4.582c1.527,0,2.449,1.672,2.531,4.582  c0.012,0.401-0.139,0.79-0.42,1.08c-0.279,0.287-0.664,0.449-1.066,0.449h-2.09C49.099,66.293,48.715,66.131,48.433,65.844z   M50.547,70.812c-8.109,0-14.224,3.039-14.224,7.071c0,0.134,0.009,0.248,0.019,0.355c0.067,0.768,0.711,1.355,1.482,1.355h25.443  c0.77,0,1.411-0.587,1.481-1.353c0.008-0.102,0.021-0.223,0.021-0.359C64.77,73.852,58.654,70.812,50.547,70.812z M48.8,76.564  c-0.992-0.062-1.919-0.174-2.776-0.326v-2.291H48.8V76.564z M52.256,77.459c-0.551,0.033-1.121,0.053-1.709,0.053  c-0.363,0-0.719-0.008-1.066-0.021v-3.543h2.775V77.459z M55.715,76.458c-0.852,0.179-1.779,0.317-2.777,0.404v-2.915h2.777V76.458z   M65.969,52.312c0,1.425-1.154,2.58-2.578,2.58c-1.426,0-2.58-1.155-2.58-2.58c0-1.424,1.154-2.579,2.58-2.579  C64.814,49.734,65.969,50.891,65.969,52.312z M63.391,43.816c-4.688,0-8.498,3.812-8.498,8.497c0,4.686,3.812,8.498,8.498,8.498  s8.498-3.812,8.498-8.498C71.889,47.627,68.076,43.816,63.391,43.816z M63.391,57.836c-3.045,0-5.522-2.477-5.522-5.521  c0-3.044,2.479-5.521,5.522-5.521s5.521,2.477,5.521,5.521C68.91,55.359,66.434,57.836,63.391,57.836z M86.883,44.901  c-1.23-1.613-2.857-2.501-4.582-2.501c-0.795,0-1.58,0.193-2.322,0.564c0.121-2.159,0.277-5.068,0.172-7.699  c-0.02-0.483-0.271-0.927-0.678-1.19c-0.406-0.263-0.914-0.312-1.363-0.132c-0.151,0.062-0.309,0.115-0.463,0.172  c-0.155-2.16-0.879-4.171-2.018-5.841c0.271-1.041,0.412-2.12,0.412-3.21c0-6.6-5.062-11.97-11.285-11.97l0,0  c-1.619,0-3.18,0.359-4.641,1.061c-2.127-1.168-4.562-1.696-7.041-1.49c-1.811-6.673-7.672-11.001-13.431-9.757  c-3.9,0.843-6.786,3.835-7.899,7.802c-1.894-0.497-3.905-0.637-5.952-0.352c-8.609,1.198-14.577,9.429-13.331,18.384  c0.768,5.519,4.097,10.021,8.553,12.387c0.064,0.583,0.127,1.169,0.186,1.723c-0.67-0.297-1.37-0.45-2.081-0.45  c-1.723,0-3.35,0.888-4.582,2.501c-2.364,3.095-2.881,8.222-1.383,13.714c1.252,4.591,4.615,9.223,9.45,9.883  c0.776,3.929,3.132,15.767,12.01,21.185c0.756,0.461,1.292,1.155,1.914,1.959c1.906,2.467,4.278,5.533,14.169,5.539  c0.002,0,0.002,0,0.004,0h0.01c0.002,0,0.012,0,0.012,0s0.002,0,0.004,0c9.89-0.006,12.263-3.072,14.166-5.539  c0.623-0.804,1.16-1.498,1.914-1.959c8.877-5.418,11.234-17.256,12.012-21.185c4.835-0.66,8.195-5.292,9.447-9.883  C89.766,53.123,89.248,47.996,86.883,44.901z M56.586,24.61c0.174,0.066,0.352,0.098,0.529,0.098c0.6,0,1.164-0.365,1.393-0.959  c0.291-0.768-0.094-1.628-0.861-1.92c-1.489-0.568-2.994-0.938-4.559-1.122c0.447-1.587,0.629-3.312,0.494-5.093  c2.871-0.158,5.641,0.961,7.604,3.128c0.295,0.324,0.697,0.489,1.104,0.488c0.354,0,0.715-0.127,1-0.385  c0.608-0.552,0.653-1.493,0.104-2.102c-0.144-0.159-0.293-0.31-0.441-0.459c0.588-0.141,1.189-0.212,1.805-0.212l0,0  c4.582,0,8.309,4.034,8.309,8.992c0,0.175-0.008,0.349-0.018,0.522c-1.305-0.959-2.822-1.611-4.471-1.852  c-0.814-0.118-1.568,0.445-1.688,1.259c-0.121,0.814,0.444,1.568,1.258,1.687c3.729,0.542,6.541,4.103,6.559,8.289  c-1.422,0.3-2.881,0.457-4.367,0.457c-1.061,0-2.1-0.079-3.115-0.229c-0.131-0.911-0.358-1.813-0.688-2.692  c-0.287-0.771-1.145-1.163-1.914-0.875c-0.771,0.288-1.164,1.145-0.875,1.915c0.113,0.302,0.209,0.608,0.293,0.917  c-5.572-1.757-10.029-5.773-12.1-10.872C53.553,23.702,55.076,24.036,56.586,24.61z M85.395,57.832  c-1.02,3.742-3.885,7.77-7.764,7.77c-0.455,0-1.262,0.187-1.551,1.438c-0.049,0.211-0.105,0.495-0.178,0.855  c-0.709,3.586-2.865,14.498-10.646,19.248c-1.225,0.746-1.982,1.729-2.717,2.679c-1.666,2.153-3.387,4.381-11.828,4.383  c-8.441-0.002-10.163-2.229-11.828-4.383c-0.734-0.95-1.493-1.933-2.717-2.679c-7.782-4.75-9.938-15.662-10.646-19.248  c-0.071-0.36-0.127-0.646-0.177-0.855c-0.291-1.251-1.098-1.438-1.552-1.438c-3.879,0-6.744-4.026-7.764-7.77  c-1.478-5.421-0.516-9.3,0.877-11.124c0.655-0.858,1.443-1.331,2.216-1.331c0.86,0,1.77,0.591,2.561,1.664  c0.294,0.399,0.741,0.627,1.227,0.627c0.423,0,0.839-0.187,1.121-0.502c0.521-0.582,0.461-1.227,0.301-2.95  c-0.101-1.084-0.261-2.538-0.446-4.221c-0.387-3.524-0.882-8.029-1.054-11.253c-0.388-3.521,1.423-7.297,3.875-9.662  c0.221-0.174,0.453-0.337,0.695-0.49c4.158-2.618,9.803-1.126,12.61,3.332c1.114,1.771,1.612,3.744,1.548,5.643  c1.696-2.754,1.829-6.279,0.037-9.126c-0.564-0.897-1.273-1.651-2.081-2.253c3.609,1.05,6.527,3.826,7.396,7.845  c0.302,1.396,0.32,2.787,0.094,4.108c1.062-0.464,2.023-1.117,2.863-1.919c3.629,7.195,11.441,12.186,20.471,12.186  c2.355,0,4.658-0.334,6.869-0.996c-0.01,1.963-0.121,3.958-0.207,5.523c-0.174,3.12-0.205,3.682,0.367,4.289  c0.289,0.303,0.691,0.479,1.109,0.479c0.496,0,0.957-0.238,1.264-0.656c0.791-1.073,1.701-1.664,2.561-1.664  c0.775,0,1.562,0.473,2.217,1.331C85.912,48.531,86.873,52.411,85.395,57.832z M81.512,53.818c0.023,0.6-0.055,1.347-0.221,2.102  c-0.633,2.864-1.803,3.466-2.672,3.466c-0.131,0-0.262-0.015-0.387-0.043c-0.179-0.038-0.349-0.104-0.506-0.19  c-0.229-0.129-0.347-0.395-0.289-0.649c0.438-1.958,0.684-4.021,0.723-6.128c0.004-0.176,0.084-0.341,0.219-0.451  c0.359-0.292,0.76-0.438,1.193-0.438c0.131,0,0.262,0.013,0.385,0.041C80.51,51.646,81.441,52.105,81.512,53.818z M23.38,58.502  c0.058,0.256-0.06,0.521-0.289,0.648c-0.157,0.089-0.328,0.153-0.506,0.191c-0.125,0.028-0.255,0.043-0.385,0.043  c-0.87,0-2.039-0.602-2.672-3.466c-0.166-0.755-0.244-1.502-0.22-2.103c0.069-1.713,1.002-2.172,1.552-2.293  c0.125-0.027,0.255-0.041,0.386-0.041c0.433,0,0.833,0.146,1.192,0.438c0.137,0.11,0.217,0.275,0.221,0.451  C22.699,54.482,22.941,56.544,23.38,58.502z"></path></svg>