<svg xmlns="http://www.w3.org/2000/svg" xmlns:xlink="http://www.w3.org/1999/xlink" version="1.1" x="0px" y="0px" viewBox="0 0 300 100" enable-background="new 0 0 100 100" xml:space="preserve"><g transform="translate(95, -5)"><path d="M63.414,83.611c0-1.098-0.424-2.14-1.183-2.947c0.321-0.186,0.614-0.383,0.893-0.584c-0.087-0.138-0.176-0.275-0.243-0.426  l-0.21-0.474c-0.44,0.33-0.949,0.643-1.522,0.935l-0.705,0.358l0.626,0.482c0.854,0.659,1.345,1.627,1.345,2.655  c0,0.47-0.103,0.931-0.305,1.372l-0.186,0.405l0.382,0.23c0.354,0.214,0.513,0.652,0.379,1.043  c-0.123,0.357-0.459,0.598-0.837,0.598c-0.097,0-0.194-0.017-0.288-0.049c-0.239-0.083-0.382-0.25-0.459-0.375l-0.237-0.387  l-0.408,0.199c-1.307,0.64-2.769,0.451-3.855-0.42l-0.271-0.216l-0.297,0.177c-0.354,0.21-0.729,0.381-1.116,0.507l-0.358,0.118  l0.014,0.377c0.008,0.185-0.017,0.357-0.078,0.527l-0.219,0.582l0.615,0.089c0.058,0.008,0.116,0.021,0.17,0.039  c0.462,0.159,0.708,0.663,0.549,1.125c-0.155,0.447-0.663,0.707-1.124,0.548c-0.382-0.132-0.624-0.507-0.589-0.913l0.054-0.619  l-0.616,0.08c-0.219,0.029-0.444,0.01-0.644-0.058c-0.582-0.201-0.965-0.754-0.952-1.376l0.008-0.376l-0.359-0.111  c-2.171-0.674-3.69-2.525-3.87-4.717l-0.031-0.374l-0.368-0.075c-0.509-0.103-0.996-0.225-1.467-0.358l-0.535,0.886  c0.465,0.138,0.944,0.266,1.446,0.376c0.331,2.324,1.932,4.273,4.197,5.104c0.12,0.899,0.731,1.664,1.606,1.966  c0.183,0.062,0.373,0.103,0.568,0.118c0.133,0.637,0.589,1.173,1.227,1.392c0.198,0.068,0.405,0.104,0.613,0.104  c0.805,0,1.521-0.512,1.781-1.271c0.318-0.923-0.126-1.928-0.998-2.327c0.001-0.008,0.001-0.016,0.002-0.023  c0.235-0.091,0.467-0.196,0.691-0.314c1.242,0.858,2.831,1.065,4.274,0.496c0.199,0.202,0.44,0.354,0.711,0.446  c0.198,0.068,0.405,0.104,0.613,0.104c0.804,0,1.521-0.512,1.782-1.272c0.238-0.692,0.044-1.455-0.462-1.955  C63.331,84.571,63.414,84.096,63.414,83.611z"></path><path d="M39.26,76.181c-0.339-0.058-0.678-0.114-1.016-0.179c0.031,1.036,0.472,2.027,1.266,2.921l0.549-0.909  C39.6,77.431,39.326,76.813,39.26,76.181z"></path><path d="M64.354,41.517c0.061-0.164,0.104-0.333,0.132-0.505l0.1-0.63c-0.671-1.884-1.547-3.571-2.644-5.082  c-0.768-1.059-1.233-2.243-1.426-3.452l-1.284,8.062l-1.716,4.659l0.659,0.937l-1.117,0.734l1.117,0.804h-1.571l-0.945,2.564  c-0.513,1.389,0.199,2.931,1.589,3.442c0.306,0.113,0.618,0.166,0.927,0.166c1.091,0,2.116-0.671,2.516-1.755l2.624-7.122  l-0.358-1.854l0.784,0.697L64.354,41.517z"></path><path d="M91.686,60.234c-0.627-1.505-2.36-2.214-3.856-1.588l-5.294,2.208l-0.264-2.901l-1.479-0.185l1.334-1.409l-0.714-7.859  l-0.122-1.341c-0.023-0.254-0.088-0.492-0.171-0.721c0.076-0.584,0.09-1.184,0.017-1.794c-0.172-1.44-0.421-2.831-0.712-4.193  l-2.365-0.334l1.366-0.849l-1.073-0.804l1.326-1c-0.593-2.033-1.335-3.961-2.212-5.791l1.034,0.281l3.122,0.849l0.665,1.795  l0.621-0.377l-0.28,1.299l2.925,7.898c0.401,1.082,1.425,1.751,2.515,1.751c0.31,0,0.624-0.054,0.932-0.168  c1.389-0.514,2.097-2.057,1.583-3.445l-2.4-6.48l-1.432,0.261l0.76-2.076l-1.339-3.614c-0.301-0.812-0.976-1.429-1.812-1.656  l-2.689-0.731l-0.131,0.608l-2.115-1.21l0.01-0.006l-4.904-1.333l-1.624-0.442c-0.533-0.417-1.115-0.749-1.727-0.998l-1.03,0.758  l-0.203-1.134c-1.932-0.408-4.022-0.036-5.746,1.215c-2.388,1.733-3.401,4.652-2.827,7.363l1.581,0.306l-0.804,0.715l1.609,0.586  l-1.287,0.956c0.041,0.061,0.076,0.124,0.12,0.184c1.984,2.735,3.277,6.004,3.938,9.95l2.681,0.703l-2.576,0.022  c0.042,0.288,0.09,0.569,0.125,0.864c0.003,0.021,0.008,0.041,0.01,0.062c-0.069,0.192-0.121,0.394-0.15,0.604l-0.181,1.341  l-1.496,11.089l1.719,0.719l-1.228,0.357v1.162l-0.742-0.378l-0.432,3.198c0.445,0.686,0.782,1.456,0.977,2.293  c0.049,0.209,0.085,0.419,0.115,0.629c0.521,0.405,1.153,0.629,1.802,0.629c0.256,0,0.513-0.033,0.765-0.101l2.382-0.64l0.495-1.162  l1.213,0.703l1.899-0.51c1.573-0.423,2.506-2.041,2.084-3.613c-0.422-1.573-2.043-2.504-3.613-2.084l-1.708,0.459l0.663-4.917  l-1.185-1.209l1.419-0.521l0.167-1.237l0.109-0.811c0.667,0.203,1.37,0.316,2.094,0.316c0.287,0,0.577-0.017,0.87-0.052  c0.358-0.043,0.703-0.12,1.042-0.211l0.074,0.813l0.509,5.595l1.179,1.292h-1.062l0.473,5.208c0.085,0.936,0.61,1.774,1.415,2.259  c0.15,0.091,0.315,0.143,0.476,0.205l0.06-0.03c0.857-0.432,1.808-0.476,2.654-0.2l4.027-1.679v-1.727l1.095,0.523v-1.43  l1.897,1.386l1.451-0.605C91.603,63.465,92.312,61.737,91.686,60.234z"></path><path d="M37.591,75.861c-0.642-0.132-1.286-0.256-1.922-0.414c-1.687-0.418-3.088-1.402-4.05-2.7l-4.56,2.142H10.364  c-1.481,0-2.681,1.201-2.681,2.682s1.2,2.682,2.681,2.682h17.294c0.394,0,0.783-0.087,1.14-0.255l8.75-4.111  C37.564,75.88,37.576,75.869,37.591,75.861z"></path><circle cx="24.306" cy="68.791" r="5.809"></circle><polygon points="68.525,73.098 67.18,72.151 67.769,73.479 "></polygon><path d="M87.014,74.643l-7.946,0.944l-10.049,5.071l1.584,1.114c0.499,0.352,1.093,0.537,1.697,0.537  c0.115,0,0.231-0.007,0.348-0.021L87.709,80.5c1.617-0.192,2.773-1.659,2.581-3.276C90.098,75.605,88.626,74.451,87.014,74.643z"></path><path d="M47.289,74.069l-8.573-10.771c0.581,0.188,1.115,0.54,1.524,1.054l7.468,9.383c0.605,0.761,0.816,1.734,0.628,2.651  c0.379-0.005,0.759-0.02,1.139-0.034c-0.031-0.317-0.059-0.755-0.053-1.273c0.01-0.268-0.054-0.353-0.148-0.6  c-0.101-0.224-0.263-0.511-0.393-0.845c-0.134-0.335-0.25-0.695-0.32-1.09c-0.04-0.224-0.062-0.353-0.082-0.573  c-0.012-0.22-0.019-0.444,0.01-0.682c0.055-0.469,0.264-0.982,0.572-1.332c0.296-0.359,0.622-0.585,0.847-0.759  c0.123-0.089,0.202-0.166,0.286-0.232c0.03-0.034,0.042-0.013,0.085-0.071l0.063-0.098c0,0,0.042-0.079,0.009-0.002l0.012-0.022  c0.074-0.113,0.12-0.332,0.114-0.554c-0.015-0.451-0.126-0.889-0.201-1.188c-0.012-0.044-0.022-0.079-0.032-0.118  c-0.325,0.118-0.672,0.19-1.038,0.19c-1.522,0-2.781-1.117-3.009-2.575c-0.058,0.005-0.115,0.018-0.174,0.018  c-0.253,0-0.494-0.047-0.716-0.133c-0.555-0.215-0.987-0.673-1.173-1.243c-0.037-0.114-0.064-0.233-0.081-0.355  c-1.702-0.169-3.386-0.456-5.045-0.867c-0.25-0.062-0.501-0.106-0.751-0.138c-0.08-0.01-0.16-0.014-0.241-0.022  c-0.171-0.016-0.341-0.028-0.51-0.031c-0.038-0.001-0.077-0.007-0.115-0.007c-0.036,0-0.07,0.008-0.106,0.009  c-0.331,0.005-0.66,0.029-0.982,0.083c-0.031,0.005-0.06,0.013-0.091,0.019c-0.311,0.056-0.615,0.135-0.912,0.234  c-0.042,0.014-0.086,0.025-0.128,0.04c-0.301,0.106-0.593,0.237-0.875,0.385c-0.055,0.029-0.11,0.059-0.165,0.089  c-0.278,0.155-0.546,0.327-0.799,0.52c-0.037,0.028-0.071,0.059-0.107,0.088c-0.245,0.195-0.478,0.405-0.694,0.633  c-0.02,0.021-0.041,0.039-0.06,0.06c-0.221,0.238-0.42,0.498-0.605,0.769c-0.035,0.051-0.07,0.102-0.104,0.154  c-0.175,0.272-0.332,0.557-0.467,0.857c-0.024,0.053-0.044,0.108-0.067,0.161c-0.134,0.319-0.253,0.647-0.338,0.994  c-0.89,3.594,1.302,7.228,4.896,8.118c1.811,0.448,3.641,0.782,5.484,1.021l-6.068-7.623c-0.409-0.514-0.633-1.115-0.686-1.723  l7.412,9.313l-4.622,7.654c-0.765,1.268-0.358,2.916,0.91,3.681c0.433,0.262,0.911,0.387,1.383,0.387  c0.908,0,1.794-0.462,2.298-1.296l5.586-9.251C48.066,76.165,47.987,74.946,47.289,74.069z M45.628,69.74  c-0.136,0-0.246-0.11-0.246-0.246c0-0.136,0.11-0.246,0.246-0.246c0.136,0,0.246,0.11,0.246,0.246  C45.874,69.63,45.764,69.74,45.628,69.74z M46.277,66.849c0.192,0,0.348,0.217,0.348,0.485c0,0.268-0.156,0.485-0.348,0.485  c-0.004,0-0.008-0.003-0.013-0.004c0.005,0.036,0.013,0.07,0.013,0.109c0,0.256-0.119,0.464-0.267,0.464  c-0.147,0-0.267-0.208-0.267-0.464c0-0.219,0.089-0.395,0.207-0.443c-0.011-0.047-0.021-0.095-0.021-0.147  C45.929,67.066,46.085,66.849,46.277,66.849z M45.628,65.071c0.275,0,0.499,0.223,0.499,0.499c0,0.275-0.223,0.499-0.499,0.499  c-0.275,0-0.499-0.223-0.499-0.499C45.129,65.294,45.353,65.071,45.628,65.071z"></path><path d="M83.179,69.606c-0.734-1.455-2.507-2.037-3.962-1.304l-11.71,5.909l-4.709-10.626c-0.568-1.283-1.94-1.955-3.264-1.694  c-0.06-0.012-0.115-0.035-0.175-0.045c-0.002,0-0.004,0-0.006-0.001c-0.332-0.057-0.672-0.081-1.015-0.086  c-0.036-0.001-0.07-0.009-0.105-0.009c-0.028,0-0.056,0.004-0.084,0.005c-0.162,0.002-0.325,0.014-0.488,0.028  c-0.078,0.007-0.156,0.009-0.234,0.018c-0.242,0.029-0.485,0.07-0.727,0.127c-0.388,0.091-0.775,0.175-1.162,0.254  c0.048,0.136,0.088,0.276,0.116,0.42s0.043,0.293,0.043,0.445v0c0,0.179-0.018,0.353-0.053,0.522  c-0.034,0.169-0.085,0.331-0.151,0.486c-0.131,0.31-0.321,0.589-0.555,0.823c-0.167,0.167-0.363,0.301-0.57,0.418  c0.002,0.002,0.009,0.008,0.009,0.008c1.48,1.475,0.363,3.687-0.106,4.19s0.637,1.91,0.871,2.447s0.034,1.441-1.207,0  c-1.24-1.441-1.877-3.385-1.587-3.653c0.29-0.268,1.084-0.67,1.02-1.274c-0.064-0.603-1.142-0.972-1.008-1.274  c0.028-0.062,0.077-0.123,0.13-0.184c-0.184-0.048-0.36-0.113-0.527-0.196c-0.305,0.64-0.825,1.158-1.467,1.458  c0.019,0.017,0.036,0.03,0.056,0.049c0.235,0.227,0.574,0.561,0.822,1.134c0.117,0.286,0.236,0.655,0.136,1.125l-0.018,0.087  l-0.035,0.103l-0.035,0.111c-0.027,0.079-0.107,0.229-0.165,0.327c-0.111,0.184-0.25,0.347-0.371,0.48  c-0.254,0.276-0.461,0.482-0.588,0.674c-0.127,0.19-0.186,0.355-0.212,0.583c-0.017,0.112-0.017,0.239-0.015,0.369l0.036,0.465  c0.032,0.29,0.076,0.593,0.138,0.887c0.062,0.296,0.136,0.602,0.192,0.962c0.073,0.333,0.024,0.839-0.106,1.08  c-0.172,0.444-0.344,0.811-0.485,1.088c1.275-0.055,2.553-0.14,3.836-0.291c0.044-0.005,0.088-0.014,0.131-0.019  c-0.032-0.042-0.06-0.088-0.06-0.145c0-0.136,0.11-0.246,0.246-0.246c0.136,0,0.246,0.11,0.246,0.246  c0,0.034-0.023,0.057-0.036,0.087c1.842-0.236,3.69-0.557,5.543-0.991c0.322-0.075,0.628-0.18,0.927-0.297l-3.163-7.135  c-0.288-0.65-0.359-1.341-0.248-1.993c0.039,0.141,0.077,0.282,0.138,0.42l5.966,13.461c0.327,0.738,0.943,1.311,1.704,1.582  c0.321,0.115,0.657,0.172,0.992,0.172c0.457,0,0.912-0.106,1.329-0.316l14.479-7.307C83.329,72.835,83.913,71.061,83.179,69.606z   M53.507,73.058c-0.136,0-0.246-0.11-0.246-0.246c0-0.136,0.11-0.246,0.246-0.246c0.136,0,0.246,0.11,0.246,0.246  C53.753,72.948,53.643,73.058,53.507,73.058z M54.931,74.962c-0.2,0-0.362-0.162-0.362-0.362c0-0.2,0.162-0.362,0.362-0.362  c0.2,0,0.362,0.162,0.362,0.362C55.293,74.8,55.131,74.962,54.931,74.962z"></path><path d="M58.174,26.802c-0.587,0-1.064,0.477-1.064,1.064s0.477,1.064,1.064,1.064s1.064-0.477,1.064-1.064  S58.761,26.802,58.174,26.802z M58.174,28.43c-0.312,0-0.564-0.253-0.564-0.564s0.253-0.564,0.564-0.564s0.564,0.253,0.564,0.564  S58.485,28.43,58.174,28.43z"></path><path d="M57.695,35.962c-0.475,0-0.862,0.387-0.862,0.862c0,0.475,0.387,0.862,0.862,0.862c0.475,0,0.862-0.387,0.862-0.862  C58.557,36.349,58.171,35.962,57.695,35.962z M57.695,37.187c-0.2,0-0.362-0.162-0.362-0.362c0-0.05,0.01-0.098,0.028-0.141  c0.055-0.13,0.184-0.221,0.334-0.221c0.15,0,0.279,0.091,0.334,0.221c0.018,0.043,0.028,0.091,0.028,0.141  C58.057,37.025,57.895,37.187,57.695,37.187z"></path><path d="M59.507,30.754c0.411,0,0.746-0.335,0.746-0.746c0-0.411-0.335-0.746-0.746-0.746c-0.411,0-0.746,0.335-0.746,0.746  C58.761,30.42,59.096,30.754,59.507,30.754z M59.333,29.835c0.044-0.044,0.106-0.072,0.174-0.072c0.136,0,0.246,0.11,0.246,0.246  c0,0.136-0.11,0.246-0.246,0.246c-0.068,0-0.129-0.028-0.174-0.072s-0.072-0.106-0.072-0.174  C59.261,29.94,59.289,29.879,59.333,29.835z"></path><path d="M57.442,35.09c0.617,0,1.064-0.685,1.064-1.628c0-0.147-0.014-0.293-0.042-0.443c0.136-0.278,0.209-0.617,0.209-0.979  c0-0.944-0.448-1.628-1.064-1.628s-1.064,0.685-1.064,1.628c0,0.147,0.014,0.293,0.042,0.443c-0.136,0.278-0.209,0.617-0.209,0.979  C56.378,34.405,56.826,35.09,57.442,35.09z M57.118,32.563c-0.042-0.158-0.073-0.331-0.073-0.523c0-0.623,0.253-1.128,0.564-1.128  s0.564,0.505,0.564,1.128c0,0.377-0.098,0.694-0.24,0.899c0.042,0.158,0.073,0.331,0.073,0.523c0,0.623-0.253,1.128-0.564,1.128  s-0.564-0.505-0.564-1.128C56.878,33.085,56.976,32.768,57.118,32.563z"></path><path d="M55.457,35.629c0.411,0,0.746-0.335,0.746-0.746c0-0.411-0.335-0.746-0.746-0.746c-0.411,0-0.746,0.335-0.746,0.746  C54.711,35.295,55.046,35.629,55.457,35.629z M55.283,34.71c0.044-0.044,0.106-0.072,0.174-0.072c0.136,0,0.246,0.11,0.246,0.246  c0,0.136-0.11,0.246-0.246,0.246c-0.068,0-0.129-0.028-0.174-0.072s-0.072-0.106-0.072-0.174  C55.211,34.815,55.239,34.754,55.283,34.71z"></path><path d="M57.124,21.885l0.34,1.652c0.262,0.189,0.54,0.355,0.833,0.499c-0.025,0.178-0.042,0.37-0.042,0.599  c0,1.29,0.791,1.867,1.575,1.867c0.29,0,0.567-0.081,0.782-0.228c0.313-0.215,0.527-0.598,0.588-1.051  c0.028-0.206,0.014-0.409-0.021-0.605c2.824-0.156,5.108-2.323,5.44-5.096l-0.646-0.253l0.335-0.316l-0.335-0.622l0.566-0.705  c-0.493-2.349-2.406-4.169-4.799-4.536l-0.885,0.549v-0.623c-3.208,0-5.809,2.601-5.809,5.809c0,1.38,0.484,2.647,1.288,3.644  L57.124,21.885z M59.872,22.645c0.581-0.536,0.52-0.861,0.982-1.073c0,0,0.021-0.011,0.053-0.027  c0.01-0.005,0.024-0.012,0.036-0.018c0.036-0.018,0.081-0.039,0.136-0.064c0.018-0.008,0.033-0.015,0.052-0.024  c0.073-0.033,0.156-0.067,0.249-0.103c0.02-0.008,0.041-0.015,0.061-0.022c0.076-0.028,0.156-0.055,0.239-0.08  c0.03-0.009,0.06-0.018,0.09-0.026c0.107-0.029,0.216-0.056,0.323-0.071c0.085-0.012,0.169-0.02,0.249-0.02  c0.013,0,0.023,0.006,0.036,0.006c0.08,0.002,0.151,0.02,0.222,0.039c0.037,0.01,0.077,0.013,0.111,0.028  c0.098,0.044,0.183,0.107,0.244,0.204c0.447,0.715-0.627,1.073-1.453,1.207c-0.62,0.101-1.126,0.665-1.171,1.14  c-0.015,0.158,0.021,0.307,0.121,0.424c0.401,0.472,0.332,1.385-0.125,1.698c-0.061,0.042-0.134,0.074-0.214,0.098  c-0.026,0.008-0.054,0.009-0.081,0.015c-0.057,0.012-0.114,0.022-0.175,0.024c-0.01,0-0.019,0.004-0.029,0.004  c-0.064,0-0.129-0.007-0.195-0.019c-0.008-0.002-0.016-0.005-0.024-0.007c-0.07-0.015-0.139-0.039-0.207-0.071  c-0.022-0.01-0.043-0.021-0.064-0.033c-0.06-0.033-0.118-0.074-0.172-0.122c-0.014-0.013-0.03-0.023-0.044-0.036  c-0.065-0.064-0.123-0.141-0.174-0.23c-0.012-0.021-0.021-0.046-0.032-0.068c-0.037-0.076-0.068-0.16-0.093-0.253  c-0.009-0.034-0.018-0.067-0.026-0.103c-0.026-0.128-0.044-0.265-0.044-0.423C58.755,23.226,59.291,23.181,59.872,22.645z"></path></g></svg>