<svg xmlns="http://www.w3.org/2000/svg" xmlns:xlink="http://www.w3.org/1999/xlink" version="1.1" x="0px" y="0px" viewBox="0 0 396.736 202.531" style="enable-background:new 0 0 396.736 202.531;" xml:space="preserve"><g><path d="M121.983,98.374c6.774,7.576,17.52,9.479,26.277,5.391l-30.47-12.278C118.741,93.949,120.119,96.29,121.983,98.374z"></path><path d="M137.009,60.979c-4.75,0.366-9.423,2.213-13.249,5.632c-1.433,1.281-2.638,2.717-3.663,4.242l40.789,16.438   c1.153-6.557-0.584-13.554-5.364-18.9c-2.107-2.357-4.602-4.159-7.298-5.409l-7.724,7.724L137.009,60.979z"></path><path d="M91.794,81.011c-2.476-0.996-4.416-2.902-5.463-5.361c-1.046-2.457-1.072-5.176-0.072-7.652   c1.533-3.805,5.174-6.264,9.276-6.264c1.281,0,2.539,0.244,3.736,0.727l13.079,5.27c-0.145-2.671-1.001-5.16-2.74-7.167   c-5.761-6.648-18.553-9.971-31.09-0.885c-10.027,7.354-17.179,13.795-23.519,21.796l3.498,4.897l-1.333,3.332l4,4l-10.334,5.334   l-5.351-3.463c-1.162,1.979-2.334,4.059-3.53,6.266c-4.407,9.855-2.412,16.558,1.624,21.465c0.014,0.156,0.027,0.314,0.047,0.471   l-6.741,26.292l-32.45,27.422c-5.272,4.455-5.936,12.343-1.479,17.615c2.472,2.926,6,4.432,9.553,4.433   c2.85,0,5.715-0.97,8.062-2.954l10.542-8.908l-1.276-10.972l6.667,1l4.333-4.666l7.102,0.417l8.133-6.872   c1.997-1.686,3.391-3.908,4.041-6.44l4.633-18.072l16.029,9.676l-9.258,31.24c-1.962,6.619,1.814,13.575,8.436,15.537   c1.185,0.351,2.381,0.519,3.557,0.519c5.393,0,10.367-3.518,11.979-8.952l11.999-40.502c1.62-5.466-0.644-11.308-5.523-14.252   l-28.459-17.181c3.967-5.981,8.853-11.63,13.845-16.821l4.238,8.364c1.084,2.141,3.057,3.672,5.4,4.193l15.771,3.507l2.744-6.86   l5.243,8.636l6.021,1.339c0.584,0.129,1.167,0.191,1.741,0.191c3.667,0,6.974-2.536,7.805-6.264   c0.956-4.314-1.761-8.587-6.073-9.546l-26.09-5.802l-4.814-9.501c1.431-1.354,2.805-2.652,4.098-3.893L91.794,81.011z"></path><path d="M98.524,64.316c-4.097-1.652-8.759,0.332-10.409,4.43c-1.652,4.098,0.33,8.76,4.429,10.41l72.3,29.135   c0.979,0.396,1.991,0.582,2.987,0.582c3.167,0.002,6.166-1.895,7.422-5.012c1.652-4.098-0.332-8.758-4.428-10.41L98.524,64.316z"></path><path d="M392.076,180.294c-17.182-13.83-26.428-31.691-31.434-47.846c-4.994-16.1-5.551-30.243-5.539-35.169   c0-0.68,0.009-1.182,0.018-1.491c0.004-0.154,0.009-0.258,0.011-0.313v-0.009c0.044-0.825,0.001-1.634-0.11-2.422   c0.6-23.69,1.035-39.421-6.839-60.475c3.57,0.243,6.337,1.323,8.289,3.227c1.139,1.112,2.171,2.594,3.005,4.919   c0.828,2.316,1.412,5.491,1.412,9.709c0.003,4.123-0.561,9.223-1.916,15.359c-0.951,4.313,1.775,8.583,6.091,9.535   c0.58,0.128,1.159,0.189,1.729,0.189c3.673,0,6.982-2.545,7.806-6.28c1.55-7.036,2.288-13.247,2.29-18.804   c-0.002-5.674-0.775-10.683-2.338-15.078c-2.303-6.595-6.625-11.719-11.765-14.727c-5.137-3.042-10.776-4.104-16.08-4.107   c-8.395,0.046-16.211,2.518-22.293,5.902c-0.252,0.142-0.491,0.297-0.722,0.461c-1.955,0.896-3.91,1.792-5.865,2.688   c-1.273,10.041-8.733,18.664-19.177,20.898c-2.159,0.463-4.363,0.633-6.551,0.506c-3.877-0.224-7.532-1.377-10.752-3.23   c-12.763,6.954-33.725,17.467-53.98,23.751c-5.143-2.665-10.801-5.946-16.687-9.956c-13.549-9.23-33.315-24.293-46.617-34.598   c0.574-0.842,1.105-1.623,1.105-1.623s-1.227-2.662-2.472-3.508c-1.244-0.85-9.559-5.598-9.559-5.598l-0.982,1.441   c-1.518-1.193-2.374-1.871-2.374-1.871l-5.372,7.889c0,0,0.873,0.648,2.421,1.801l-2.173,3.19l-4.77,10.127l-7.648,11.227   c0,0,2.513,4.055,8.613,7.121c2.934,1.476,6.688,2.725,11.411,3.18c-0.001-0.059-0.001-0.128-0.002-0.191   c-0.052-4.622-0.264-20.381-0.264-20.381s1.207-2.217,3.367-2.264c1.756-0.039,4.205-0.809,5.441-1.65   c14.365,10.604,34.525,25.371,44.948,32.469c4.406,3.002,9.096,6.012,13.637,8.83c-0.611,1.584-0.734,3.37-0.22,5.125   c1.022,3.489,4.213,5.754,7.674,5.754c0.744,0,1.501-0.104,2.251-0.324c1.733-0.51,3.466-1.055,5.195-1.615   c6.172,3.588,10.37,5.896,10.37,5.896l7.141-10.482c0,0-0.946-0.243-2.653-0.784c19.248-7.641,36.508-16.936,45.735-22.184   c9.313,10.075,15.194,19.275,15.286,35.903c-4.287,0.86-9.172,2.337-14.174,4.899c-5.563,2.888-11.301,7.392-15.502,13.984   c-4.229,6.572-6.645,14.993-6.613,24.548c0.02,11.338,3.129,24.339,9.967,40.036c2.053,4.697,6.645,7.5,11.465,7.5   c1.67,0,3.367-0.337,4.995-1.048c6.327-2.765,9.215-10.132,6.452-16.459c-5.938-13.553-7.9-23.443-7.88-30.029   c0.03-5.612,1.247-8.793,2.684-11.094c1.107-1.721,2.466-3.04,4.185-4.202c2.547-1.728,5.959-2.941,9.18-3.586   c3.209-0.659,6.147-0.778,7.501-0.774c0.325,0,0.56,0.007,0.683,0.012l0.015-0.003c2.9,0.188,5.628-0.64,7.853-2.163   c0.859,7.676,2.535,17.293,5.776,27.801c5.998,19.427,17.567,42.159,39.639,59.933c2.31,1.86,5.081,2.765,7.833,2.765   c3.653,0,7.275-1.595,9.744-4.661C398.301,192.492,397.452,184.623,392.076,180.294z"></path><ellipse transform="matrix(0.9778 -0.2094 0.2094 0.9778 1.7932 61.9496)" cx="293.522" cy="22.504" rx="22.5" ry="22.5"></ellipse><polygon points="115.835,7.603 109.308,10.347 123.546,42.619 126.598,41.619  "></polygon><polygon points="83.774,31.044 114.006,49.214 115.924,46.638 87.527,25.04  "></polygon><polygon points="168.471,75.38 168.544,78.591 204.218,78.142 203.484,71.101  "></polygon><circle cx="167.322" cy="58.204" r="5.5"></circle><circle cx="108.488" cy="30.205" r="4.333"></circle><circle cx="122.822" cy="55.204" r="3.5"></circle><circle cx="149.156" cy="118.038" r="3.5"></circle><circle cx="185.988" cy="95.038" r="4.834"></circle><circle cx="130.572" cy="20.954" r="5.906"></circle></g></svg>