<svg xmlns="http://www.w3.org/2000/svg" xmlns:xlink="http://www.w3.org/1999/xlink" version="1.1" x="0px" y="0px" viewBox="0 0 100 100" enable-background="new 0 0 100 100" xml:space="preserve"><g display="none"><path display="inline" fill="#000000" d="M95,25.581v19.542c0,1.424-0.717,2.581-1.597,2.581h-0.46   c-0.881,0-1.596-1.157-1.596-2.581v-5.692h-1.34v3.855c0,0.998-0.81,1.808-1.808,1.808h-0.447c-0.998,0-1.809-0.81-1.809-1.808   v-3.695h-2.536v0.646c0.014,0.613,0.014,1.182,0,1.706v5.578c0,0.505-0.858,0.96-2.242,1.293l0.038,26.301h10.451   c0.839,0,1.519,0.684,1.519,1.521v2.318c0,0.842-0.68,1.523-1.519,1.523H7.346c-0.842,0-1.525-0.682-1.525-1.523v-2.318   c0-0.838,0.684-1.521,1.525-1.521H53.6c0,0,0,0,5.957-18.053c3.914-12.902,0.081-17.358-24.01-16.814   c-13.76,0-17.377,9.972-17.377,12.832v4.004c0,0.986-0.8,1.785-1.785,1.785H14.64v5.08h-0.288v1.959h-0.577v-1.959h-0.288h-2.57   v-1.158h2.57v-3.922h-0.06h-1.76c-0.988,0-1.788-0.799-1.788-1.785V26.833c0-0.989,0.8-1.787,1.788-1.787h4.717   c0.985,0,26.805,9.478,45.529-0.481c0-0.013-0.099-0.936,0.692-0.936h6.947h4.795h1.13c0.005,0,0.007,0.004,0.012,0.004   c0.06-0.001,0.114-0.004,0.173-0.004c5.574,0,7.746,0,7.746,1.842v5.8h1.543h0.993v-3.804c0-0.998,0.812-1.807,1.809-1.807H88.2   c0.998,0,1.808,0.81,1.808,1.807v3.804h1.34v-5.69c0-1.426,0.715-2.581,1.596-2.581h0.46C94.283,23,95,24.155,95,25.581z"></path></g><g display="none"><path display="inline" fill="#000000" d="M88.041,75.968v-1.26c-0.211-10.149-4.229-13.531-4.229-13.531H59.42   c0,0-0.951-0.847-1.162-3.383V43.206c0,0,0.211-14.164-12.473-11.415c0,0-8.139,1.479-11.959,1.151   c-0.169-1.159-0.804-2.164-1.714-2.819l0.018-1.058c0-0.6-0.601-0.584-0.601-0.584l0.01-1.393c0.863,0,1.56-0.701,1.56-1.563   c0-0.863-0.697-1.562-1.56-1.562h-0.583h-0.591c-0.144,0-0.257-0.021-0.349-0.056c0.211-0.099,0.404-0.225,0.578-0.375   c3.489-0.386,16.739-2.412,16.739-2.412c1.383-0.19,2.351-1.464,2.163-2.848c-0.188-1.383-1.464-2.353-2.848-2.165   c-0.079,0.012-0.155,0.026-0.23,0.044v-0.002l-15.646,3.85c-0.451-0.48-1.086-0.779-1.793-0.779c-1.36,0-2.459,1.101-2.459,2.459   c0,0.104,0.008,0.205,0.021,0.304v6.497h-1.425c-0.678,0-0.529,0.609-0.529,0.609v0.994c-1.098,0.765-1.816,2.032-1.816,3.47v16.63   c0,2.113,1.552,3.86,3.579,4.172v1.93h-1.024v-0.421c0-0.238-0.234-0.428-0.524-0.428c-0.288,0-0.521,0.189-0.521,0.428v2.021   c0,0.238,0.233,0.429,0.521,0.429c0.29,0,0.524-0.19,0.524-0.429v-0.422h1.024v1.509l0.702,0.812h0.303v1.395H16.187   c0,0-4.017,3.382-4.228,13.531v1.26l-2.325,2.257v5.692h80.734v-5.693L88.041,75.968z M27.888,21.676   c0-0.572,0.465-1.033,1.033-1.033c0.575,0,1.037,0.461,1.037,1.033s-0.462,1.035-1.037,1.035   C28.353,22.71,27.888,22.248,27.888,21.676z M45.004,57.881c0,0-0.276,3.296-1.968,3.296H28.954v-1.395h0.303l0.702-0.832v-1.488   h1.025v0.422c0,0.238,0.233,0.429,0.521,0.429s0.524-0.19,0.524-0.429v-2.021c0-0.238-0.236-0.428-0.524-0.428   s-0.521,0.189-0.521,0.428v0.421h-1.025v-1.89c2.19-0.161,3.916-1.983,3.916-4.212v-6.764h9.373c0,0,2.148-0.029,2.148,2.889   L45.004,57.881z"></path></g><g display="none"><path display="inline" fill="#000000" d="M92.882,58.144v2.353c0,0.161-0.088,0.308-0.23,0.382   c-0.075,0.04-7.535,3.954-17.096,5.022c-3.344,0.374-6.72,0.563-10.033,0.563c-1.617,0-3.219-0.046-4.76-0.136   c-4.136-0.246-7.914-0.825-10.926-1.674c-5.812-1.637-9.728-2.298-10.79-2.461c-0.008,0-3.821-0.69-8.621-0.719l-1.355,3.982   c-0.059,0.176-0.224,0.294-0.411,0.294L8.31,65.746c-0.239,0-0.435-0.195-0.435-0.435v-8.204c0-0.193,0.127-0.362,0.312-0.418   c0.183-0.052,0.383,0.022,0.487,0.183l-0.016-0.011c0.038,0.057,1.027,1.614,3.952,1.781c2.704,0.161,12.021-0.133,12.021-0.133   c2.216,0,9.509-0.046,14.744,0.87c1.13,0.17,5.212,0.845,11.271,2.555c3.942,1.111,9.073,1.699,14.837,1.699   c3.206,0,6.484-0.186,9.744-0.548c8.416-0.939,15.94-4.818,16.795-5.247l0.213-0.073c0.132-0.068,0.302-0.065,0.431,0.014   C92.796,57.856,92.882,57.992,92.882,58.144z M13.881,57.776c0,0,4.432,0.111,11.47-0.124c0,0,2.877-0.059,6.927,0.191   c2.229,0.113,4.59,0.31,6.674,0.648c3.071,0.413,6.269,1.027,9.177,1.939c0.798,0.208,1.631,0.43,2.517,0.681   c3.926,1.106,9.032,1.695,14.767,1.699c3.132-0.082,6.318-0.328,9.394-0.673c9.253-1.031,15.825-4.533,15.825-4.533   c1.005-0.461,0.861-1.611,0.861-1.611c-0.142-2.652-1.944-3.983-1.944-3.983c-0.772-0.957-4.812-1.182-6.64-0.957   c-5.335,0.68-11.907-1.093-11.907-1.093c-3.02-0.611-8.3-3.916-11.891-6.349l-2.804,2.804c-0.085,0.085-0.195,0.127-0.307,0.127   c-0.109,0-0.223-0.042-0.307-0.127c-0.17-0.169-0.17-0.444,0-0.614l2.688-2.689c-1.814-1.247-3.056-2.168-3.056-2.168   c-0.002-0.002-0.006-0.003-0.008-0.005l-3.234,3.235c-0.085,0.085-0.195,0.128-0.308,0.128s-0.223-0.042-0.308-0.128   c-0.17-0.17-0.17-0.444,0-0.614l3.137-3.135c-1.058-0.765-2.086-1.445-3.078-2.051l-3.5,3.501   c-0.085,0.084-0.195,0.127-0.308,0.127s-0.223-0.042-0.308-0.127c-0.169-0.17-0.169-0.445,0-0.615l3.35-3.348   c-6.372-3.713-11.008-4.286-11.008-4.286c-0.905-0.331-1.089,0.36-1.089,0.36l0.011,1.121c-2.021,0.755-7.055,1.494-12.138,1.968   c-6.566,0.611-13.234-1.176-15.626-1.56c-0.736-0.117-0.998,0.536-0.998,0.536l-0.621,1.464c0,0-3.081,8.128-1.91,13.742   c0,0,0.044,0.79,0.305,2.007C7.946,54.486,8.744,58.015,13.881,57.776z"></path></g><g display="none"><path display="inline" fill="#000000" d="M92.62,62.555v2.337c0,0.161-0.088,0.307-0.229,0.381c-0.074,0.04-7.49,3.93-16.994,4.992   c-3.324,0.371-6.681,0.561-9.975,0.561c-1.606,0-3.198-0.045-4.729-0.135c-4.112-0.245-7.868-0.819-10.862-1.665   c-5.778-1.626-9.67-2.283-10.726-2.445c-0.009,0-3.798-0.687-8.569-0.715l-1.348,3.958c-0.059,0.175-0.222,0.295-0.408,0.295   l-20.23-0.007c-0.238,0-0.432-0.193-0.432-0.431v-8.157c0-0.191,0.126-0.359,0.31-0.414c0.182-0.053,0.381,0.022,0.484,0.18   l-0.016-0.011c0.038,0.059,1.021,1.606,3.929,1.772c2.688,0.16,11.949-0.132,11.949-0.132c2.203,0,9.454-0.046,14.657,0.865   c1.123,0.169,5.181,0.838,11.205,2.537c3.917,1.105,9.018,1.69,14.749,1.69c3.188,0,6.446-0.185,9.686-0.544   c8.368-0.935,15.847-4.791,16.698-5.217l0.21-0.072c0.132-0.068,0.301-0.067,0.428,0.013C92.535,62.27,92.62,62.403,92.62,62.555z    M14.088,62.188c0,0,4.405,0.11,11.401-0.124c0,0,2.86-0.057,6.887,0.191c2.215,0.112,4.564,0.309,6.634,0.645   c3.053,0.412,6.232,1.021,9.123,1.929c0.795,0.206,1.622,0.427,2.503,0.677c3.902,1.1,8.977,1.685,14.679,1.688   c3.113-0.08,6.281-0.324,9.337-0.667C83.85,65.5,90.384,62.02,90.384,62.02c0.999-0.459,0.857-1.603,0.857-1.603   c-0.142-2.636-1.934-3.959-1.934-3.959c-0.769-0.952-4.782-1.175-6.602-0.952c-5.302,0.677-11.835-1.086-11.835-1.086   c-3.003-0.607-8.251-3.893-11.822-6.312l-0.004,0.003c-0.026-0.02-0.036-0.045-0.064-0.063c-0.605-0.396-1.377-1.082-2.231-1.927   l-2.991,1.704c-0.103,0.059-0.219,0.071-0.327,0.042c-0.105-0.029-0.201-0.099-0.261-0.203c-0.118-0.207-0.046-0.472,0.162-0.59   l2.781-1.585c-0.795-0.821-1.656-1.772-2.54-2.789L50.3,44.567c-0.104,0.059-0.221,0.07-0.329,0.042   c-0.106-0.031-0.2-0.101-0.26-0.203c-0.117-0.208-0.045-0.471,0.161-0.589l3.126-1.781c-0.781-0.911-1.57-1.857-2.347-2.81   l-3.635,2.067c-0.104,0.06-0.221,0.07-0.329,0.042c-0.106-0.03-0.2-0.099-0.26-0.204c-0.118-0.207-0.045-0.471,0.162-0.589   l3.507-1.997c-3.251-4.023-6.117-7.912-6.575-8.672c-0.829-1.383-5.805-0.321-6.717-0.116v-0.002   c-0.004,0.002-6.185,1.921-11.14,1.921c-6.729,0-11.915-0.061-14.293-0.441c-0.731-0.117-1.207,0.532-1.207,0.532l-0.402,1.456   c0,0-3.297,16.906-2.133,22.485c0,0,0.044,0.786,0.303,1.994C8.188,58.917,8.98,62.426,14.088,62.188z"></path></g><g display="none"><path display="inline" d="M96.11,56.706c-0.365-2.827-2.403-4.112-2.403-4.112c-0.906-0.963-5.253-0.875-7.191-0.49   c-5.664,1.159-12.847-0.214-12.847-0.214c-5.313-0.666-17.071-10.228-17.071-10.228c-9.195-6.732-13.273-8.061-13.273-8.061   c-0.997-0.282-1.139,0.475-1.139,0.475l-2.161,18.43l0.277,0.125c0.911,0.248,1.697,0.831,2.235,1.618   c0.017,0.025,0.035,0.049,0.051,0.074c0.02,0.029,0.037,0.06,0.057,0.088c0.367,0.584,0.599,1.271,0.645,2.007   c0.009,0.109,0.014,0.22,0.014,0.331c0.006,2.054-1.354,3.771-3.162,4.174l-0.479,2.297c0.015,0.122,0.03,0.24,0.052,0.354   c0.67,0.049,5.069,0.398,11.955,1.797c7.49,1.513,17.729,1.019,27.049-0.733c9.835-1.852,16.601-6.134,16.601-6.134   C96.358,57.93,96.11,56.706,96.11,56.706z M43.975,44.068c-0.483,0-0.872-0.39-0.872-0.872c0-0.48,0.389-0.87,0.872-0.87   c0.481,0,0.87,0.39,0.87,0.87C44.845,43.679,44.457,44.068,43.975,44.068z M45.688,58.204c-0.483,0-0.872-0.39-0.872-0.87   c0-0.481,0.389-0.871,0.872-0.871c0.481,0,0.871,0.39,0.871,0.871C46.558,57.814,46.168,58.204,45.688,58.204z M66.542,63.588   c-0.48,0-0.87-0.39-0.87-0.869c0-0.484,0.39-0.872,0.87-0.872c0.482,0,0.871,0.388,0.871,0.872   C67.413,63.198,67.024,63.588,66.542,63.588z M36.671,53.498c-0.212,0.007-0.421,0.033-0.621,0.077l-0.132-0.474L28.47,42.71   l-2.078-2.491l-2.37,0.637c-5.759,2.006-14.187,2.2-16.785,2.116C6.43,42.946,6.24,43.678,6.24,43.678L5.78,45.32   c0,0-2.192,9.089-0.184,14.911c0,0,0.156,0.835,0.597,2.099c0.439,1.266,1.764,4.926,7.209,3.976c0,0,4.741-0.48,12.21-1.684   c0,0,6.459-0.887,11.218-0.98l0.604-3.451l0.241,0.044v-0.003c1.502-0.405,2.582-1.797,2.531-3.419   C40.146,54.921,38.564,53.439,36.671,53.498z M25.064,44.468c-0.48,0.015-0.883-0.364-0.897-0.845   c-0.015-0.48,0.362-0.883,0.845-0.897c0.48-0.016,0.882,0.362,0.897,0.843C25.924,44.05,25.546,44.451,25.064,44.468z    M33.288,58.349c-0.481,0.016-0.884-0.361-0.899-0.845c-0.017-0.479,0.362-0.883,0.842-0.896c0.482-0.016,0.884,0.36,0.9,0.843   C34.146,57.931,33.768,58.332,33.288,58.349z"></path></g><g display="none"><path display="inline" d="M94.453,46.472c-1.277-1.099-4.785-4.01-10.347-1.523c-5.116,2.289-9.037,3.652-9.037,3.652   s-6.222,2.887-14.472-2.733L44.399,33.634L42.5,32.238c-2.517-2.091-2.268,1.128-2.268,1.128   c0.153,7.455-0.854,13.566-1.222,15.534c2.373,0.489,4.127,2.609,4.055,5.112c-0.047,1.67-0.907,3.117-2.179,4.008l-0.809,4.962   c2.462,0.19,4.392,0.612,5.98,1.401c7.645,3.796,12.409,3.93,12.409,3.93s4.97,1.775,16.885-6.671l19.02-14.287   C94.371,47.354,94.931,46.884,94.453,46.472z M49.018,58.842c-0.472,0-0.851-0.38-0.851-0.851s0.379-0.852,0.851-0.852   c0.471,0,0.85,0.381,0.85,0.852S49.488,58.842,49.018,58.842z M40.7,53.7c-0.194-1.868-1.863-3.225-3.729-3.031   c-0.209,0.021-0.417,0.064-0.613,0.117l-0.161-0.459l-8.107-9.749l-2.229-2.316c0,0-16.146,3.534-18.76,4.076   C6.327,42.5,6.17,43.111,6.17,43.111l-0.338,1.658c0,0-1.526,9.14,0.872,14.764c0,0,0.213,0.813,0.735,2.03   c0.53,1.224,2.101,4.745,7.421,3.422c0,0,2.893-0.504,7.695-1.562c5.094-0.836,11.459-1.557,15.025-0.699l0.86-5.459h-0.003   l0.003-0.024l0.002,0.018C39.898,56.751,40.87,55.3,40.7,53.7z M15.693,45.71c-0.471,0-0.851-0.381-0.851-0.852   c0-0.471,0.38-0.852,0.851-0.852c0.471,0,0.851,0.381,0.851,0.852C16.543,45.329,16.164,45.71,15.693,45.71z M31.342,55.68   c-0.472,0-0.852-0.378-0.852-0.851c0-0.47,0.379-0.852,0.852-0.852c0.471,0,0.85,0.382,0.85,0.852   C32.191,55.302,31.812,55.68,31.342,55.68z"></path></g><g display="none"><path display="inline" d="M94.453,46.472c-1.277-1.099-4.785-4.01-10.347-1.523c-5.116,2.289-9.037,3.652-9.037,3.652   s-6.222,2.887-14.472-2.733L44.399,33.634L42.5,32.238c-2.517-2.091-2.268,1.128-2.268,1.128   c0.153,7.455-0.854,13.566-1.222,15.534c2.373,0.489,4.127,2.609,4.055,5.112c-0.047,1.67-0.907,3.117-2.179,4.008l-0.809,4.962   c2.462,0.19,4.392,0.612,5.98,1.401c7.645,3.796,12.409,3.93,12.409,3.93s4.97,1.775,16.885-6.671l19.02-14.287   C94.371,47.354,94.931,46.884,94.453,46.472z M40.7,53.7c-0.194-1.868-1.863-3.225-3.729-3.031   c-0.209,0.021-0.417,0.064-0.613,0.117l-0.161-0.459l-8.107-9.749l-2.229-2.316c0,0-16.146,3.534-18.76,4.076   C6.327,42.5,6.17,43.111,6.17,43.111l-0.338,1.658c0,0-1.526,9.14,0.872,14.764c0,0,0.213,0.813,0.735,2.03   c0.53,1.224,2.101,4.745,7.421,3.422c0,0,2.893-0.504,7.695-1.562c5.094-0.836,11.459-1.557,15.025-0.699l0.86-5.459h-0.003   l0.003-0.024l0.002,0.018C39.898,56.751,40.87,55.3,40.7,53.7z"></path></g><g display="none"><path display="inline" d="M95.318,58.505c0,0-6.766,4.282-16.601,6.134c-9.32,1.752-19.559,2.246-27.049,0.733   c-6.886-1.398-11.285-1.748-11.955-1.797c-0.021-0.114-0.037-0.232-0.052-0.354l0.479-2.297c1.809-0.402,3.168-2.12,3.162-4.174   c0-0.111-0.005-0.222-0.014-0.331c-0.045-0.736-0.277-1.423-0.645-2.007c-0.02-0.028-0.037-0.059-0.057-0.088   c-0.016-0.025-0.034-0.049-0.051-0.074c-0.538-0.787-1.324-1.37-2.235-1.618l-0.277-0.125l2.161-18.43c0,0,0.142-0.757,1.139-0.475   c0,0,4.078,1.329,13.273,8.061c0,0,11.758,9.562,17.071,10.228c0,0,7.183,1.373,12.847,0.214c1.938-0.385,6.285-0.473,7.191,0.49   c0,0,2.038,1.285,2.403,4.112C96.11,56.706,96.358,57.93,95.318,58.505z M36.671,53.498c-0.212,0.007-0.421,0.033-0.621,0.077   l-0.132-0.474L28.47,42.71l-2.078-2.491l-2.37,0.637c-5.759,2.006-14.187,2.2-16.785,2.116C6.43,42.946,6.24,43.678,6.24,43.678   L5.78,45.32c0,0-2.192,9.089-0.184,14.911c0,0,0.156,0.835,0.597,2.099c0.439,1.266,1.764,4.926,7.209,3.976   c0,0,4.741-0.48,12.21-1.684c0,0,6.459-0.887,11.218-0.98l0.767-3.451L38,60.234v-0.003c1-0.405,2.419-1.797,2.369-3.419   C40.309,54.921,38.564,53.439,36.671,53.498z"></path></g><g display="none"><path display="inline" d="M85.617,55.809c-0.906-7.248-8.412-6.544-8.412-6.544s-3.605-0.019-7.364,2.488   c-3.757,2.505-9.827,7.803-16.448,3.072c0,0-1.245-0.79-0.896-2.785c0.287-1.652,5.07-5.802,14.175-3.729   c0,0,9.289,2.911,13.597-0.837L90.56,36.375c0,0,1.646-1.463,2.707-1.523c0.181-0.009,0.345,0.021,0.482,0.105   c-0.078-0.048-0.137-0.084-0.137-0.084s0.812,0.471,1.024-0.337c0.211-0.811-1.58-2.622-4.817,0.289l-8.908,8.959   c0,0-3.022,4.066-8.168,2.985c-4.898-1.027-14.304-5.173-21.54,2.59l0.05-0.176l-31.527-6.392c0,0-10.122-1.771-14.48,1.372   l38.083,8.476L5.991,58.757c4.054,3.523,14.294,2.678,14.294,2.678l30.461-4.852c0.418,0.424,0.757,0.67,0.757,0.67   c1.311,1.714,6.669,3.237,6.669,3.237c7.169,9.754,18.896,5.234,18.896,5.234S86.521,63.055,85.617,55.809z M46.999,54.21   c-0.612-0.526-0.681-1.448-0.155-2.059c0.526-0.61,1.448-0.68,2.059-0.154c0.61,0.526,0.68,1.449,0.155,2.061   C48.532,54.668,47.609,54.736,46.999,54.21z M78.798,62.779c-10.214,4.319-15.845-0.448-15.845-0.448   c-3.312-2.249-2.843-3.229-0.893-3.575c1.946-0.345,5.057-1.645,7.593-3.659c2.536-2.013,3.933-2.521,3.933-2.521   c7.125-3.228,9.156,2.074,9.156,2.074C84.712,59.499,78.798,62.779,78.798,62.779z"></path></g><g display="none"><path display="inline" d="M85.295,56.415c-0.577-6.954-7.771-6.581-7.771-6.581s-3.438-0.161-7.126,2.083   c-3.685,2.241-9.689,7.058-15.819,2.277c0,0-0.986-1.107-0.745-2.692c0.242-1.582,5.068-5.334,13.677-2.996   c0,0,8.748,3.147,13.009-0.26l11.594-11.178c0,0,1.628-1.331,2.645-1.346c0.174-0.001,0.328,0.035,0.456,0.12   c-0.074-0.049-0.128-0.086-0.128-0.086s0.757,0.481,0.991-0.282c0.233-0.766-1.404-2.565-4.609,0.084L81.279,44.75   c0,0-3.046,3.761-7.912,2.525c-4.578-1.16-13.234-5.405-20.396,1.356l0.015-0.171l-36.614-1.262c0,0-9.813,0.121-13.351,3.84   l29.95,1.375L3.503,52.949c3.411,3.834,13.215,4.282,13.215,4.282l36.401-0.316c1.661,1.511,5.796,2.878,5.796,2.878   c6.456,9.593,17.828,5.744,17.828,5.744S85.871,63.364,85.295,56.415z M49.379,53.85c-0.624-0.525-0.701-1.462-0.173-2.086   c0.529-0.624,1.462-0.701,2.087-0.171c0.623,0.526,0.699,1.461,0.172,2.085S50.002,54.38,49.379,53.85z M78.509,62.797   c-9.92,3.716-15.649-1.478-15.649-1.478c-1.587-0.949-2.037-2.774-0.164-3.026c1.871-0.253,4.892-1.371,7.393-3.19   c2.5-1.819,3.851-2.252,3.851-2.252c6.93-2.797,8.659,2.342,8.659,2.342C84.284,59.899,78.509,62.797,78.509,62.797z"></path></g><g display="none"><path display="inline" d="M76.043,42.034v13.901c0,0-2.647-1.528-6.221-1.652v-2.354h-1.288V54.3   c-1.264,0.084-2.607,0.374-3.973,0.963v-3.981h-1.289v4.559c-1.741,0.802-3.105,0.988-4.021,0.946   c0.079-0.262,0.146-0.528,0.146-0.819V44.034c0-0.643-0.227-1.211-0.599-1.725c1.384,0.122,3.122,0.033,5.015-0.708   C68.551,39.742,75.1,40.732,76.043,42.034z M57.968,43.371c0.091,0.21,0.141,0.432,0.141,0.663v11.933   c0,0.21-0.052,0.408-0.127,0.602c-0.465,1.192-2.311,2.063-4.759,2.689v-3.18h-1.287v3.476c-1.473,0.306-3.094,0.537-4.733,0.71   v-5.314h-1.289v5.438c-2.004,0.173-3.976,0.261-5.673,0.285v-3.465h-1.289v3.474c-1.641-0.005-3.617-0.071-5.672-0.223v-5.51   h-1.288v5.402c-1.889-0.174-3.778-0.428-5.484-0.773v-3.5h-1.288v3.208c-2.909-0.729-5.006-1.79-5.006-3.319V44.034   c0-3.731,12.395-4.716,18.947-4.716c4.93,0,13.164,0.559,16.94,2.424c0.001,0,0.001,0,0.001,0c0.025,0.012,0.045,0.027,0.067,0.039   c0.282,0.143,0.544,0.29,0.771,0.448c0.017,0.011,0.028,0.026,0.046,0.038c0.223,0.159,0.424,0.327,0.585,0.504   c0.038,0.041,0.052,0.088,0.087,0.131C57.78,43.055,57.896,43.207,57.968,43.371z M34.308,44.034c0,0.399,2.173,0.725,4.852,0.725   s4.852-0.325,4.852-0.725s-2.172-0.725-4.852-0.725S34.308,43.635,34.308,44.034z M56.149,46.235l-0.402-0.759   c-2.671,1.416-9.338,2.369-16.587,2.369c-7.224,0-13.689-0.907-16.474-2.312L22.3,46.303c2.896,1.46,9.514,2.402,16.86,2.402   C46.652,48.705,53.321,47.735,56.149,46.235z M77.253,42.518v13.854l2.534,1.683V44.2L77.253,42.518z"></path></g><g display="none"><path display="inline" fill="#000000" d="M37.994,67.719L61.13,47.605v10.421L43.985,72.933h-4.486   c-0.831,0-1.505-0.676-1.505-1.505V67.719z M61.13,28.801c0-0.83-0.681-1.506-1.511-1.506h-1.531L37.994,44.768v9.572L61.13,34.226   V28.801z M59.619,72.933c0.83,0,1.511-0.676,1.511-1.505v-2.267l-4.339,3.771H59.619z M45.26,76.176h7.87v-3.243h1.954l6.046-5.254   v-8.166L45.26,73.31V76.176z M39.499,27.295c-0.831,0-1.505,0.676-1.505,1.506v3.062l5.254-4.568H39.499z M53.13,27.295v-3.471   h-7.87v3.471h-0.307l-6.959,6.051v9.937l18.387-15.987H53.13z M73.473,34.026c-0.342,0.3-0.693,0.581-1.039,0.842l-0.91,0.862   L61.13,44.137v1.983L37.994,66.234v-3.36L22.759,75.228l15.234-14.767v-4.637L61.13,35.712v2.441l6.288-6.035l2.355-2.052   c0.048-0.043,0.085-0.083,0.129-0.123c0.052-0.046,0.105-0.079,0.159-0.124l1.254-1.092l0.719-0.512c0,0,3.117-2.603,4.721-1.039   c0.043,0.042,0.071,0.103,0.105,0.153c0.027,0.024,0.063,0.034,0.084,0.058C77.931,28.514,76.377,31.485,73.473,34.026z    M75.354,28.736c-0.435-0.493-1.918,0.094-3.312,1.316c-1.4,1.224-2.177,2.612-1.747,3.107c0.436,0.496,1.918-0.095,3.314-1.315   C75.008,30.624,75.785,29.231,75.354,28.736z"></path></g><g display="none"><g display="inline"><path d="M93.928,44.49c-3.945-6.07-12.553-6.879-12.553-6.879c-9.439-0.682-13.14,5.765-13.14,5.765h-5.059    c0,0-2.784,0.269-8.299-2.189c-6.766-2.777-17.786-11.194-33.88-12.68c0,0-5.524-0.89-14.63,0.93c0,0-2.062,1.194,0.062,1.599    c14.262-1.517,22.859,1.618,27.31,3.136c4.452,1.518,12.645,6.878,12.645,6.878c4.156,2.875,9.884,4.917,9.884,4.917l5.593,2.265    l0.293,0.146c-1.027,1.067-3.804,2.439-3.804,2.439c-4.946,1.996-18.828,10.759-18.828,10.759l-4.078,2.083    c-9.026,4.425-14.148,5.006-14.148,5.006c-2.426,0.909-12.847,0.606-12.847,0.606c-2.022,1.111,0,2.123,0,2.123    c8.194,0.709,13.151,0,13.151,0C32.001,70.3,48.806,60.885,48.806,60.885s6.869-4.376,12.32-6.075    c3.751-1.169,5.302-2.483,5.891-3.152h6.17l-1.216,7.549l0.317,0.355c0,0,7.866,0,8.215,0c0.184,0,0.23-0.271,0.23-0.271    l-1.243-8.01l1.416-0.02c0,0,5.322,0.02,10.493,5.266c0,0,0.875,1.116,1.617,0.606c0.87-0.598-2.84-8.064-12.051-9.582    l-6.122-0.506l-1.746-1.375c0,0,1.207-0.914,1.51-1.079c2.319-1.583,5.562-1.821,5.562-1.821s5.841-0.821,10.135,1.562    l2.898,1.776C95.391,47.38,93.928,44.49,93.928,44.49z M68.285,43.349C68.419,43.274,68.75,43.091,68.285,43.349L68.285,43.349z     M68.901,49.08c-0.86,0-1.559-0.695-1.559-1.556s0.698-1.557,1.559-1.557c0.857,0,1.554,0.697,1.554,1.557    S69.759,49.08,68.901,49.08z"></path></g></g><g display="none"><path display="inline" d="M5.88,42.624c0.029,0.116,0.186,0.178,0.284,0.204c1.538-0.566,3.905-0.686,5.632-0.686   c0.837,0,1.404,0.029,1.404,0.029l53.913,2.333c0.144,0.02,3.032,0.443,3.969,2.321c0.828,1.663,3.574,2.439,3.601,2.448   c0.033,0.011,0.386,0.138,0.909,0.393l0.462,0.22l-0.462,0.224c-0.527,0.254-0.883,0.381-0.896,0.386   c-0.045,0.015-2.792,0.79-3.622,2.452c-0.937,1.877-3.824,2.293-3.946,2.312l-53.656,2.264l-0.048-0.018   c-0.493-0.191-1.057-0.291-1.631-0.291l-0.119,0.002c-0.789,0.018-1.354,0.219-1.677,0.596c-0.27,0.316-0.397,0.764-0.381,1.369   c0.029,1.256,0.653,1.814,2.028,1.814l0.118-0.002c0.506-0.014,1.006-0.105,1.482-0.279l0.081-0.016l59.704-0.986   c-0.018,0,1.312-0.293,1.75-1.516c0.513-1.439,2.462-3.432,4.786-3.432h0.103l0.717-0.057l0.069,0.309   c0.016,0.064,0.032,0.131,0.042,0.201l0.164,0.686c1.65,4.275,6.367,4.492,7.297,4.492c0.094,0,0.146-0.004,0.149-0.004   c5.333-0.033,5.95-6.855,6.021-8.336l-2.683,0.33c-0.097,0.248-0.2,0.488-0.32,0.711c-0.159,0.488-0.443,0.859-0.806,1.125   c-0.609,0.619-1.346,0.988-2.142,0.98c-2.032-0.023-3.652-2.447-3.616-5.417c0.032-2.973,1.709-5.362,3.742-5.339   c1.428,0.016,2.638,1.23,3.229,2.973l2.596,0.32c-0.029-0.656-0.162-2.372-0.763-4.064c-1-2.819-2.763-4.26-5.239-4.279   c-0.014,0-0.067-0.001-0.166-0.001c-0.93,0-5.645,0.217-7.306,4.512l-0.159,0.677c-0.006,0.048-0.021,0.114-0.039,0.18   l-0.067,0.308l-0.739-0.058l-0.071,0.002c-2.326,0-4.275-1.994-4.787-3.435c-0.442-1.239-1.779-1.521-1.793-1.525l-59.798-1.052   C9.965,39.27,7.097,41.131,7.07,41.15C5.859,42.11,5.852,42.523,5.88,42.624z M80.402,48.422c0.869,0,1.574,0.707,1.574,1.577   c0,0.872-0.705,1.577-1.574,1.577c-0.872,0-1.579-0.705-1.579-1.577C78.823,49.129,79.53,48.422,80.402,48.422z"></path></g><g display="none"><g display="inline"><path d="M86.349,81.758c0.005,0.218-0.071,0.428-0.218,0.586l-4.819,4.789c-0.153,0.165-0.354,0.252-0.562,0.26    c-0.21,0.008-0.42-0.064-0.586-0.217L32.169,34.083l-7.382,8.104c-2.076,2.124-1.647,5.161-1.647,5.161l0.199,0.746    c0.058,0.197,0.035,0.409-0.063,0.588l-0.661,1.422c-0.101,0.189-0.267,0.318-0.455,0.373c-0.195,0.06-0.404,0.041-0.592-0.062    l-7.51-4.267c-0.181-0.098-0.317-0.264-0.375-0.458c-0.06-0.199-0.034-0.411,0.064-0.591l1.333-1.77    c0.096-0.18,0.264-0.319,0.461-0.375l0.906-0.269c0,0,3.387-0.775,5.814-7.502c0,0,2.048-6.133,4.501-8.844    c2.454-2.709,6.024-4.383,11.919-5.196c5.894-0.814,11.137-3.207,11.137-3.207s3.425-1.544,6.249-5.071l0.757-0.257l0.61,0.674    l-0.443,2.412l-3.401,3.165c0,0-5.302,4.503-12.903,7.852c-2.226,0.979-4.099,2.541-4.162,2.594L86.09,81.19    C86.247,81.34,86.341,81.54,86.349,81.758z"></path></g></g><g display="none"><path display="inline" d="M83.096,77.068l0.024-0.02l-0.205-0.207c-0.043-0.049-0.074-0.102-0.12-0.149   c-0.086-0.092-0.186-0.162-0.277-0.249L43.041,36.633l12.783-16.127l-7.295-8.398L29.951,23.914   c-0.202-0.077-0.416-0.131-0.644-0.14c-1.123-0.043-2.068,0.833-2.111,1.956c-0.009,0.22,0.027,0.43,0.085,0.631L13.707,43.55   l7.607,8.114l17.359-11.078L74.73,84.113c0.028,0.028,0.047,0.062,0.075,0.093c0.003,0.004,0.008,0.006,0.012,0.011l0.006,0.008   l0.001-0.001c2.562,2.705,6.412,3.228,8.612,1.157C85.546,83.398,85.354,79.767,83.096,77.068z"></path></g><g display="none"><path display="inline" d="M29.19,23.706c-0.448-0.443-1.167-0.464-1.629-0.028l-1.216,1.143c-0.466,0.437-0.49,1.161-0.067,1.637   l-4.502,4.237l-0.263,1.941l1.557,1.664l-1.938,1.816l-3-3.188l-1.665-0.05l-0.853,0.801c-0.475,0.446-0.498,1.191-0.052,1.665   l10.499,11.16c0.447,0.475,1.193,0.497,1.666,0.05l0.854-0.802l0.051-1.664l-2.995-3.184l1.942-1.825l1.606,1.706l1.903-0.19   l4.318-4.063l45.215,49.973c0.15,0.145,0.346,0.211,0.539,0.203c0.191-0.005,0.378-0.085,0.52-0.237l4.128-3.896   c0.137-0.146,0.209-0.339,0.203-0.542c-0.007-0.199-0.094-0.386-0.238-0.521l-46.93-48.288c1.938-2.003,9.624-9.268,15.806-5.517   c0,0,0.492,0.312,0.889-0.024c0.702-0.592,0.2-1.243,0.2-1.243C43.644,13.57,32.138,21.321,29.19,23.706z"></path></g><g display="none"><path display="inline" d="M79.774,65.739c0.575,0.674,0.526,1.223,0.526,1.223v5.868H69.05c0,0-2.017-0.039-2.805-1.47   c0,0-2.072-3.401-11.217-3.095H54.21c-9.145-0.307-11.216,3.095-11.216,3.095c-0.789,1.431-2.805,1.47-2.805,1.47h-11.25v-5.868   c0,0-0.051-0.549,0.526-1.223l4.24-4.885c0.165-0.221,0.658-0.344,0.658-0.344l2.167-0.648h35.496l2.847,0.648   c0,0,0.493,0.123,0.658,0.344L79.774,65.739z M38.21,27.17v1.431c0,0-0.689,0.888-3.551,0.888h-2.106v1.281H15.919   c0,0-2.386-0.08-10.36-0.548l-1.262-0.1c-0.033-0.003-0.067-0.006-0.101-0.006c-0.414,0-0.75,0.336-0.75,0.751   c0,0.155,0.047,0.3,0.127,0.421l0.072,0.105c0,0,8.901,14.702,28.531,14.9l4.15,0.019c3.892,0,7.354,3.325,7.354,7.215   c0,2.142-1.196,4.004-2.956,4.956h27.663c-1.925-1.339-3.184-3.568-3.184-6.087c0-5.117,4.669-14.376,21.289-17.188l6.854-1.529   c0,0,2.466-0.295,2.466-1.825v-1.232l0.74-0.739V27.17H38.21z"></path></g><g display="none"><path display="inline" d="M97,27v2.883l-1,0.739v1.232c0,1.53-2.562,1.825-2.562,1.825l-6.949,1.529   c-16.62,2.812-21.294,12.07-21.294,17.188c0,2.518,1.249,4.747,3.174,6.086l6.467,2.028c0,0,0.456,0.123,0.621,0.344l4.167,4.885   C80.199,66.413,80,66.962,80,66.962V73H69.05c0,0-2.017-0.257-2.805-1.688c0,0-2.072-3.312-11.217-3.312H54.21   c-9.145,0-11.216,3.312-11.216,3.312C42.205,72.743,40.189,73,40.189,73H29v-6.038c0,0-0.081-0.607,0.496-1.281l4.21-4.943   c0.165-0.221,0.658-0.461,0.658-0.461L40.734,58h0.015c1.747,0,2.933-2.575,2.933-4.707c0-3.889-3.463-6.979-7.354-6.979   l-4.15-0.018C12.547,46.098,3.646,31.397,3.646,31.397l-0.072-0.102c-0.08-0.121-0.127-0.258-0.127-0.414   c0-0.415,0.336-0.737,0.75-0.737c0.033,0,0.067,0.032,0.101,0.035l1.262,0.157C13.533,30.805,15.919,31,15.919,31H33v-2h1.659   C37.521,29,38,28.601,38,28.601V27H97z"></path></g><g display="none"><g display="inline"><path d="M66.856,54.245c0-0.229,0.001-0.461,0.003-0.69c0.371-3.987,4.125-5.833,8.338-5.857V28.483H29.894v20.544l3.75,0.001    c4.475,0,8.458,2.045,8.458,6.518c0,2.433-1.343,4.548-3.326,5.655H70.46C68.281,59.657,66.856,57.118,66.856,54.245z"></path><path d="M29.205,31.151L23.16,31.15v1.474H12.479c0,0-9.083-0.035-9.122-0.035c-0.478,0-0.864,0.386-0.864,0.863    c0,0.178,0.054,0.344,0.147,0.482c0,0,4.284,12.589,26.563,12.94V31.151z"></path><polygon points="78.604,28.45 75.886,28.45 75.886,47.697 77.781,47.697 86.463,40.273 92.138,40.273 92.138,34.361   "></polygon><path d="M73.023,61.891H36.778l-6.889,4.637c-0.662,0.775-0.604,1.406-0.604,1.406v4.787h10.422l1.604-1.691h27.177l1.604,1.691    h10.424v-4.787c0,0,0.058-0.631-0.605-1.406L73.023,61.891z"></path></g></g><g display="none"><path display="inline" d="M36.355,46.249l-0.517-0.017C5.221,43.255,4.173,30.266,4.173,30.266s-0.031-0.339-0.031-0.481   c0-0.379,0.309-0.686,0.688-0.686c0.031,0,0.062,0.001,0.093,0.005l1.156,0.09c7.267,0.985,25.209,0.76,25.209,0.76l0.002-0.998   h5.143v-1.22h59.425l0.002,5.244c-16.391,0-28.899,9.331-28.899,21.132l0.926,4.279H44.971l1.198-4.148   C46.169,48.54,39.919,46.249,36.355,46.249z M44.538,59.533l-8.106,8.271v4.461h7.374c3.216-3.219,12.519-3.311,12.519-3.311h0.173   c0,0,8.858-0.352,12.519,3.311h7.374v-4.461l-8.106-8.271H44.538z"></path></g><g display="none"><g display="inline"><path d="M95.912,33.068c-16.39,0-28.897,9.329-28.897,21.13l1.028,4.748l8.401,8.573v4.458h-7.373    c-3.659-3.658-12.517-3.31-12.517-3.31h-0.172c0,0-9.302,0.094-12.518,3.31h-7.372V67.52l8.401-8.573l1.334-4.615    c0-5.705-6.249-7.994-9.812-7.994L35.9,46.319C5.285,43.343,4.238,30.355,4.238,30.355s-0.031-0.338-0.031-0.48    c0-0.38,0.308-0.688,0.688-0.688c0.032,0,0.062,0.002,0.092,0.007l1.156,0.088c7.266,0.986,25.207,0.76,25.207,0.76l0.002-0.998    h5.142v-1.219h59.414L95.912,33.068z"></path></g></g><g display="none"><path display="inline" d="M92.676,34.299v5.946h-5.707l-8.735,7.469h-2.513c-4.273,0-8.099,2.376-8.476,6.414   c-0.001,0.233-0.001-0.058-0.001,0.173c0,2.891,1.432,5.444,3.623,6.999l9.511,4.841c0.666,0.78,0.607,1.415,0.607,1.415v4.815   H70.5l-1.614-1.702h-27.34l-1.614,1.702H29.446v-4.815c0,0-0.058-0.635,0.607-1.415l8.981-4.865h0.002   c1.971-1.121,3.304-3.234,3.304-5.663c0-4.502-4.008-6.558-8.509-6.558l-4.121-0.001l-0.004-2.159   C6.994,46.666,2.643,33.87,2.643,33.87c-0.094-0.139-0.148-0.306-0.148-0.485c0-0.48,0.389-0.869,0.869-0.869   c0.04,0,9.176,0.036,9.176,0.036h10.745v-1.484l6.546,0.002v-2.684l54.295,0.078L92.676,34.299z"></path></g><g display="none"><path display="inline" fill-rule="evenodd" clip-rule="evenodd" fill="#000000" d="M15.213,31.992   c-0.223,0.724,0.413,2.072,0.643,2.52l27.522,15.466L15.943,64.937c-0.937,1.062-0.965,2.78-0.965,2.78l34.487-14.152   l17.576,13.167c-3.222,10.11,10.651,15.846,15.902,10.144c6.967-9.962-8.862-16.631-14.058-12.748   c-1.537-1.361-10.74-8.36-10.74-8.36c-0.468-0.411-2.131-3.552-3.214-5.655c0.806-1.591,2.001-3.934,2.462-4.688l0.158-0.31   l0.036-0.004c0.229-0.355,0.442-0.637,0.607-0.781c0,0,9.29-7.015,10.843-8.381c5.239,3.923,21.271-2.763,14.223-12.808   c-5.301-5.735-19.3,0.021-16.076,10.182L49.62,46.391L15.213,31.992z M72.646,75.716c-6.336-3.727-3.448-7.863-2.935-8.502   c2.268-3.148,6.261-1.68,6.261-1.68C88.378,69.654,81.934,80.725,72.646,75.716z M72.856,24.299   c9.387-5.033,15.9,6.119,3.342,10.248c0,0-4.037,1.468-6.319-1.703C69.363,32.201,66.459,28.039,72.856,24.299z M49.974,48.416   c0.848,0,1.538,0.688,1.538,1.537s-0.689,1.537-1.538,1.537c-0.85,0-1.538-0.688-1.538-1.537S49.125,48.416,49.974,48.416z"></path></g><g display="none"><path display="inline" d="M69.503,57.545c1.425-1.073,2.834-2.292,4.219-3.677l-2.181-2.18c-1.135,1.132-2.312,2.171-3.523,3.117   l-12.6-23.238c2.164-1.445,3.59-3.909,3.59-6.707c0-3.81-2.643-7-6.193-7.844v-3.34h-4.112v3.438   c-3.363,0.971-5.822,4.071-5.822,7.747c0,2.734,1.362,5.148,3.444,6.608L17.423,84.493c-0.432,0.797-0.514,1.264-0.283,1.816   l8.023-6.602l9.328-16.74c2.471,0.778,6.46,1.76,11.282,1.933c0.465,0.018,0.944,0.026,1.437,0.026   c5.189,0,11.919-1.105,18.494-4.854l13.203,24.094l3.943,2.157l0.137-3.91L69.503,57.545z M50.942,20.469   c2.427,0,4.392,1.966,4.392,4.39c0,2.426-1.965,4.393-4.392,4.393c-2.425,0-4.39-1.967-4.39-4.393   C46.552,22.435,48.518,20.469,50.942,20.469z M46,61.823c-4.133-0.138-7.646-0.932-9.97-1.619l14.994-26.913L64.23,57.388   C58.838,60.497,52.628,62.043,46,61.823z"></path></g><g display="none"><path display="inline" d="M71.03,60.484h2.333v-2.246H69.56L55.413,31.58C57.575,30.134,59,27.671,59,24.875   c0-3.807-2.641-6.996-6.19-7.84v-3.339H48.7v3.437c-3.362,0.971-5.82,4.069-5.82,7.742c0,2.733,1.362,5.146,3.442,6.604   L32.179,58.238h-3.772v2.246h2.286L17.463,84.429l-0.003-0.104c-0.432,0.796-0.537,1.415-0.306,1.967l8.019-6.599l10.653-19.209   h13.387v3.817h3.083v-3.817h13.679L78.89,84.149l3.938,2.154l0.138-3.907L71.03,60.484z M50.938,20.486   c2.426,0,4.39,1.965,4.39,4.388c0,2.424-1.964,4.389-4.39,4.389c-2.423,0-4.387-1.965-4.387-4.389   C46.551,22.452,48.516,20.486,50.938,20.486z M52.281,58.238v-3.955h-3.083v3.955h-11.89l13.712-24.938l13.472,24.938H52.281z"></path></g><g display="none"><path display="inline" d="M32.943,66.45l-8.803,8.055l-2.965,1.238l1.736-2.715l10.033-9.318V66.45z M77.816,29.212   c-0.212,0.177-0.441,0.316-0.683,0.419l-6.751,3.896l-6.365,4.887v-2.936l4.104-3.343l-0.001-0.001l0,0l5.544-6.597   c0.151-0.231,0.339-0.445,0.562-0.632c1.189-0.991,2.958-0.831,3.949,0.358C79.167,26.454,79.006,28.222,77.816,29.212z    M76.992,26.187c-0.467-0.533-1.276-0.588-1.811-0.122c-0.053,0.046-4.514,5.174-4.514,5.174c-0.099,0.084-0.107,0.232-0.023,0.329   c0.086,0.098,0.232,0.107,0.329,0.022c0,0,5.842-3.544,5.896-3.593C77.404,27.531,77.458,26.721,76.992,26.187z M34.239,32.36   c0.308,0.348,0.939,0.632,1.404,0.632h25.665c0.465,0,1.113-0.269,1.442-0.598l3.456-3.456c0.329-0.329,0.218-0.598-0.246-0.598   H31.532c-0.464,0-0.593,0.285-0.286,0.633L34.239,32.36z M62.789,68.612c-0.308-0.348-0.938-0.633-1.403-0.633H35.606   c-0.464,0-1.113,0.269-1.441,0.598l-2.879,2.88c-0.329,0.328-0.217,0.598,0.247,0.598h33.453c0.465,0,0.594-0.285,0.285-0.634   L62.789,68.612z M62.261,35.844c0-0.506-0.414-0.92-0.921-0.92H35.718c-0.506,0-0.92,0.414-0.92,0.92l0,0.432   c0,0.506,0.414,0.919,0.92,0.919H61.34c0.507,0,0.921-0.415,0.921-0.92V35.844z M62.261,52.32c0-0.506-0.414-0.919-0.92-0.919   H35.719c-0.506,0-0.92,0.413-0.92,0.919v0.431c0,0.508,0.414,0.921,0.92,0.921H61.34c0.507,0,0.921-0.413,0.921-0.921V52.32z    M62.261,56.438c0-0.505-0.414-0.919-0.921-0.919H35.719c-0.506,0-0.92,0.414-0.92,0.919v0.433c0,0.506,0.414,0.921,0.92,0.921   H61.34c0.507,0,0.921-0.415,0.921-0.921V56.438z M62.261,60.559c0-0.506-0.414-0.921-0.921-0.921H35.718   c-0.506,0-0.92,0.415-0.92,0.921v0.432c0,0.506,0.414,0.919,0.92,0.919H61.34c0.507,0,0.921-0.413,0.921-0.919V60.559z    M61.34,47.281l-25.622,0.001c-0.506,0-0.92,0.415-0.92,0.919v0.432c0,0.505,0.414,0.92,0.92,0.92H61.34   c0.507,0,0.921-0.414,0.921-0.92l-0.001-0.432C62.26,47.695,61.847,47.281,61.34,47.281z M62.261,39.963   c0-0.305-0.152-0.576-0.383-0.743c-0.152-0.11-0.336-0.177-0.538-0.177H35.718c-0.506,0-0.92,0.413-0.919,0.92v0.431   c0,0.506,0.414,0.92,0.92,0.92H61.34c0.507,0,0.921-0.414,0.921-0.92V39.963z M61.34,63.757H35.719c-0.506,0-0.92,0.415-0.92,0.921   v0.433c0,0.506,0.414,0.92,0.92,0.92l25.621-0.001c0.507,0,0.92-0.414,0.92-0.92l0.001-0.432   C62.261,64.172,61.847,63.757,61.34,63.757z M62.261,44.082c0-0.506-0.414-0.919-0.921-0.919H35.718   c-0.506,0-0.92,0.415-0.92,0.919v0.432c0,0.506,0.414,0.92,0.92,0.92l25.622-0.001c0.507,0,0.921-0.415,0.921-0.919V44.082z"></path></g><g display="none"><g display="inline"><path d="M11.552,78.997c-0.185,0.353-0.049,0.79,0.303,0.975l5.687,2.982c0.353,0.187,0.79,0.05,0.975-0.304l0.962-1.911    l-6.965-3.653L11.552,78.997z"></path><path d="M88.449,78.997l-0.962-1.911l-6.966,3.653l0.962,1.911c0.185,0.354,0.622,0.49,0.975,0.304l5.687-2.982    C88.497,79.787,88.634,79.35,88.449,78.997z"></path><path d="M85.257,72.332l-1.06,0.574l-0.478-0.882l1.06-0.574l-1.823-3.375l-3.1,1.679l-0.478-0.882l3.1-1.679l-1.804-3.338    l-1.064,0.577l-0.478-0.882l1.065-0.577l-1.823-3.375L75.27,61.28l-0.478-0.882l3.105-1.682l-1.804-3.337l-1.07,0.581    l-0.478-0.882l1.071-0.581l-1.825-3.375l-3.11,1.685l-0.478-0.882l3.112-1.685l-1.804-3.337l-1.078,0.583l-0.477-0.882    l1.077-0.583l-1.824-3.375l-3.116,1.688l-0.478-0.882l3.117-1.688l-1.803-3.337l-1.084,0.586l-0.477-0.882l1.083-0.586    L64.63,34.17l-3.124,1.69l-0.476-0.882l3.123-1.69l-1.804-3.337l-1.09,0.59l-0.478-0.882l1.091-0.589l-4.427-8.191l-1.264,0.683    c-0.798-2.66-3.265-4.599-6.185-4.599c-2.895,0-5.345,1.906-6.163,4.531l-1.139-0.615L38.27,29.07l1.09,0.589l-0.478,0.882    l-1.089-0.59l-1.804,3.337l3.124,1.69l-0.479,0.882l-3.123-1.69l-1.824,3.375l1.083,0.586l-0.477,0.882l-1.083-0.586l-1.804,3.336    l3.118,1.689l-0.478,0.882l-3.117-1.688l-1.825,3.375l1.079,0.583l-0.477,0.882l-1.078-0.583l-1.804,3.337l3.112,1.685    l-0.478,0.882l-3.111-1.685l-1.825,3.375l1.073,0.581l-0.479,0.882l-1.07-0.581l-1.804,3.337l3.105,1.682l-0.477,0.882    l-3.105-1.682l-1.824,3.375l1.066,0.577l-0.478,0.882l-1.065-0.577l-1.804,3.337l3.1,1.68l-0.477,0.882l-3.1-1.679l-1.824,3.375    l1.059,0.574l-0.477,0.882l-1.06-0.574l-1.745,3.228l6.915,3.738l27.076-50.095c0.864,0.429,1.836,0.671,2.865,0.671    c1.076,0,2.089-0.264,2.981-0.729l27.107,50.153L87,75.56L85.257,72.332z M49.999,25.074c-0.914,0-1.656-0.741-1.656-1.656    c0-0.915,0.742-1.656,1.656-1.656s1.656,0.742,1.656,1.656C51.654,24.333,50.913,25.074,49.999,25.074z"></path></g></g><g display="none"><g display="inline"><path d="M81.824,18.176c-1.234-1.237-3.236-1.239-4.474-0.006c-0.23,0.232-0.419,0.491-0.565,0.768l-6.835,9.258l0,0l0.001,0.001    l-5.818,5.875L52.836,22.769c-0.33-0.33-0.623-0.219-0.65,0.245l-0.28,4.522c-0.029,0.464,0.217,1.113,0.546,1.442l18.185,18.198    c0.329,0.331,0.98,0.599,1.444,0.599l4.901,0.002c0.465,0,0.577-0.27,0.248-0.598L65.943,35.884l5.877-5.813l0.007,0.007    l9.266-6.891c0.262-0.142,0.507-0.32,0.727-0.54C83.056,21.416,83.058,19.413,81.824,18.176z M80.435,21.606    c-0.06,0.059-0.122,0.106-0.188,0.153c0.004,0.015,0.007,0.028,0.001,0.034l-6.182,4.299c-0.103,0.102-0.27,0.103-0.371-0.001    c-0.103-0.103-0.103-0.27,0.001-0.373l4.507-5.975c0.008-0.008,0.022-0.009,0.04-0.007c0.045-0.062,0.091-0.124,0.147-0.179    c0.564-0.565,1.481-0.564,2.046,0.002C81,20.126,80.999,21.043,80.435,21.606z"></path><path d="M36.531,44.994c-0.358-0.358-0.946-0.357-1.304,0.001L34.921,45.3c-0.359,0.358-0.36,0.945-0.001,1.304l18.154,18.168    c0.358,0.358,0.945,0.359,1.305,0.001l0.306-0.307c0.359-0.357,0.358-0.945,0.001-1.304L36.531,44.994z"></path><path d="M30.689,50.833c-0.359-0.36-0.945-0.36-1.304-0.001l-0.305,0.306c-0.36,0.36-0.36,0.945-0.002,1.305l18.155,18.167    c0.358,0.358,0.945,0.358,1.305,0l0.306-0.305c0.36-0.359,0.359-0.944,0.001-1.305L30.689,50.833z"></path><path d="M33.609,47.913c-0.359-0.359-0.945-0.358-1.304,0l-0.306,0.307c-0.359,0.359-0.357,0.943,0,1.303l18.155,18.169    c0.358,0.358,0.946,0.358,1.305-0.001l0.305-0.305c0.359-0.358,0.36-0.946,0.002-1.304L33.609,47.913z"></path><path d="M27.615,53.745c-0.329-0.329-0.979-0.6-1.444-0.6l-4.083-0.001c-0.466-0.001-0.577,0.269-0.248,0.599l11.456,11.464    L18.724,79.921l-1.472,2.832l2.816-1.484l14.723-14.565l10.753,10.761c0.33,0.329,0.623,0.219,0.651-0.246l0.234-3.752    c0.029-0.463-0.218-1.113-0.546-1.44L27.615,53.745z"></path><path d="M51.134,30.401c-0.358-0.36-0.944-0.36-1.303,0l-0.307,0.306c-0.358,0.358-0.359,0.945,0,1.304l18.155,18.168    c0.358,0.358,0.946,0.36,1.305,0.001l0.305-0.306c0.36-0.359,0.36-0.946,0.002-1.305L51.134,30.401z"></path><path d="M39.452,42.076c-0.359-0.359-0.945-0.359-1.304,0l-0.306,0.306c-0.358,0.358-0.359,0.944,0,1.304l18.153,18.169    c0.359,0.359,0.947,0.359,1.306,0.001l0.306-0.306c0.359-0.358,0.359-0.946,0.001-1.305L39.452,42.076z"></path><path d="M45.293,36.238c-0.358-0.359-0.945-0.36-1.304-0.001l-0.306,0.308c-0.358,0.357-0.359,0.945,0,1.303l18.155,18.169    c0.359,0.357,0.945,0.358,1.305-0.001l0.306-0.305c0.359-0.358,0.358-0.946,0-1.305L45.293,36.238z"></path><path d="M66.369,51.487L48.214,33.319c-0.358-0.359-0.946-0.359-1.304,0l-0.306,0.305c-0.359,0.358-0.359,0.945-0.001,1.305    l18.155,18.167c0.357,0.359,0.945,0.359,1.305,0.001l0.306-0.306c0.217-0.218,0.301-0.517,0.256-0.799    C66.594,51.808,66.512,51.629,66.369,51.487z"></path><path d="M42.372,39.157c-0.359-0.358-0.945-0.359-1.303-0.001l-0.306,0.307c-0.358,0.358-0.36,0.945-0.002,1.305l18.154,18.168    c0.358,0.358,0.946,0.357,1.306,0l0.306-0.307c0.358-0.359,0.358-0.946,0.001-1.304L42.372,39.157z"></path></g></g><g display="none"><path display="inline" fill-rule="evenodd" clip-rule="evenodd" d="M39.841,56.57c2.939-2.939,5.975-5.303,8.672-6.875   c0,0,0.229-0.133,0.279-0.162c1.471-0.854,8.557-5.09,14.453-10.837l25.922-25.922l0.005,0.004   c0.769-0.665,1.931-0.632,2.661,0.098s0.762,1.892,0.098,2.661v0.001L66.008,41.46c-5.745,5.896-9.982,12.982-10.836,14.454   c-0.028,0.049-0.161,0.279-0.161,0.279l-0.001-0.002c-1.573,2.696-3.937,5.732-6.875,8.672c-4.482,4.482-9.194,7.631-12.577,8.667   l-4.383-4.383C32.21,65.763,35.359,61.052,39.841,56.57z M33.341,77.698l-6.326-6.332c-2.375-0.441-4.911,0.396-6.473,3.739   c-3.566,8.843-12.948,8.052-12.948,8.052s12.968,9.296,23.062,1.281C32.761,82.768,33.706,80.171,33.341,77.698z"></path></g><g display="none"><path display="inline" fill-rule="evenodd" clip-rule="evenodd" fill="#000000" d="M9.812,87.789   c6.152-2.28,5.977-8.759,11.599-13.273c2.595-2.082,5.926-3.451,6.145-3.54c0.364-2.487,9.36-10.018,11.271-11.581l43.449-42.474   l0.007,0.007c3.701-3.476,7.042-5.619,7.766-4.895c0.802,0.802-1.928,4.834-6.098,9.004c-0.161,0.161-41.363,42.132-41.363,42.132   c-0.924,1.139-8.937,10.925-11.56,11.289l-0.002-0.003C26.85,86.147,15.733,89.195,9.812,87.789z"></path></g><g display="none"><path display="inline" fill-rule="evenodd" clip-rule="evenodd" d="M40.927,74.846C30.088,97.569,8.055,83.845,8.055,83.845   s11.092,1.666,11.336-8.712c0.231-9.776,9.943-10.685,11.067-10.757L40.927,74.846z M35.555,59.394l-3.2,2.81l10.42,10.42   l2.71-3.205c2.025,0.143,3.936-0.447,5.31-1.82c1.625-1.625,2.151-4.003,1.667-6.432L91.423,15.09c0.696-0.696,0.696-1.825,0-2.521   s-1.823-0.696-2.52,0L43.464,52.453c-2.307-0.368-4.536,0.183-6.083,1.73C36.03,55.534,35.439,57.405,35.555,59.394z"></path></g><g display="none"><path display="inline" d="M87,66v4H11v-4h14.094c0,0,3.055-0.098,7.867-4.76c1.707-1.652,3.322-3.246,4.811-4.733l6.046-5.827   L62.71,30.995l4.562,5.131L50.172,54.163c3.317,0.675,7.224,2.856,14.485,8.078c0,0,3.364,2.403,6.568,2.564   c0,0,0.185-0.011,0.187-0.015c0.692-1.782,2.9-3.28,1.37-8.611c-1.01-3.521-5.137-10.444-5.137-10.444s-2.882-4.295,1.375-6.176   c4.256-1.88,7.226-3.124,13.858-3.732c0,0,0.89,0.406,0,1.297c-0.891,0.891-6.077,4.681-3.303,9.584   C81.47,50.054,85.785,55,85.644,66H87z M15.717,58.016c0,1.757-0.717,2.98-0.717,2.98V63h10v-2.004c0,0-0.774-1.224-0.774-2.98   c0-1.755-0.262-2.134,1.41-5.287c1.672-3.151,1.917-1.981,1.917-4.489s-1.507-6.768-7.607-6.768c-6.1,0-7.605,4.26-7.605,6.768   s0.268,1.338,1.938,4.489C15.949,55.882,15.717,56.261,15.717,58.016z"></path></g><g display="none"><g display="inline"><path fill="#000000" d="M85.644,66c0.142-11-4.174-15.946-6.067-19.292c-2.774-4.903,2.412-8.694,3.303-9.584    c0.89-0.891,0-1.297,0-1.297c-6.633,0.608-9.603,1.853-13.858,3.732c-4.257,1.881-1.375,6.176-1.375,6.176    s4.127,6.923,5.137,10.444c1.53,5.331-0.678,6.829-1.37,8.611c-0.002,0.004-0.187,0.015-0.187,0.015    c-3.204-0.161-6.568-2.564-6.568-2.564c-7.262-5.222-11.168-7.403-14.485-8.078l17.101-18.037l-4.562-5.131L46.813,47.56    c0.397-1.998,0.232-4.074-0.518-6.022c-0.852-2.211-2.513-3.959-4.68-4.922c-2.165-0.961-4.576-1.023-6.786-0.172    c-3.73,1.436-5.599,5.64-4.163,9.369c1.179,3.063,4.63,4.597,7.692,3.418c1.225-0.473,2.193-1.394,2.725-2.592    c0.533-1.199,0.567-2.533,0.096-3.759c-0.391-1.019-1.156-1.823-2.152-2.265c-0.996-0.442-2.107-0.471-3.124-0.079    c-1.758,0.676-2.639,2.657-1.962,4.417c0.572,1.484,2.246,2.227,3.729,1.656c-0.249-0.658-0.327-0.814-0.544-1.418    c-0.704,0.271-1.497-0.08-1.768-0.785c-0.376-0.977,0.112-2.077,1.09-2.453c0.639-0.246,1.336-0.227,1.962,0.05    c0.625,0.276,1.106,0.783,1.351,1.422c0.327,0.847,0.303,1.769-0.065,2.597c-0.368,0.83-1.037,1.465-1.883,1.791    c-2.28,0.879-4.851-0.265-5.729-2.545c-1.135-2.949,0.341-6.271,3.29-7.406c1.833-0.705,3.831-0.654,5.626,0.144    c1.795,0.796,3.172,2.245,3.877,4.078c0.901,2.339,0.836,4.888-0.182,7.177c-0.18,0.406-0.393,0.787-0.623,1.155l-0.254,0.265    l-6.046,5.827c-1.489,1.487-3.104,3.081-4.811,4.733C28.149,65.902,25.094,66,25.094,66H11v4h76v-4H85.644z"></path><path fill="#000000" d="M15.717,58.016c0,1.757-0.717,2.98-0.717,2.98V63h10v-2.004c0,0-0.774-1.224-0.774-2.98    c0-1.755-0.262-2.134,1.41-5.287c1.672-3.151,1.917-1.981,1.917-4.489s-1.507-6.768-7.607-6.768c-6.1,0-7.605,4.26-7.605,6.768    s0.268,1.338,1.938,4.489C15.949,55.882,15.717,56.261,15.717,58.016z"></path></g></g><g display="none"><g display="inline"><path fill-rule="evenodd" clip-rule="evenodd" d="M74.276,39.657c-0.164,0.165-1.797,4.411-7.923-1.227    c-4.249,5.392-5.882,5.226-5.882,5.226l-2.287,2.288c-0.657,0.49-1.96-0.329-1.96-0.329L29.914,71.919l-5.065,4.083l-0.165-0.166    l3.396-5.757l26.306-26.301c0,0-0.816-1.305-0.326-1.96l2.291-2.289c0,0-0.164-1.626,5.226-5.876    c-5.634-6.131-1.384-7.764-1.221-7.925c7.72-4.355,11.934,0.804,12.443,1.483C73.477,27.717,78.635,31.937,74.276,39.657z"></path></g></g><g display="none"><g display="inline"><g><path fill-rule="evenodd" clip-rule="evenodd" d="M36.003,52.497l0.004-21.943c0-5.771-6.247-5.711-6.247,0v21.943v2.638v21.009     l9.108,9.775h20.253l9.712-9.775c3.9-14.044-1.667-27.281-0.561-33.424c1.17-4.717-6.246-3.229-6.246,2.481v12.167h-1.845v-2.484     l0.022,0.003V22.856c0-5.772-6.242-5.708-6.242,0l-0.004,29.643h-1.82V18.387c0-5.771-6.245-5.711-6.245,0v34.112h-1.82V23.104     c0-5.771-6.245-5.709-6.245,0v29.394H36.003z"></path></g></g></g><g display="none"><g display="inline"><g><path fill-rule="evenodd" clip-rule="evenodd" d="M37.018,51.241l0.005-21.785c0-5.729-6.201-5.669-6.201,0v21.785v2.616     c0,0,0,10.64,0,15.291c0,23.755,38.233,23.569,38.233,0c0-19.148-1.101-21.518,0-27.617c1.16-4.68-6.202-3.204-6.202,2.464     v12.078h-1.831v-2.465l0.021,0.002V21.815c0-5.73-6.195-5.666-6.195,0l-0.004,29.426h-1.807V17.379c0-5.729-6.201-5.668-6.201,0     v33.862h-1.807v-29.18c0-5.729-6.201-5.668-6.201,0v29.18H37.018z"></path></g></g></g><g display="none"><path display="inline" d="M83.23,36.025l-0.295,2.127l-2.131-0.257l-0.298,2.128l-2.132-0.257l-0.295,2.126l-2.128-0.26   l-0.293,2.125l-2.125-0.261l-0.293,2.123l-2.126-0.263l-0.289,2.123l-2.123-0.264l-0.29,2.122l-2.126-0.263l-0.292,2.125   l-2.126-0.261l-0.292,2.125l-2.131-0.259l-0.296,2.128l-2.134-0.256l-0.298,2.129l-2.133-0.257l-0.295,2.127l-2.131-0.259   l-0.294,2.126l-2.13-0.26l-0.294,2.126l-2.133-0.258l-0.295,2.127l-2.134-0.256l-0.3,2.132l-2.134-0.256l-0.298,2.129l-2.131-0.257   l-0.298,2.128l-2.133-0.257l-0.299,2.13l-2.137-0.254l-0.299,2.13l-2.134-0.257l-0.299,2.131l-2.137-0.254L31.981,77.4   l-2.134-0.256l-0.298,2.13l-2.137-0.254l-0.298,2.128l-2.131-0.259l-0.298,2.13l-2.139-0.253l-0.299,2.131l-2.137-0.254   l-0.305,2.134l-2.138-0.253l-0.302,2.133l-2.134-0.256l-0.306,2.136l-2.145-0.249l-0.309,2.14l-2.309-0.262l-3.835-3.075   c-1.387-1.218,0.018-3.144,0.018-3.144l42.573-53.568l6.347,4.342l3.097-3.164c0.167-0.175,1.715-1.657,3.88-0.139l5.708,3.901   c0.058,0.041,0.84,0.567,2.052,0.567c0.957,0,2.182-0.33,3.525-1.485c2.06-1.771,4.354-0.552,4.555-0.454   c0.028,0.008,2.114,0.732,4.456-0.545C83.202,35.039,83.23,36.025,83.23,36.025z M94.2,23.929c0,0-1.928,2.404-4.082,2.317   c-2.153-0.089-3.501,1.486-3.501,1.486s-1.172,1.308-1.527,2.52c-0.179,0.611-0.74,1.536-1.454,2.42   c0.002,0.003,0.007,0.008,0.009,0.012c-2.387,2.837-4.952,1.993-4.987,1.993c-0.13-0.071-3.234-1.753-6.043,0.664   c-2.191,1.888-3.805,0.87-3.87,0.828l-5.705-3.901c-2.558-1.795-4.841-0.574-5.683,0.316l-2.271,2.32l-5.295-3.623l7.517-9.458   c0,0,0.997-1.44,3.986-1.993c0,0,3.058-0.173,3.472-3.175c0,0,0.137-1.214,1.624-1.551c0,0,3.237-0.659,4.283-3.25   c0,0,1.219-3.359,6.573-4.431l1.337,1.339c0,0,0.147,0.158-0.086,0.391l-0.774,0.242c0,0-3.1,1.199-2.657,3.792   c0,0,0.062,2.466,4.363,2.846c0,0,3.225-0.063,7.082,4.933c0,0,2.339,3.479,4.933,1.391l0.58-0.581c0,0,0.157-0.281,0.438,0   l1.691,1.693C94.153,23.47,94.413,23.715,94.2,23.929z M55.484,30.27c-0.014-0.48-0.416-0.857-0.896-0.842   c-0.482,0.014-0.859,0.416-0.845,0.896c0.015,0.481,0.417,0.859,0.897,0.846C55.123,31.152,55.5,30.752,55.484,30.27z    M80.65,32.541c-0.014-0.48-0.416-0.857-0.896-0.842c-0.482,0.014-0.859,0.416-0.845,0.896c0.015,0.481,0.417,0.859,0.897,0.846   C80.289,33.423,80.666,33.023,80.65,32.541z M78.453,23.049l-5.017-2.414c0,0-7.202-3.318-8.184,1.169c0,0-1.281,3.847,4.902,4.525   c0,0,2.886,0.51,5.544,1.962c0,0,4.64,2.564,5.809-0.529C81.508,27.763,82.374,24.52,78.453,23.049z"></path></g><g display="none"><path display="inline" d="M63.937,58.284h5.644v6.695l-1.147-0.588l-1.147,0.588l-1.145-0.588l-1.146,0.588l-1.146-0.588   l-1.147,0.588l-1.152-0.588L60.4,64.979l-1.145-0.588l-1.146,0.588l-1.146-0.588l-1.148,0.588l-1.145-0.588l-1.153,0.588   l-1.147-0.588l-1.147,0.588l-1.145-0.588l-1.147,0.588l-1.15-0.588l-1.145,0.588l-1.149-0.588l-1.152,0.588l-1.143-0.588   l-1.151,0.588l-1.143-0.588l-1.147,0.588l-1.148-0.588l-1.146,0.588l-1.146-0.588l-1.148,0.588l-1.147-0.588l-1.149,0.588   l-1.147-0.588l-1.148,0.588l-1.146-0.588l-1.146,0.588l-1.152-0.588l-1.147,0.588l-1.153-0.588l-1.147,0.588l-1.148-0.588   l-1.153,0.588l-1.147-0.588l-1.152,0.588l-1.148-0.588l-1.148,0.588l-1.15-0.588l-1.146,0.588l-1.152-0.588l-1.155,0.588   l-1.149-0.588l-1.155,0.588L8.72,64.392l-1.156,0.588V48.227c-0.353-0.062-0.916-0.318-0.916-1.334v-2.141   c0,0,0.071-0.784,1.006-0.784l51.482-0.03v6.749c-0.002,0.103-0.034,2.514,2.054,3.858c2.363,1.521,2.646,3.049,2.656,3.103   L63.937,58.284z M93.352,55.137c0,0.868-3.8,3.106-6.987,1.732c0,0-2.275-0.415-2.82,1.142c-0.36,1.032-4.593,1.848-5.85,0.593   c0,0-1.586-1.688-7.843-1.771l-4.722-0.029c-0.309-0.795-1.109-2.199-3.139-3.503c-1.377-0.887-1.374-2.513-1.373-2.596v-6.767   l4.506-0.005c1.346-0.938,1.661-2.691,1.722-3.583c0.023-0.331,0.553-0.541,0.553-0.541h2.006c5.04,0,6.449-2.438,6.449-2.438   s1.623-2.329,6.988-2.329c0,0,3.087-0.189,2.869,0.593c-0.432,1.57-1.843,1.682-1.843,1.682c-3.573,0.378-3.952,3.088-2.001,5.037   c0,0,3.792,3.521,6.064,9.424c0,0,1.084,2.657,4.334,2.657C92.266,54.435,93.352,54.271,93.352,55.137z M65.445,46.046   c-0.35-0.329-0.896-0.312-1.226,0.036c-0.323,0.347-0.306,0.896,0.042,1.223c0.351,0.327,0.894,0.312,1.223-0.04   C65.813,46.918,65.797,46.37,65.445,46.046z M67.723,52.881c-0.348-0.328-0.895-0.312-1.224,0.036   c-0.325,0.347-0.308,0.896,0.04,1.223c0.353,0.327,0.894,0.312,1.223-0.04C68.091,53.753,68.074,53.206,67.723,52.881z    M79.765,48.703l-3.17-3.745c-2.704-3.637-5.304-1.455-5.304-1.455c-1.923,1.925-0.625,3.677-0.625,3.677l3.433,4.642   c0,0,4.014,5.17,6.707,2.598C83.093,52.237,79.765,48.703,79.765,48.703z"></path></g><g display="none"><path display="inline" d="M93.579,21.609c-4.555-2.229-8.186-5.411-8.186-5.411L75.604,6.41c-0.92-0.92-1.647,0.194-1.647,0.194   l-6.735,7.172c-0.896,0.896,0,1.502,0,1.502l1.286,1.287c-0.492,0.504-1.637,1.924-3.13,5.378   c-2.014,4.657-5.046,8.931-7.33,11.896c-4.1,5.321-13.206,13.732-13.206,13.732C26.643,63.461,20.41,71.572,20.41,71.572   c-2.964,3.922-4.591,5.353-4.591,5.353l-6.12,6.161c-2.461,2.313-0.784,2.581-0.784,2.581s5.06,0.179,9.833-0.864   c0,0,1.562-0.393,2.756-2.888l3.472-7.117c0,0,2.298-5.646,25.706-25.826c0,0,10.763-9.609,16.123-16.784   c0,0,1.814-2.639,5.402-6.721l2.626-2.781c4.571,3.554,7.117,10.887,7.117,10.887c0.193,0.193,0.874-0.075,0.874-0.075   c5.962-3.246,10.807-10.806,10.807-10.806C94.013,21.994,93.579,21.609,93.579,21.609z"></path></g><g display="none"><path display="inline" d="M73.327,9.453c0,0,0.213-0.212,0.504,0c0,0,0.638,0.391,2.551,2.042l0.215-0.218c0,0,0.253-0.25,0.502,0   l5.573,5.145c0.183,0.187,0.04,0.455,0.04,0.455l-0.174,0.217c0.473,0.446,0.965,0.956,1.48,1.453l1.825,1.824   c1.434,1.452,6.753,5.714,6.753,5.714c0.237,0.174,0.148,0.313,0.148,0.313S88.92,32.42,80.87,36.406c0,0-0.25,0.134-0.245-0.125   c0,0,0.255-2.324-0.556-11.573c0,0-0.003-0.684-0.533-1.212l-1.707-1.706c0,0,0.048,0.472-1.294,1.645L58.086,42.216   c0,0-5.729,6.011-11.152,10.984L27.101,72.574c-7.212,7.213-11.46,17.275-11.46,17.275c-0.279,0.949-1.117,0.78-1.117,0.78H9.771   c-1.117,0-1.731-0.557-1.731-0.557l-0.617-0.617c-0.688-1.365,0.772-2.574,0.772-2.574s5.072-5.072,6.749-7.924   c1.679-2.853,5.729-7.108,5.729-7.108l31.639-31.64c9.391-9.728,14.171-17.524,14.171-17.524l0.193-0.363   c2.433-5.004,4.11-5.729,4.11-5.729l0.773-0.398l-1.918-1.866c-0.337-0.335-0.071-0.559-0.071-0.559L73.327,9.453z"></path></g><g display="none"><path display="inline" d="M79.625,40.689c-3.594-2.481-12.8-12.399-12.8-12.399l-0.595-0.592c-1.298-1.298-2.491,0.066-2.491,0.066   l-2.736,2.735c-1.328,1.33-0.87,2.817-0.733,3.215c-5.685,6.536-10.129,9.239-11.866,10.758l-0.035,0.026   c0,0-9.684,7.234-16.396,15.433l-0.065,0.075c-4.293,5.845-11.441,11.562-11.441,11.562c-0.829,0.674-0.145,0.901-0.145,0.901   l8.282,0.383c2.145,0.239,4.629-4.169,4.629-4.169c0.938-1.477,2.878-4.522,4.057-5.96C44,54.525,52.345,48.748,52.345,48.748   c6.239-4.896,11.502-9.79,11.502-9.79l0.682-0.61c0.284,0.332,0.453,0.531,0.453,0.531c1.841,2.566,5.253,9.588,5.253,9.588   c5.414-1.325,9.709-7.508,9.709-7.508L79.625,40.689z M27.576,70.594c-0.545,0-0.983-0.44-0.983-0.984s0.438-0.983,0.983-0.983   c0.544,0,0.984,0.439,0.984,0.983S28.121,70.594,27.576,70.594z"></path></g><g display="none"><path display="inline" d="M92.986,51.213h2.008v4.459h-2.132c-0.057,1.362-0.132,2.515-0.228,2.535l-1.139,1.657l-0.878-1.274   c-0.103,0.018-0.211,0.037-0.321,0.057l-1.226,1.827l-1.212-1.42c-0.035,0.005-0.07,0.011-0.104,0.017l-1.283,1.912l-1.206-1.414   l-1.217,1.814l-1.106-1.299l-1.188,1.771l-1.239-1.45l-1.152,1.718l-1.157-1.357l-1.072,1.6l-1.2-1.406l-1.092,1.629l-1.144-1.34   l-1.094,1.633l-1.193-1.397l-1.018,1.52l-1.212-1.42l-1.026,1.53l-1.13-1.324l-1.042,1.553l-1.229-1.439l-0.964,1.439l-1.146-1.342   l-1.025,1.529l-1.204-1.411l-0.945,1.411l-1.216-1.425l-0.956,1.425l-1.084-1.271l-0.978,1.459l-1.146-1.343l-1.025,1.529   l-1.203-1.41l-0.946,1.41l-1.075-1.259l-1.074,1.259l-0.945-1.41l-1.204,1.41l-1.025-1.529l-1.146,1.343l-0.977-1.459l-1.085,1.271   l-0.955-1.425l-1.216,1.425l-0.945-1.411l-1.204,1.411l-1.025-1.529l-1.146,1.342l-0.965-1.439L33.7,63.341l-1.041-1.553   l-1.13,1.324l-1.026-1.53l-1.211,1.42l-1.02-1.52L27.08,62.88l-1.095-1.633l-1.143,1.34l-1.092-1.629l-1.2,1.405l-1.072-1.599   l-1.158,1.357l-1.152-1.718l-1.238,1.45l-1.188-1.771l-1.107,1.299l-1.113-1.661c-0.069-0.011-0.138-0.021-0.206-0.032   l-1.104,1.293l-1.115-1.663c-0.147-0.027-0.291-0.053-0.431-0.079l-1.054,1.233l-1.118-1.668c-0.176-0.039-0.343-0.076-0.5-0.112   l-0.805,1.171l-1.15-1.673c-0.052-0.016-0.093-1.161-0.124-2.52H5.007v-4.459h1.84c0-0.002,0-0.014,0-0.014h86.14   C92.986,51.199,92.986,51.211,92.986,51.213z M7.592,49.502l0.562-11.647c0-0.971-0.787-1.758-1.758-1.758   s-1.758,0.787-1.758,1.758L5.2,49.502C6.332,49.502,6.354,49.502,7.592,49.502z M94.8,49.502l0.562-11.647   c0-0.971-0.787-1.758-1.758-1.758c-0.972,0-1.758,0.787-1.758,1.758l0.562,11.647C93.646,49.502,93.669,49.502,94.8,49.502z"></path></g><g><path d="M31.314,59.826c0,0-0.329,0.486-0.131,1.104c0.264,0.815,0.042,1.705-1.724,3.601l-6.063,7.15   c-6.315,6.869-3.052,10.727-3.052,10.727c4.087,5.318,8.686,0.13,8.686,0.13c0.551-0.554,0.188-0.799,0.188-0.799l-0.344-0.273   c-2.616-1.613-1.791-3.942-1.791-3.942c0.752-3.16,7.753-10.115,7.753-10.115l6.267-6.21l-6.154-5.78L31.314,59.826z M26.447,73.97   c-0.287,0.421-0.861,0.535-1.284,0.249c-0.425-0.288-0.532-0.861-0.249-1.281c0.287-0.426,0.86-0.537,1.283-0.249   C26.621,72.972,26.731,73.545,26.447,73.97z M35.847,61.36c-0.287,0.42-0.857,0.531-1.283,0.244   c-0.423-0.283-0.534-0.856-0.247-1.281c0.283-0.423,0.859-0.534,1.282-0.249C36.023,60.359,36.132,60.935,35.847,61.36z    M45.568,57.644l-3.699,2.943l-6.305-5.926c0,0,7.544-9.487,17.405-18.359c0,0,2.879-2.525,5.759-2.875c0,0,1.097-0.144,1.007-1.32   l-0.213-0.731c0,0-0.348-0.706,0.644-1.215l3.349-2.264c0,0,4.08-2.131,1.691-5.387c0,0-1.705-2.526-4.403-2.969   c0,0-0.896-0.214-0.808-1.247c0,0,0.215-1.974,2.763-2.785c0,0,7.005-3.504,16.923,12.821l1.218,2.29   c1.101,1.684,0.299,2.087,0.299,2.087c-1.275,1.195-2.602,1.593-2.602,1.593c-2.262-0.551-12.537,7.035-12.537,7.035L47.167,55.334   C45.866,56.305,45.568,57.644,45.568,57.644"></path></g></svg>